<svg width="43" height="43" viewBox="0 0 43 43" fill="none" xmlns="http://www.w3.org/2000/svg">
<g clip-path="url(#clip0_2699_3019)">
<path d="M35.995 7.00407C44.0008 15.0098 44.0008 27.9897 35.995 35.9954C27.9893 44.0012 15.0094 44.0012 7.00365 35.9954C-1.00209 27.9897 -1.00209 15.0098 7.00365 7.00407C15.0094 -1.00168 27.9893 -1.00168 35.995 7.00407Z" stroke="white" stroke-width="2"/>
<path fill-rule="evenodd" clip-rule="evenodd" d="M24.2653 13.5165C25.047 13.4903 25.8283 13.511 26.6122 13.5092H26.9352V9.44187C26.5172 9.39887 26.0799 9.33953 25.643 9.31846C24.8411 9.28277 24.0378 9.24278 23.235 9.2617C22.0091 9.28707 20.8494 9.58592 19.838 10.3118C18.677 11.1481 18.0376 12.3216 17.7951 13.7088C17.6945 14.2807 17.6687 14.8728 17.6536 15.4546C17.6313 16.3674 17.6489 17.2799 17.6506 18.1937V18.5355H13.7578V23.0789H17.6278V34.4993H22.3578V23.0965H26.2145C26.4127 21.5859 26.6054 20.0895 26.8083 18.5316C26.4983 18.5316 26.2196 18.5316 25.941 18.5316C24.8445 18.5359 22.3264 18.5316 22.3264 18.5316C22.3264 18.5316 22.3372 16.2793 22.3643 15.3023C22.3987 13.9637 23.1929 13.5552 24.2653 13.5165Z" fill="white"/>
</g>
<defs>
<clipPath id="clip0_2699_3019">
<rect width="43" height="43" fill="white"/>
</clipPath>
</defs>
</svg>
