<svg width="340" height="52" viewBox="0 0 340 52" fill="none" xmlns="http://www.w3.org/2000/svg">
<g clip-path="url(#clip0_2571_2338)">
<path d="M270.502 35.4661C271.23 35.4661 271.837 35.6964 272.329 36.157C272.821 36.6176 273.066 37.2078 273.066 37.9322C273.066 38.6567 272.821 39.2085 272.329 39.6691C271.837 40.1297 271.23 40.36 270.502 40.36H256.843C256.115 40.36 255.503 40.1153 255.016 39.6259C254.524 39.1365 254.278 38.532 254.278 37.8075V13.6355C254.278 12.911 254.529 12.3065 255.035 11.8171C255.541 11.3277 256.182 11.083 256.968 11.083C257.638 11.083 258.236 11.3277 258.752 11.8171C259.268 12.3065 259.528 12.911 259.528 13.6355V36.1762L258.603 35.4661H270.497H270.502Z" fill="#EC2A37"/>
<path d="M293.779 17.5649C294.507 17.5649 295.109 17.8 295.587 18.275C296.064 18.75 296.3 19.3642 296.3 20.1126V37.8026C296.3 38.5271 296.064 39.1364 295.587 39.621C295.109 40.1104 294.507 40.3551 293.779 40.3551C293.051 40.3551 292.448 40.1104 291.971 39.621C291.493 39.1317 291.257 38.5271 291.257 37.8026V35.7539L292.183 36.1329C292.183 36.4976 291.985 36.9342 291.595 37.4524C291.204 37.9706 290.669 38.4791 289.999 38.9781C289.329 39.4771 288.533 39.9041 287.627 40.2544C286.715 40.6046 285.727 40.7773 284.666 40.7773C282.733 40.7773 280.983 40.2832 279.411 39.2948C277.844 38.3064 276.6 36.939 275.694 35.1973C274.783 33.4557 274.33 31.455 274.33 29.1951C274.33 26.9353 274.783 24.8962 275.694 23.1545C276.605 21.4129 277.83 20.0455 279.373 19.0571C280.916 18.0687 282.622 17.5745 284.498 17.5745C285.703 17.5745 286.807 17.7569 287.815 18.1167C288.822 18.4813 289.7 18.9371 290.442 19.4985C291.185 20.0551 291.758 20.6212 292.163 21.1922C292.568 21.7631 292.771 22.2429 292.771 22.6364L291.257 23.1785V20.127C291.257 19.4025 291.493 18.798 291.971 18.3086C292.448 17.8192 293.051 17.5745 293.779 17.5745V17.5649ZM285.288 36.1761C286.523 36.1761 287.598 35.8691 288.523 35.2549C289.449 34.6408 290.167 33.8059 290.688 32.7456C291.204 31.6853 291.464 30.5002 291.464 29.1903C291.464 27.8805 291.204 26.6522 290.688 25.5919C290.167 24.5315 289.449 23.6967 288.523 23.0826C287.598 22.4684 286.518 22.1614 285.288 22.1614C284.059 22.1614 283.018 22.4684 282.097 23.0826C281.171 23.6967 280.453 24.5315 279.932 25.5919C279.411 26.6522 279.156 27.8517 279.156 29.1903C279.156 30.529 279.416 31.6853 279.932 32.7456C280.448 33.8059 281.171 34.6408 282.097 35.2549C283.022 35.8691 284.083 36.1761 285.288 36.1761Z" fill="#EC2A37"/>
<path d="M311.304 17.5652C313.266 17.5652 315.021 18.0594 316.578 19.0477C318.131 20.0361 319.365 21.3987 320.276 23.126C321.187 24.8532 321.641 26.8636 321.641 29.1474C321.641 31.4312 321.187 33.4463 320.276 35.188C319.365 36.9296 318.145 38.297 316.622 39.2854C315.093 40.2738 313.377 40.768 311.473 40.768C310.349 40.768 309.303 40.5857 308.32 40.2258C307.336 39.866 306.478 39.4054 305.735 38.844C304.993 38.2875 304.419 37.7213 304.014 37.1503C303.609 36.5794 303.407 36.0996 303.407 35.7062L304.708 35.164V38.2155C304.708 38.94 304.472 39.5493 303.995 40.0339C303.518 40.5233 302.915 40.768 302.187 40.768C301.459 40.768 300.856 40.5281 300.379 40.0579C299.902 39.5829 299.665 38.9688 299.665 38.2203V11.9612C299.665 11.2367 299.902 10.6322 300.379 10.1428C300.856 9.65339 301.459 9.40869 302.187 9.40869C302.915 9.40869 303.518 9.65339 303.995 10.1428C304.472 10.6322 304.708 11.2367 304.708 11.9612V22.5838L303.995 22.2096C303.995 21.8497 304.193 21.4083 304.583 20.8901C304.974 20.372 305.509 19.8586 306.179 19.3404C306.849 18.827 307.63 18.4 308.512 18.0642C309.395 17.7283 310.325 17.5604 311.309 17.5604L311.304 17.5652ZM310.672 22.1664C309.438 22.1664 308.363 22.4735 307.437 23.0876C306.512 23.7017 305.793 24.5318 305.272 25.5777C304.752 26.6237 304.496 27.8136 304.496 29.1522C304.496 30.4908 304.757 31.6567 305.272 32.7266C305.793 33.8014 306.512 34.6458 307.437 35.2552C308.363 35.8693 309.438 36.1764 310.672 36.1764C311.907 36.1764 312.977 35.8693 313.888 35.2552C314.799 34.641 315.513 33.7966 316.029 32.7266C316.549 31.6519 316.805 30.462 316.805 29.1522C316.805 27.8424 316.545 26.6237 316.029 25.5777C315.513 24.5318 314.794 23.7017 313.888 23.0876C312.977 22.4735 311.907 22.1664 310.672 22.1664Z" fill="#EC2A37"/>
<path d="M322.648 36.8862C322.369 36.4976 322.243 35.9938 322.267 35.3797C322.296 34.7655 322.658 34.2378 323.362 33.7916C323.81 33.5133 324.288 33.3933 324.789 33.4365C325.29 33.4797 325.782 33.734 326.259 34.209C327.069 35.0198 327.928 35.6436 328.824 36.0898C329.721 36.536 330.84 36.7567 332.185 36.7567C332.604 36.7279 333.067 36.6655 333.573 36.5696C334.08 36.4736 334.518 36.2481 334.899 35.9026C335.275 35.5524 335.468 35.0198 335.468 34.2905C335.468 33.6764 335.256 33.1918 334.836 32.8272C334.417 32.4673 333.863 32.1603 333.178 31.906C332.493 31.6565 331.727 31.4166 330.888 31.1959C330.02 30.9464 329.128 30.6681 328.217 30.361C327.306 30.054 326.472 29.6557 325.715 29.1711C324.958 28.6818 324.341 28.034 323.868 27.228C323.391 26.4219 323.155 25.4048 323.155 24.1765C323.155 22.7803 323.545 21.6 324.331 20.6212C325.117 19.6472 326.129 18.894 327.378 18.3614C328.622 17.8336 329.933 17.5649 331.307 17.5649C332.175 17.5649 333.086 17.6705 334.041 17.8768C334.996 18.0879 335.902 18.419 336.775 18.8796C337.642 19.3402 338.37 19.9447 338.959 20.698C339.267 21.1154 339.45 21.6192 339.503 22.2045C339.561 22.7899 339.291 23.3177 338.703 23.7927C338.284 24.1285 337.792 24.2725 337.233 24.2341C336.673 24.1909 336.211 24.0038 335.844 23.6679C335.367 23.0538 334.73 22.5692 333.93 22.2045C333.13 21.8447 332.214 21.6624 331.177 21.6624C330.758 21.6624 330.3 21.7104 329.813 21.8063C329.321 21.9023 328.897 22.1134 328.53 22.4348C328.164 22.7563 327.985 23.2649 327.985 23.9606C327.985 24.6035 328.198 25.1121 328.617 25.4863C329.036 25.8654 329.605 26.1676 330.319 26.4075C331.032 26.6426 331.794 26.8729 332.609 27.0984C333.448 27.3239 334.301 27.5878 335.174 27.8949C336.042 28.202 336.842 28.605 337.57 29.1088C338.298 29.6126 338.886 30.2603 339.335 31.0519C339.783 31.8484 340.005 32.856 340.005 34.0842C340.005 35.5044 339.585 36.7183 338.742 37.7211C337.898 38.7238 336.852 39.4867 335.589 40.0001C334.325 40.5183 333.038 40.7725 331.722 40.7725C330.068 40.7725 328.415 40.4847 326.761 39.9137C325.107 39.3428 323.733 38.3304 322.643 36.8814L322.648 36.8862Z" fill="#EC2A37"/>
<path d="M24.6125 3.17145C24.2846 3.32019 24.1641 3.7568 24.3714 4.05907C24.5546 4.32296 23.9423 4.29897 31.4056 4.29897H38.0831L38.2277 4.2222C38.652 3.9871 38.6086 3.34418 38.1458 3.15226C37.9385 3.0659 24.8005 3.08029 24.6125 3.16665M24.6221 10.1237C24.1448 10.3396 24.14 10.9585 24.6077 11.1936C24.7234 11.256 24.9066 11.256 31.3912 11.256C37.8758 11.256 38.0638 11.256 38.1892 11.1936C38.6472 10.9537 38.6472 10.3396 38.1747 10.1237C37.9722 10.0325 24.815 10.0325 24.6221 10.1237ZM23.6531 16.4809C23.1565 16.7112 23.2095 17.4645 23.735 17.6132C23.817 17.6372 25.9528 17.6468 30.5041 17.6468L37.1574 17.6324L37.2876 17.5365C37.6926 17.2726 37.6299 16.6632 37.1912 16.4713C36.9838 16.385 23.8411 16.3994 23.6531 16.4809ZM22.7033 22.6751C22.2549 22.8814 22.226 23.5003 22.6599 23.7258L22.8335 23.8122H29.482C35.8701 23.8026 36.1353 23.8026 36.2607 23.745C36.738 23.5243 36.7235 22.867 36.2317 22.6655C36.0341 22.5743 22.8817 22.5887 22.7033 22.6799V22.6751ZM20.3843 28.4614C19.9744 28.6677 19.9744 29.3442 20.3746 29.5313C20.5723 29.6225 33.6765 29.6321 33.9368 29.5409C34.4045 29.3826 34.4093 28.6629 33.9465 28.4566C33.7295 28.3558 20.5819 28.3606 20.3843 28.4566V28.4614ZM16.9371 34.2525C16.508 34.454 16.4742 35.0681 16.8744 35.2984L17.0142 35.3848H23.7302C30.2727 35.3848 30.4414 35.3848 30.5475 35.3272C30.9766 35.0585 30.938 34.4396 30.48 34.2381C30.2727 34.1565 17.1395 34.1613 16.9371 34.2525ZM13.649 40.0532C13.2343 40.2691 13.244 40.9216 13.6634 41.1375L13.8418 41.2239L20.4807 41.2143C26.9749 41.2047 27.1388 41.1999 27.2545 41.1375C27.6885 40.9216 27.674 40.2739 27.2401 40.0532C27.0376 39.9572 13.837 39.9572 13.6441 40.0532H13.649ZM10.4332 45.4364C9.97033 45.6428 9.97515 46.3433 10.4332 46.5448C10.5682 46.5975 10.7658 46.6071 17.2504 46.5975H23.9279L24.0436 46.4968C24.4148 46.2185 24.3714 45.6476 23.9664 45.4412C23.7688 45.3453 10.6405 45.3453 10.4284 45.4412L10.4332 45.4364ZM7.55488 50.8533C7.10651 51.0836 7.07758 51.7025 7.49703 51.9185L7.64649 52.0048H14.3191H20.9821L21.1315 51.9233C21.5076 51.7313 21.5414 51.1988 21.1894 50.9253L21.064 50.8197H14.3529C8.32628 50.8101 7.64649 50.8101 7.5597 50.8629L7.55488 50.8533Z" fill="#4670B2"/>
<path d="M24.6125 0.0767755C24.1979 0.268693 24.1449 0.830051 24.5161 1.12752L24.6366 1.22828L31.3527 1.23788C38.006 1.23788 38.0639 1.23788 38.194 1.1851C38.652 0.935606 38.6328 0.268693 38.1458 0.0671796C37.9385 -0.0239811 24.8006 -0.0143852 24.6125 0.0767755ZM24.815 6.83227C24.3956 7.01938 24.3377 7.58554 24.7138 7.88301L24.8391 7.98377H31.5455C38.088 7.99816 38.2615 7.99816 38.3869 7.94059C38.8497 7.70069 38.8256 7.01939 38.3531 6.81307C38.141 6.72671 24.9982 6.74111 24.815 6.83227ZM25.7648 13.3862C25.3116 13.5926 25.3068 14.2499 25.7648 14.4898C25.9384 14.5761 39.1004 14.5953 39.3126 14.5138C39.8091 14.2931 39.8091 13.5878 39.3126 13.3671C39.1004 13.2903 25.9721 13.2999 25.7696 13.3862H25.7648ZM26.8834 19.8011C26.4639 20.0266 26.4639 20.6071 26.8834 20.8182L27.0617 20.9142H40.3636L40.5082 20.8422C40.9132 20.6311 40.9132 19.9978 40.5082 19.7915L40.3636 19.7243H27.0617L26.8882 19.8107L26.8834 19.8011ZM28.4551 25.3667C27.973 25.5826 27.9922 26.2735 28.4792 26.4846C28.6624 26.5614 41.8051 26.5614 41.9787 26.4846C42.4849 26.2735 42.4849 25.5634 41.9787 25.3571C41.781 25.2659 28.6383 25.2803 28.4551 25.3667ZM31.9071 31.3593C31.5648 31.5416 31.4684 31.9878 31.7046 32.2853C31.8782 32.506 31.396 32.4964 38.7581 32.4868L45.4645 32.4772L45.5513 32.4053C45.9129 32.1414 45.8598 31.508 45.4645 31.3497C45.2427 31.2585 32.071 31.2681 31.9023 31.3593H31.9071ZM35.928 37.1504C35.5954 37.3471 35.5038 37.7741 35.7207 38.0716C35.9039 38.2971 35.2868 38.2779 42.7356 38.2779H49.4613L49.5722 38.2108C49.9483 37.9517 49.9049 37.3615 49.4999 37.1504C49.3215 37.0497 36.0823 37.0497 35.9329 37.1504H35.928ZM38.6376 42.7304C38.1699 42.9703 38.1699 43.6324 38.6376 43.8435C38.7629 43.9107 38.9992 43.9107 45.4163 43.9107H52.06L52.2046 43.8387C52.6192 43.642 52.6289 42.9703 52.2142 42.7592L52.0696 42.6824H45.4018C39.4379 42.6824 38.7292 42.692 38.6376 42.7352V42.7304ZM41.7184 48.3248C41.2507 48.5599 41.2459 49.2028 41.6991 49.4379C41.9016 49.5435 55.0588 49.5435 55.2757 49.4379C55.6807 49.2412 55.6807 48.5359 55.2757 48.3344C55.0829 48.248 41.8919 48.2336 41.7184 48.3248Z" fill="#EC2A37"/>
<path d="M3.56291 10.9393L8.44202 10.8625C8.56256 10.8625 8.63005 10.8194 8.63005 10.6706V7.81586C8.63005 7.66232 8.60113 7.61914 8.44202 7.61914H0.308561C0.0819614 7.61914 0 7.73909 0 7.97899V42.5625C0 42.8312 0.0771401 42.9031 0.308561 42.9031H8.44202C8.60113 42.9031 8.63005 42.8648 8.6638 42.7112V39.866C8.6638 39.7077 8.63005 39.631 8.47577 39.631L3.56291 39.4726V10.9393ZM60.6852 39.5638L55.8495 39.6693C55.7289 39.6693 55.6518 39.7125 55.6518 39.9044V42.716C55.6518 42.8696 55.6952 42.9079 55.8061 42.9079H63.9685C64.2047 42.9079 64.2818 42.8408 64.2818 42.6057V8.01257C64.2818 7.7055 64.1661 7.62874 63.9685 7.62874H55.8495C55.6952 7.62874 55.6518 7.7055 55.618 7.86863V10.7138C55.618 10.829 55.6518 10.9057 55.7675 10.9057L60.6852 11.0593V39.5686V39.5638Z" fill="#EC2A37"/>
<path d="M78.789 11.9039H82.7521V22.7568H95.7936V11.9039H99.7567V39.3625H95.7936V26.2305H82.7521V39.3625H78.789V11.9039ZM106.801 35.7352C106.367 34.9868 106.01 34.0991 105.749 33.0868C105.499 32.0792 105.369 30.755 105.369 29.1285C105.369 27.502 105.721 25.9906 106.424 24.6328C107.138 23.2558 108.059 22.1187 109.197 21.2455C111.405 19.5518 114.148 18.7026 117.417 18.7026C119.128 18.7026 120.411 18.741 121.288 18.8225C121.288 18.8225 121.93 18.8849 123.212 19.0192V39.3673H119.64L119.48 37.0259C118.695 38.0766 117.48 38.8587 115.85 39.3673C115.233 39.564 114.587 39.6695 113.936 39.6695C113.285 39.6695 112.644 39.5976 112.007 39.4728C111.381 39.3385 110.744 39.1226 110.108 38.8155C109.481 38.5228 108.893 38.115 108.324 37.616C107.755 37.1075 107.244 36.4741 106.801 35.7448V35.7352ZM119.244 21.9076C118.4 21.8068 117.552 21.7493 116.708 21.7493C115.864 21.7493 114.977 21.9028 114.032 22.2051C113.078 22.4977 112.268 22.9583 111.593 23.5869C110.19 24.8967 109.491 26.907 109.491 29.5987C109.491 32.1464 110.093 34.032 111.294 35.2602C112.21 36.1671 113.304 36.6229 114.587 36.6229C116.241 36.6229 117.6 36.0183 118.661 34.8188C118.931 34.531 119.128 34.2575 119.244 34.0176V21.9028V21.9076ZM128.689 44.4147C129.055 44.5203 129.538 44.573 130.145 44.573C130.753 44.573 131.403 44.4435 132.045 44.1892C132.696 43.9637 133.25 43.623 133.732 43.1912C134.523 42.4763 135.251 41.3632 135.897 39.8327L127.489 19.0096H131.717L137.618 35.2171L142.902 19.0096H147.087L138.684 41.867C138.052 43.5751 137.174 44.8849 136.046 45.7917C134.576 46.9816 132.594 47.5669 130.126 47.5669C129.904 47.5669 129.673 47.5525 129.436 47.5286L128.689 47.4518V44.4147ZM154.902 39.6743C153.249 39.6743 151.576 39.5592 149.888 39.3193V35.8312C151.6 36.239 153.345 36.4405 155.119 36.4405C158.663 36.4405 160.432 35.6969 160.432 34.2095C160.432 33.6481 160.288 33.2307 160.013 32.9476C159.603 32.5206 158.957 32.084 158.07 31.6474L155.177 30.3328C153.297 29.3972 152.087 28.6487 151.527 28.0777C150.486 27.0222 149.956 25.7795 149.956 24.3354C149.956 22.6993 150.717 21.3702 152.236 20.3531C153.875 19.2399 156.175 18.693 159.135 18.693C160.63 18.693 162.134 18.7937 163.653 19.0096V22.3826C161.989 22.0803 160.533 21.9268 159.294 21.9268C158.055 21.9268 157.106 22.0036 156.416 22.1619C155.736 22.3202 155.23 22.5217 154.893 22.7568C154.348 23.1215 154.078 23.6061 154.078 24.1914C154.078 24.7768 154.266 25.247 154.637 25.6212C155.018 25.9667 155.606 26.3601 156.416 26.7775L159.333 28.1833C161.233 29.1669 162.457 29.9201 162.997 30.4479C164.029 31.4555 164.545 32.7029 164.545 34.2143C164.545 35.836 163.725 37.1362 162.086 38.1198C160.37 39.1562 157.973 39.6743 154.893 39.6743H154.902ZM177.533 36.2486C177.972 36.407 178.628 36.4837 179.52 36.4837C180.412 36.4837 181.144 36.3782 181.742 36.1671V39.3193C181.463 39.3817 181.062 39.4297 180.532 39.4345L179.283 39.4824H178.642C176.096 39.4824 174.216 38.6476 173.006 36.9923C172.023 35.6489 171.536 33.8736 171.536 31.6714V22.0275H168.599V20.1707L171.536 19.0144L172.485 13.9574H175.494V19.0144H181.843V22.0275H175.494V31.6474C175.494 34.2239 176.178 35.7544 177.538 36.2438L177.533 36.2486ZM188.019 35.7352C187.586 34.9868 187.234 34.0991 186.968 33.0868C186.718 32.0792 186.597 30.755 186.597 29.1285C186.597 27.502 186.944 25.9906 187.643 24.6328C188.362 23.2558 189.278 22.1187 190.416 21.2455C192.619 19.5518 195.367 18.7026 198.646 18.7026C200.352 18.7026 201.639 18.741 202.507 18.8225C202.507 18.8225 203.149 18.8849 204.436 19.0192V39.3673H200.868L200.709 37.0259C199.913 38.0766 198.713 38.8587 197.088 39.3673C196.461 39.564 195.815 39.6695 195.16 39.6695C194.504 39.6695 193.872 39.5976 193.231 39.4728C192.6 39.3385 191.958 39.1226 191.332 38.8155C190.71 38.5228 190.117 38.115 189.553 37.616C188.984 37.1075 188.473 36.4741 188.024 35.7448L188.019 35.7352ZM200.468 21.9076C199.619 21.8068 198.771 21.7493 197.927 21.7493C197.083 21.7493 196.206 21.9028 195.256 22.2051C194.306 22.4977 193.487 22.9583 192.817 23.5869C191.414 24.8967 190.715 26.907 190.715 29.5987C190.715 32.1464 191.317 34.032 192.523 35.2602C193.429 36.1671 194.533 36.6229 195.811 36.6229C197.464 36.6229 198.819 36.0183 199.889 34.8188C200.15 34.531 200.347 34.2575 200.463 34.0176V21.9028L200.468 21.9076ZM225.461 39.3049C224.671 39.5496 223.297 39.6743 221.339 39.6743C219.382 39.6743 217.723 39.4392 216.349 38.9738C214.985 38.4941 213.818 37.7984 212.859 36.8772C210.858 34.9724 209.865 32.3335 209.865 28.951C209.865 25.5684 211.06 23.0975 213.452 21.2167C215.587 19.5326 218.225 18.6978 221.339 18.6978C223.277 18.6978 224.594 18.7602 225.312 18.8945V22.4018C224.198 22.0467 222.925 21.8692 221.498 21.8692C220.071 21.8692 218.914 22.0563 217.974 22.4642C217.034 22.8432 216.267 23.3614 215.669 24.0187C214.546 25.2662 213.992 26.907 213.992 28.951C213.992 32.3911 215.24 34.6893 217.738 35.836C218.62 36.2438 219.488 36.4453 220.327 36.4453C221.166 36.4453 221.831 36.4261 222.27 36.3782C222.737 36.3494 223.166 36.2966 223.586 36.2294C224.454 36.0855 225.08 35.932 225.461 35.7784V39.3049ZM231.324 10.0327H235.287V28.1161L243.575 19.0144H248.295L239.472 28.2409L248.748 39.3625H243.912L235.287 28.9893V39.3625H231.324V10.0327Z" fill="#4670B2"/>
<path d="M78.789 11.9037V10.9873V11.9037ZM78.789 10.9921H77.8633V11.9037H78.789V10.9921ZM82.7521 11.9037H83.6778V10.9873H82.7521V11.9037ZM82.7521 22.7567H81.8264V23.6779H82.7521V22.7567ZM95.7936 23.6779H96.7241V22.7567H95.7936V23.6779ZM95.7936 10.9921H94.8679V11.9037H95.7936V10.9921ZM99.7567 11.9037H100.682V10.9873H99.7567V11.9037ZM99.7567 40.2787H100.682V39.3623H99.7567V40.2787ZM95.7936 39.3623H94.8679V40.2787H95.7936V39.3623ZM95.7936 26.2304H96.7241V25.3092H95.7936V26.2304ZM82.7521 25.3092H81.8264V26.2304H82.7521V25.3092ZM82.7521 40.2787H83.6778V39.3623H82.7521V40.2787ZM78.789 39.3623H77.8633V40.2787H78.789V39.3623ZM78.789 12.8249H82.7521V10.9873H78.789V12.8249ZM81.8312 22.7567H83.6778V11.9037H81.8312V22.7567ZM82.7521 23.6779H95.7936V21.8354H82.7521V23.6779ZM96.7241 11.9037H94.8679V22.7567H96.7241V11.9037ZM95.7936 12.8249H99.7615V10.9873H95.7936V12.8249ZM98.8358 39.3623H100.678V11.9037H98.8358V39.3623ZM99.7567 38.4459H95.7936V40.2787H99.7567V38.4459ZM96.7241 26.2304H94.8679V39.3623H96.7241V26.2304ZM95.7936 25.3092H82.7521V27.142H95.7936V25.3092ZM81.8312 39.3623H83.6778V26.2304H81.8312V39.3623ZM82.7521 38.4459H78.789V40.2787H82.7521V38.4459ZM79.7147 11.9037H77.8633V39.3623H79.7147V11.9037ZM106.801 35.7351L106 36.1909L106.01 36.2053L106.801 35.7303V35.7351ZM105.745 33.0866L104.848 33.3121V33.3265L105.745 33.0866ZM106.42 24.6278L105.595 24.2056L106.42 24.6278ZM109.192 21.2405L108.628 20.5112H108.618L109.192 21.2405ZM121.288 18.8127L121.375 17.8915H121.366L121.288 18.8127ZM123.207 19.0143H124.123V18.1794L123.299 18.0931L123.212 19.0143H123.207ZM123.207 40.2787H124.123V39.3623H123.207V40.2787ZM119.64 39.3623L118.724 39.4247L118.777 40.2787H119.64V39.3623ZM119.48 37.0209L120.406 36.9585L120.233 34.4876L118.743 36.4691L119.48 37.0257V37.0209ZM115.85 39.3623L115.57 38.4939L115.85 39.3623ZM110.108 38.8105L109.698 39.6406H109.713L110.108 38.8105ZM108.324 37.6063L107.702 38.2876L107.717 38.2972L108.324 37.6063ZM119.244 21.9074H120.16V21.0966L119.36 21.0006L119.239 21.9074H119.244ZM114.032 22.2049L114.302 23.0829H114.307L114.032 22.2049ZM111.593 23.5867L110.961 22.915V22.9246L111.593 23.5915V23.5867ZM111.299 35.2601L110.638 35.9078H110.643L111.294 35.2601H111.299ZM119.244 34.0222L120.069 34.4348L120.165 34.2333V34.0222H119.249H119.244ZM107.591 35.2745C107.21 34.6075 106.882 33.8063 106.637 32.8611L104.853 33.3217C105.137 34.3964 105.513 35.3608 106 36.1909L107.596 35.2745H107.591ZM106.637 32.8707C106.41 31.9591 106.289 30.7212 106.289 29.1283H104.443C104.443 30.7932 104.578 32.199 104.848 33.3121L106.637 32.8707ZM106.289 29.1283C106.289 27.6362 106.613 26.2831 107.244 25.0453L105.6 24.2056C104.824 25.717 104.443 27.3579 104.443 29.1283H106.289ZM107.239 25.0453C107.905 23.7786 108.734 22.7566 109.761 21.9554L108.623 20.5112C107.374 21.4804 106.367 22.7183 105.6 24.2056L107.244 25.0453H107.239ZM109.761 21.9602C111.776 20.4201 114.307 19.6092 117.417 19.6092V17.7764C113.979 17.7764 111.024 18.664 108.633 20.5112L109.766 21.9602H109.761ZM117.417 19.6092C119.119 19.6092 120.368 19.6572 121.202 19.7244L121.366 17.8915C120.45 17.8052 119.138 17.7764 117.417 17.7764V19.6092ZM121.288 18.8127L121.197 19.7244H121.221C121.245 19.7244 121.259 19.7244 121.313 19.7388C121.351 19.7388 121.554 19.7531 121.674 19.7723C121.732 19.7723 121.867 19.7915 121.944 19.8011C122.069 19.8107 122.132 19.8203 122.277 19.8299C122.277 19.8299 122.291 19.8299 122.301 19.8395H122.32L122.354 19.8491H122.402H122.431C122.431 19.8491 122.436 19.8491 122.446 19.8539H122.465H122.484H122.59L122.609 19.8587C122.629 19.8587 122.653 19.8587 122.667 19.8683C122.793 19.8827 122.981 19.9019 123.12 19.9067L123.309 18.0835C123.231 18.0835 123.328 18.0883 123.251 18.0835C123.188 18.0739 123.255 18.0835 123.198 18.0739C123.188 18.0739 123.178 18.0691 123.178 18.0691H123.082C123.047 18.0627 123.011 18.0563 122.976 18.0499H122.913C122.846 18.0451 122.942 18.0499 122.87 18.0451L122.662 18.0211H122.619C122.581 18.0163 122.6 18.0163 122.566 18.0163H122.556H122.552C122.537 18.0163 122.532 18.0163 122.532 18.0163C122.503 18.0163 122.489 18.0163 122.474 18.0163C122.446 18.0163 122.325 18.0019 122.306 17.9923C122.209 17.9923 122.315 17.9923 122.219 17.9923C122.19 17.9923 122.171 17.9827 122.142 17.9827C122.122 17.9827 122.132 17.9827 122.103 17.9827H122.069C122.016 17.9827 122.045 17.9827 121.997 17.9683C121.949 17.9683 121.915 17.9683 121.872 17.9539C121.795 17.9539 121.881 17.9587 121.809 17.9539C121.737 17.9491 121.824 17.9539 121.756 17.9491H121.703C121.679 17.9395 121.684 17.9395 121.664 17.9395C121.587 17.9299 121.554 17.9251 121.51 17.9251C121.438 17.9155 121.529 17.9251 121.462 17.9251C121.448 17.9155 121.448 17.9251 121.438 17.9155H121.399V17.9107H121.39L121.303 18.8319L121.288 18.8127ZM122.286 39.3623H124.123V19.0143H122.286V39.3623ZM123.207 38.4459H119.635V40.2787H123.207V38.4459ZM120.56 39.2999L120.406 36.9585L118.56 37.0785L118.719 39.4247L120.556 39.2999H120.56ZM118.743 36.4643C118.092 37.3328 117.07 38.0189 115.575 38.4891L116.134 40.2403C117.885 39.6838 119.288 38.8105 120.218 37.5631L118.743 36.4643ZM115.57 38.4891C115.045 38.6522 114.495 38.7386 113.936 38.7386V40.5762C114.688 40.5762 115.421 40.461 116.134 40.2403L115.57 38.4891ZM113.936 38.7434C113.348 38.7434 112.769 38.681 112.2 38.5658L111.824 40.3651C112.519 40.5138 113.222 40.581 113.936 40.581V38.7434ZM112.2 38.5658C111.641 38.4507 111.082 38.2588 110.498 37.9853L109.713 39.6454C110.397 39.9764 111.106 40.2259 111.824 40.3699L112.2 38.5706V38.5658ZM110.508 37.9853C109.963 37.7262 109.443 37.3712 108.932 36.9154L107.712 38.2972C108.329 38.8441 108.999 39.2951 109.698 39.6406L110.508 37.9853ZM108.941 36.9345C108.445 36.4835 107.991 35.9318 107.586 35.2553L106.01 36.2101C106.497 37.0209 107.066 37.7118 107.702 38.2876L108.941 36.9345ZM119.365 21.0006C118.478 20.8855 117.586 20.8279 116.708 20.8279V22.6655C117.518 22.6655 118.319 22.7135 119.128 22.8238L119.365 21.0006ZM116.708 20.8279C115.768 20.8279 114.77 21.0006 113.743 21.3269L114.307 23.0781C115.185 22.7998 115.985 22.6655 116.708 22.6655V20.8279ZM113.762 21.3269C112.682 21.6531 111.747 22.1809 110.961 22.915L112.229 24.2584C112.789 23.7258 113.478 23.3372 114.302 23.0829L113.762 21.3269ZM110.961 22.9246C109.303 24.4647 108.57 26.7629 108.57 29.6033H110.412C110.412 27.0508 111.067 25.3331 112.224 24.2584L110.956 22.9246H110.961ZM108.57 29.6033C108.57 32.2758 109.197 34.4444 110.638 35.9078L111.95 34.6123C110.985 33.6288 110.412 32.0215 110.412 29.5985H108.57V29.6033ZM110.643 35.9126C111.723 36.9921 113.049 37.5439 114.587 37.5439V35.7063C113.545 35.7063 112.682 35.356 111.945 34.6123L110.643 35.9174V35.9126ZM114.587 37.5439C116.496 37.5439 118.102 36.8386 119.365 35.4376L117.981 34.2141C117.094 35.2169 115.98 35.7063 114.587 35.7063V37.5439ZM119.365 35.428C119.654 35.0921 119.9 34.7611 120.069 34.4348L118.42 33.6096C118.347 33.7487 118.217 33.955 117.967 34.2237L119.36 35.428H119.365ZM120.16 21.9074H118.319V34.0222H120.16V21.9074ZM128.689 44.4145L128.959 43.5365L127.773 43.1863V44.4193H128.689V44.4145ZM132.045 44.189L131.726 43.335H131.712L132.04 44.189H132.045ZM133.732 43.1958L133.115 42.5097V42.5193L133.732 43.191V43.1958ZM135.892 39.8373L136.741 40.1971L136.895 39.8517L136.755 39.5014L135.897 39.8421L135.892 39.8373ZM127.484 19.0143V18.0931H126.119L126.626 19.3597L127.484 19.0143ZM131.717 19.0143L132.585 18.6976L132.363 18.0931H131.722V19.0143H131.717ZM137.618 35.2217L136.75 35.5335L137.661 38.0477L138.491 35.5144L137.618 35.2265V35.2217ZM142.902 19.0143V18.0931H142.237L142.034 18.7264L142.902 19.0143ZM147.087 19.0143L147.95 19.3261L148.408 18.0931H147.087V19.0143ZM138.684 41.8716L139.551 42.1931V42.1835L138.684 41.8716ZM136.046 45.7915L136.63 46.5064L136.041 45.7915H136.046ZM129.432 47.5284L129.528 46.6168L129.432 47.5284ZM128.689 47.4516H127.773V48.2769L128.597 48.3632L128.689 47.4516ZM128.434 45.2973C128.916 45.4365 129.499 45.4845 130.145 45.4845V43.6517C129.581 43.6517 129.195 43.6037 128.959 43.5365L128.434 45.2973ZM130.145 45.4845C130.892 45.4845 131.64 45.3405 132.382 45.0574L131.717 43.3398C131.167 43.5605 130.642 43.6517 130.145 43.6517V45.4845ZM132.363 45.0574C133.12 44.784 133.785 44.3857 134.354 43.8724L133.105 42.5193C132.72 42.8552 132.266 43.1383 131.722 43.3398L132.358 45.0574H132.363ZM134.349 43.8772C135.28 43.0327 136.07 41.7805 136.741 40.1971L135.043 39.4822C134.422 40.9408 133.761 41.9244 133.11 42.5097L134.349 43.8772ZM136.755 39.4966L128.342 18.664L126.63 19.3549L135.034 40.1779L136.75 39.4918L136.755 39.4966ZM127.484 19.9259H131.712V18.0883H127.484V19.9259ZM130.844 19.3261L136.755 35.5335L138.486 34.9098L132.585 18.6928L130.849 19.3213L130.844 19.3261ZM138.495 35.5144L143.789 19.2925L142.039 18.7264L136.745 34.9434L138.495 35.5144ZM142.902 19.9259H147.087V18.0883H142.902V19.9259ZM146.224 18.6928L137.821 41.5502L139.551 42.1787L147.95 19.3213L146.224 18.6928ZM137.821 41.5502C137.227 43.1431 136.432 44.3042 135.473 45.0814L136.634 46.5112C137.912 45.4701 138.876 44.0115 139.551 42.1931L137.821 41.5502ZM135.473 45.0814C134.195 46.1034 132.445 46.6552 130.126 46.6552V48.4928C132.744 48.4928 134.942 47.8594 136.634 46.516L135.477 45.0862L135.473 45.0814ZM130.126 46.6504C129.938 46.6504 129.74 46.6408 129.533 46.6216L129.33 48.44C129.605 48.4736 129.865 48.488 130.131 48.488V46.6504H130.126ZM129.528 46.6216L128.795 46.5352L128.593 48.3632L129.325 48.4448L129.523 46.6168L129.528 46.6216ZM129.62 44.4145H127.773V47.4516H129.62V44.4145ZM149.888 39.3239H148.962V40.1252L149.758 40.2355L149.888 39.3239ZM149.888 35.831L150.095 34.9386L148.962 34.6699V35.831H149.888ZM160.018 32.9475L159.343 33.576L159.352 33.5856L159.362 33.5952L160.018 32.9475ZM158.07 31.652L158.48 30.8316L158.46 30.8172L158.07 31.652ZM155.177 30.3326L154.762 31.1482L154.777 31.1626H154.791L155.177 30.3374V30.3326ZM151.527 28.0776L152.193 27.4394H152.183L151.527 28.0776ZM152.241 20.3529L151.725 19.59L152.241 20.3529ZM163.662 19.0143H164.583V18.213L163.793 18.1027L163.662 19.0143ZM163.662 22.3824L163.494 23.2796L164.583 23.4811V22.3824H163.662ZM156.426 22.1617L156.223 21.2693L156.431 22.1617H156.426ZM154.902 22.7567L155.418 23.5147H155.428L154.902 22.7567ZM154.647 25.621L153.996 26.2687V26.2783L154.02 26.2879L154.647 25.621ZM156.426 26.7773L155.992 27.5882L156.011 27.6026H156.026L156.426 26.7773ZM159.343 28.1831L159.767 27.3627H159.752L159.738 27.3531L159.343 28.1831ZM163.007 30.4429L162.37 31.1051L163.007 30.4429ZM162.096 38.1196L161.618 37.3376L162.096 38.1196ZM154.902 38.7626C153.297 38.7626 151.667 38.6474 150.013 38.4171L149.758 40.2307C151.494 40.4802 153.2 40.5954 154.902 40.5954V38.7578V38.7626ZM150.809 35.831H148.962V39.3191H150.809V35.831ZM149.671 36.7282C151.46 37.1553 153.277 37.3616 155.119 37.3616V35.5335C153.422 35.5335 151.754 35.332 150.095 34.9434L149.671 36.7282ZM155.119 37.3616C156.922 37.3616 158.407 37.1792 159.463 36.7426C159.998 36.5123 160.48 36.2005 160.823 35.7638C161.184 35.308 161.358 34.7947 161.358 34.2141H159.511C159.511 34.3964 159.468 34.5164 159.381 34.6267C159.285 34.7467 159.102 34.8954 158.75 35.0442C158.036 35.3512 156.86 35.5335 155.124 35.5335V37.3616H155.119ZM161.353 34.2093C161.353 33.5136 161.18 32.8131 160.668 32.3093L159.362 33.6C159.4 33.648 159.507 33.7871 159.507 34.2141H161.353V34.2093ZM160.683 32.3237C160.167 31.7768 159.41 31.2874 158.475 30.8268L157.66 32.4821C158.504 32.8899 159.039 33.2641 159.338 33.5808L160.678 32.3237H160.683ZM158.46 30.8172L155.558 29.493L154.791 31.1674L157.689 32.4917L158.46 30.8172ZM155.592 29.5121C153.702 28.5669 152.622 27.8808 152.193 27.4442L150.872 28.7253C151.547 29.4162 152.897 30.2222 154.762 31.153L155.592 29.5169V29.5121ZM152.183 27.4394C151.31 26.547 150.886 25.5347 150.886 24.3352H149.044C149.044 26.024 149.662 27.5066 150.881 28.7301L152.188 27.4394H152.183ZM150.886 24.3352C150.886 23.0445 151.455 21.989 152.757 21.111L151.72 19.59C149.985 20.7655 149.04 22.3632 149.04 24.3352H150.881H150.886ZM152.757 21.111C154.184 20.1466 156.281 19.6092 159.14 19.6092V17.7764C156.083 17.7764 153.567 18.3426 151.72 19.59L152.757 21.111ZM159.14 19.6092C160.596 19.6092 162.052 19.7148 163.537 19.9163L163.788 18.1027C162.231 17.882 160.678 17.7812 159.14 17.7812V19.614V19.6092ZM162.737 22.3824H164.578V19.0095H162.737V22.3824ZM163.822 21.4756C162.124 21.1733 160.62 21.015 159.304 21.015V22.843C160.466 22.843 161.864 22.987 163.494 23.2844L163.822 21.4756ZM159.304 21.015C158.046 21.015 157.004 21.0918 156.223 21.2741L156.633 23.0589C157.226 22.9246 158.104 22.843 159.304 22.843V21.015ZM156.218 21.2693C155.495 21.4372 154.854 21.6675 154.377 21.9938L155.423 23.5099C155.625 23.366 156.006 23.2029 156.638 23.0541L156.218 21.2693ZM154.382 21.9986C153.615 22.5216 153.167 23.2652 153.167 24.1912H155.008C155.008 23.9465 155.105 23.7258 155.418 23.5147L154.386 21.9986H154.382ZM153.167 24.1912C153.167 24.9877 153.427 25.7026 153.991 26.2687L155.298 24.9637C155.119 24.7958 155.008 24.5703 155.008 24.1912H153.167ZM154.02 26.2879C154.488 26.7197 155.163 27.1516 155.997 27.5882L156.864 25.9665C156.088 25.5538 155.568 25.218 155.273 24.9493L154.025 26.2927L154.02 26.2879ZM156.026 27.6026L158.942 29.0084L159.738 27.3531L156.826 25.9521L156.026 27.6026ZM158.914 28.994C160.832 29.9919 161.932 30.6924 162.366 31.1051L163.643 29.7904C162.992 29.1523 161.642 28.3414 159.762 27.3627L158.914 28.994ZM162.37 31.1051C163.204 31.9159 163.629 32.9331 163.629 34.2093H165.475C165.475 32.4725 164.873 30.9707 163.648 29.7904L162.37 31.1051ZM163.629 34.2093C163.629 35.4472 163.036 36.4787 161.618 37.3376L162.573 38.9065C164.429 37.7934 165.475 36.2101 165.475 34.2093H163.629ZM161.618 37.3376C160.1 38.2492 157.891 38.7578 154.902 38.7578V40.5954C158.065 40.5954 160.654 40.0676 162.573 38.9065L161.618 37.3376ZM177.533 36.2484L177.851 35.3848L177.538 36.2484H177.533ZM181.737 36.1669H182.658V34.8666L181.424 35.308L181.737 36.1669ZM181.737 39.3239L181.95 40.2211L182.658 40.058V39.3239H181.737ZM180.527 39.4391L180.498 38.5275H180.493L180.527 39.4391ZM179.283 39.487V40.4082H179.312L179.283 39.487ZM173.001 36.9969L172.249 37.5343V37.5439L173.001 36.9969ZM171.531 22.0274H172.452V21.111H171.531V22.0274ZM168.595 22.0274H167.669V22.9438H168.595V22.0274ZM168.595 20.1706L168.252 19.3165L167.669 19.5516V20.1706H168.595ZM171.531 19.0143L171.863 19.8635L172.341 19.6764L172.437 19.187L171.531 19.0191V19.0143ZM172.481 13.9572V13.0408H171.719L171.574 13.7845L172.481 13.9572ZM175.489 13.9572H176.415V13.0408H175.489V13.9572ZM175.489 19.0143H174.573V19.9307H175.489V19.0143ZM181.839 19.0143H182.764V18.0931H181.839V19.0143ZM181.839 22.9486H182.764V22.0322H181.839V22.9486ZM175.489 21.111H174.573V22.0274H175.489V21.111ZM177.22 37.1073C177.813 37.3232 178.608 37.4095 179.52 37.4095V35.5623C178.661 35.5623 178.131 35.4904 177.851 35.3848L177.22 37.1073ZM179.515 37.4095C180.469 37.4095 181.323 37.2992 182.046 37.0353L181.424 35.308C180.966 35.4664 180.334 35.5623 179.515 35.5623V37.4095ZM180.812 39.3239H182.658V36.1669H180.812V39.3239ZM181.52 38.4315C181.342 38.4747 181.014 38.5131 180.503 38.5227L180.551 40.3603C181.101 40.3363 181.573 40.3027 181.954 40.2163L181.52 38.4315ZM180.493 38.5275L179.245 38.5658L179.307 40.4082L180.556 40.3651L180.493 38.5275ZM179.283 38.5658H178.642V40.4082H179.283V38.5658ZM178.637 38.5658C176.313 38.5658 174.742 37.827 173.739 36.4595L172.254 37.5439C173.686 39.4918 175.884 40.4082 178.642 40.4082V38.5658H178.637ZM173.739 36.4595C172.91 35.3128 172.452 33.7487 172.452 31.6712H170.605C170.605 34.0078 171.121 35.9894 172.249 37.5343L173.739 36.4595ZM172.452 22.0274H170.605V31.6712H172.452V22.0274ZM171.531 21.111H168.595V22.9486H171.531V21.111ZM169.515 20.1706H167.669V22.0274H169.515V20.1706ZM168.937 21.0198L171.863 19.8587L171.184 18.1506L168.252 19.3117L168.937 21.015V21.0198ZM172.437 19.1822L173.392 14.13L171.574 13.7893L170.62 18.8415L172.437 19.187V19.1822ZM172.481 14.8688H175.489V13.0408H172.481V14.8688ZM174.573 19.0143H176.415V13.962H174.573V19.0143ZM175.489 19.9259H181.839V18.0883H175.489V19.9259ZM180.918 22.0274H182.764V19.0143H180.918V22.0274ZM181.839 21.111H175.489V22.9486H181.839V21.111ZM174.573 31.652H176.415V22.0274H174.573V31.652ZM174.573 31.652C174.573 34.2861 175.258 36.4116 177.225 37.1169L177.851 35.3896C177.09 35.1113 176.42 34.1805 176.42 31.6568H174.578L174.573 31.652ZM188.019 35.7351L187.219 36.1909L187.234 36.2053L188.019 35.7303V35.7351ZM186.968 33.0866L186.072 33.3121V33.3265L186.968 33.0866ZM187.643 24.6278L186.824 24.2056H186.819L187.643 24.6278ZM190.416 21.2405L189.856 20.5112L190.42 21.2405H190.416ZM202.507 18.8127L202.609 17.8915H202.589L202.507 18.8127ZM204.431 19.0143H205.357V18.1794L204.523 18.0931L204.426 19.0143H204.431ZM204.431 40.2787H205.357V39.3623H204.431V40.2787ZM200.863 39.3623L199.947 39.4247L200 40.2787H200.863V39.3623ZM200.704 37.0209L201.625 36.9585L201.461 34.4876L199.971 36.4691L200.704 37.0257V37.0209ZM197.083 39.3623L196.799 38.4939L197.083 39.3623ZM191.332 38.8105L190.922 39.6406H190.936L191.332 38.8105ZM189.548 37.6063L188.926 38.2876V38.2972L189.548 37.6063ZM200.468 21.9074H201.394V21.0966L200.579 21.0006L200.468 21.9074ZM195.256 22.2049L195.521 23.0829H195.531L195.256 22.2049ZM192.821 23.5867L192.19 22.915V22.9246L192.821 23.5915V23.5867ZM192.523 35.2601L191.857 35.9078L192.518 35.2601H192.523ZM199.894 34.8235L200.579 35.4376H200.593L199.894 34.8235ZM200.468 34.0222L201.292 34.4348L201.389 34.2333V34.0222H200.463H200.468ZM188.82 35.2745C188.434 34.6075 188.111 33.8063 187.865 32.8611L186.072 33.3217C186.356 34.3964 186.742 35.3608 187.219 36.1909L188.815 35.2745H188.82ZM187.87 32.8707C187.639 31.9591 187.513 30.7212 187.513 29.1283H185.671C185.671 30.7932 185.797 32.199 186.072 33.3121L187.87 32.8707ZM187.513 29.1283C187.513 27.6362 187.836 26.2831 188.463 25.0453L186.814 24.2056C186.048 25.717 185.671 27.3579 185.671 29.1283H187.513ZM188.463 25.0453C189.119 23.7786 189.958 22.7566 190.985 21.9554L189.847 20.5112C188.593 21.4804 187.586 22.7183 186.819 24.2056L188.463 25.0453ZM190.98 21.9602C192.995 20.4201 195.531 19.6092 198.641 19.6092V17.7764C195.193 17.7764 192.248 18.664 189.852 20.5112L190.98 21.9602ZM198.646 19.6092C200.347 19.6092 201.596 19.6572 202.425 19.7244L202.584 17.8915C201.673 17.8052 200.352 17.7764 198.641 17.7764V19.6092H198.646ZM202.507 18.8127L202.421 19.7244H202.449C202.478 19.7244 202.498 19.7244 202.541 19.7388C202.575 19.7388 202.787 19.7531 202.898 19.7723C202.961 19.7723 203.091 19.7915 203.173 19.8011C203.293 19.8107 203.361 19.8203 203.505 19.8299C203.505 19.8299 203.515 19.8299 203.52 19.8395H203.544L203.573 19.8491H203.626H203.655C203.655 19.8491 203.655 19.8491 203.664 19.8539H203.703H203.799L203.819 19.8587C203.848 19.8587 203.872 19.8587 203.881 19.8683C204.002 19.8827 204.19 19.9019 204.33 19.9067L204.518 18.0835C204.445 18.0835 204.532 18.0883 204.455 18.0835C204.392 18.0739 204.465 18.0835 204.397 18.0739H204.368L204.359 18.0691H204.286C204.251 18.0627 204.216 18.0563 204.18 18.0499C204.118 18.0499 204.18 18.0499 204.118 18.0499C204.045 18.0499 204.137 18.0499 204.065 18.0499L203.867 18.0259H203.814C203.785 18.0211 203.795 18.0211 203.795 18.0211H203.756H203.742C203.727 18.0211 203.727 18.0211 203.722 18.0211H203.674C203.64 18.0163 203.529 18.0019 203.505 17.9923C203.409 17.9923 203.52 17.9923 203.423 17.9923C203.39 17.9923 203.375 17.9827 203.346 17.9827C203.327 17.9827 203.332 17.9827 203.308 17.9827H203.279C203.226 17.9827 203.25 17.9827 203.202 17.9683C203.153 17.9683 203.124 17.9683 203.081 17.9539C203.009 17.9539 203.096 17.9587 203.028 17.9539C202.956 17.9491 203.043 17.9539 202.965 17.9491H202.917C202.888 17.9395 202.893 17.9395 202.869 17.9395C202.801 17.9299 202.763 17.9251 202.719 17.9251C202.647 17.9155 202.739 17.9251 202.676 17.9251C202.657 17.9155 202.666 17.9251 202.652 17.9155H202.613L202.609 17.9107L202.507 18.8319V18.8127ZM203.51 39.3623H205.362V19.0143H203.51V39.3623ZM204.431 38.4459H200.863V40.2787H204.431V38.4459ZM201.779 39.2999L201.625 36.9585L199.788 37.0785L199.947 39.4247L201.779 39.2999ZM199.971 36.4643C199.32 37.3328 198.303 38.0189 196.804 38.4891L197.363 40.2403C199.113 39.6838 200.516 38.8105 201.447 37.5631L199.976 36.4643H199.971ZM196.799 38.4891C196.269 38.6522 195.724 38.7386 195.155 38.7386V40.5762C195.902 40.5762 196.645 40.461 197.353 40.2403L196.794 38.4891H196.799ZM195.155 38.7434C194.572 38.7434 193.993 38.681 193.419 38.5658L193.043 40.3651C193.737 40.5138 194.437 40.581 195.155 40.581V38.7434ZM193.424 38.5658C192.865 38.4507 192.301 38.2588 191.732 37.9853L190.936 39.6454C191.626 39.9764 192.334 40.2259 193.048 40.3699L193.424 38.5706V38.5658ZM191.737 37.9853C191.197 37.7262 190.671 37.3712 190.16 36.9154L188.931 38.2972C189.562 38.8441 190.218 39.2951 190.922 39.6406L191.737 37.9853ZM190.17 36.9345C189.673 36.4835 189.22 35.9318 188.805 35.2553L187.234 36.2101C187.716 37.0209 188.285 37.7118 188.926 38.2876L190.165 36.9345H190.17ZM200.579 21.0006C199.697 20.8855 198.814 20.8279 197.927 20.8279V22.6655C198.732 22.6655 199.542 22.7135 200.357 22.8238L200.579 21.0006ZM197.927 20.8279C196.987 20.8279 195.999 21.0006 194.977 21.3269L195.531 23.0781C196.404 22.7998 197.209 22.6655 197.927 22.6655V20.8279ZM194.986 21.3269C193.911 21.6531 192.971 22.1809 192.185 22.915L193.453 24.2584C194.007 23.7258 194.697 23.3372 195.521 23.0829L194.986 21.3269ZM192.185 22.9246C190.531 24.4647 189.789 26.7629 189.789 29.6033H191.635C191.635 27.0508 192.296 25.3331 193.453 24.2584L192.185 22.9246ZM189.789 29.6033C189.789 32.2758 190.416 34.4444 191.857 35.9078L193.178 34.6123C192.209 33.6288 191.635 32.0215 191.635 29.5985H189.789V29.6033ZM191.862 35.9126C192.952 36.9921 194.282 37.5439 195.811 37.5439V35.7063C194.769 35.7063 193.911 35.356 193.173 34.6123L191.862 35.9174V35.9126ZM195.811 37.5439C197.71 37.5439 199.33 36.8386 200.579 35.4376L199.21 34.2141C198.313 35.2169 197.214 35.7063 195.815 35.7063V37.5439H195.811ZM200.593 35.428C200.878 35.0921 201.133 34.7611 201.297 34.4348L199.644 33.6096C199.576 33.7487 199.431 33.955 199.2 34.2237L200.593 35.428ZM201.394 21.9074H199.542V34.0222H201.394V21.9074ZM225.461 39.3047L225.741 40.1827L226.392 39.9764V39.3047H225.466H225.461ZM216.349 38.9737L216.041 39.8373H216.045L216.349 38.9737ZM212.859 36.877L212.213 37.5439L212.859 36.877ZM213.447 21.2165L214.021 21.9362L213.447 21.2165ZM225.307 18.8943H226.223V18.1362L225.476 17.9875L225.312 18.8943H225.307ZM225.307 22.4016L225.018 23.2748L226.223 23.6635V22.4016H225.307ZM217.969 22.464L218.316 23.3132L218.326 23.3036L217.969 22.4592V22.464ZM215.665 24.0185L214.99 23.4092L215.669 24.0185H215.665ZM222.265 36.378L222.193 35.476L222.265 36.378ZM225.461 35.7782H226.387V34.3964L225.109 34.9242L225.461 35.7734V35.7782ZM225.182 38.4315C224.54 38.633 223.292 38.7578 221.339 38.7578V40.5954C223.297 40.5954 224.806 40.4802 225.741 40.1827L225.182 38.4315ZM221.334 38.7626C219.449 38.7626 217.892 38.5275 216.643 38.0956L216.045 39.8373C217.54 40.3555 219.314 40.6002 221.334 40.6002V38.7626ZM216.648 38.1052C215.404 37.6734 214.358 37.0401 213.505 36.2149L212.217 37.5439C213.292 38.561 214.565 39.3239 216.045 39.8373L216.653 38.1052H216.648ZM213.5 36.2101C211.721 34.5164 210.776 32.1414 210.776 28.9508H208.934C208.934 32.5204 209.995 35.4232 212.208 37.5439L213.495 36.2149L213.5 36.2101ZM210.781 28.9508C210.781 25.9329 211.87 23.6299 214.025 21.941L212.883 20.5016C210.25 22.5647 208.944 25.4243 208.944 28.9508H210.785H210.781ZM214.021 21.941C215.973 20.4057 218.398 19.614 221.334 19.614V17.7812C218.041 17.7812 215.202 18.6688 212.878 20.5064L214.021 21.9458V21.941ZM221.334 19.6092C223.272 19.6092 224.516 19.6812 225.138 19.7915L225.471 17.9875C224.656 17.8388 223.263 17.7764 221.334 17.7764V19.6092ZM224.381 22.4016H226.223V18.8943H224.381V22.4016ZM225.582 21.5284C224.367 21.1397 223.003 20.9478 221.493 20.9478V22.7854C222.848 22.7854 224.02 22.9582 225.018 23.2748L225.582 21.5284ZM221.493 20.9478C220.009 20.9478 218.697 21.1637 217.612 21.6195L218.326 23.3036C219.117 22.9726 220.163 22.7854 221.493 22.7854V20.9478ZM217.622 21.6099C216.566 22.0322 215.689 22.6319 214.99 23.4044L216.354 24.6278C216.841 24.0905 217.492 23.6443 218.316 23.3132L217.622 21.6099ZM214.985 23.4092C213.678 24.8581 213.061 26.7437 213.061 28.9508H214.908C214.908 27.0892 215.419 25.6786 216.359 24.6326L214.985 23.4092ZM213.061 28.9508C213.061 30.7788 213.389 32.3717 214.112 33.6959C214.83 35.025 215.92 36.0085 217.338 36.6611L218.114 34.9962C217.039 34.502 216.253 33.7871 215.737 32.8131C215.197 31.8391 214.908 30.5629 214.908 28.946H213.061V28.9508ZM217.342 36.6611C218.34 37.1217 219.329 37.3616 220.322 37.3616V35.5335C219.637 35.5335 218.9 35.3656 218.119 35.001L217.342 36.6659V36.6611ZM220.322 37.3616C221.18 37.3616 221.86 37.3472 222.347 37.2992L222.197 35.476C221.783 35.5144 221.175 35.5288 220.322 35.5288V37.3568V37.3616ZM222.347 37.2992C222.834 37.256 223.292 37.2032 223.726 37.1313L223.432 35.3224C223.046 35.3848 222.636 35.4328 222.197 35.476L222.347 37.2992ZM223.731 37.1313C224.608 36.9873 225.336 36.829 225.813 36.6227L225.114 34.9242C224.83 35.0394 224.295 35.1737 223.427 35.3176L223.731 37.1265V37.1313ZM224.531 39.3047H226.382V35.7782H224.531V39.3047ZM231.324 9.11133H230.403V10.0325H231.324V9.11133ZM235.287 10.0325H236.218V9.11133H235.287V10.0325ZM235.287 28.1159H234.366V30.5053L235.977 28.7397L235.287 28.1159ZM243.575 19.0143V18.0931H243.17L242.89 18.4001L243.575 19.0143ZM248.29 19.0143L248.96 19.6428L250.445 18.0931H248.29V19.0143ZM239.472 28.2407L238.811 27.6026L238.243 28.1975L238.763 28.826L239.472 28.2407ZM248.748 39.3623V40.2787H250.72L249.462 38.777L248.748 39.3623ZM243.912 39.3623L243.199 39.9476L243.478 40.2835H243.912V39.3671V39.3623ZM235.287 28.9844L236.005 28.4038L234.371 26.4367V28.9844H235.292H235.287ZM235.287 40.2787H236.218V39.3623H235.287V40.2787ZM231.324 39.3623H230.403V40.2787H231.324V39.3623ZM231.324 10.9537H235.287V9.11133H231.324V10.9537ZM234.366 28.1159H236.218V10.0325H234.366V28.1159ZM235.981 28.7397L244.264 19.6236L242.895 18.3953L234.607 27.5018L235.981 28.7397ZM243.575 19.9259H248.295V18.0883H243.575V19.9259ZM247.625 18.3809L238.807 27.6074L240.137 28.874L248.96 19.6428L247.625 18.3809ZM238.763 28.826L248.039 39.9476L249.462 38.777L240.185 27.6553L238.763 28.826ZM248.748 38.4459H243.912V40.2787H248.748V38.4459ZM244.626 38.777L236.005 28.4038L234.578 29.5745L243.199 39.9429L244.626 38.7722V38.777ZM234.366 39.3623H236.218V28.9892H234.366V39.3623ZM235.287 38.4459H231.324V40.2787H235.287V38.4459ZM232.245 10.0325H230.403V39.3575H232.245V10.0325Z" fill="#4670B2"/>
<path d="M78.789 11.9037V10.9873V11.9037ZM78.789 10.9921H77.8633V11.9037H78.789V10.9921ZM82.7521 11.9037H83.6778V10.9873H82.7521V11.9037ZM82.7521 22.7567H81.8264V23.6779H82.7521V22.7567ZM95.7936 23.6779H96.7241V22.7567H95.7936V23.6779ZM95.7936 10.9921H94.8679V11.9037H95.7936V10.9921ZM99.7567 11.9037H100.682V10.9873H99.7567V11.9037ZM99.7567 40.2787H100.682V39.3623H99.7567V40.2787ZM95.7936 39.3623H94.8679V40.2787H95.7936V39.3623ZM95.7936 26.2304H96.7241V25.3092H95.7936V26.2304ZM82.7521 25.3092H81.8264V26.2304H82.7521V25.3092ZM82.7521 40.2787H83.6778V39.3623H82.7521V40.2787ZM78.789 39.3623H77.8633V40.2787H78.789V39.3623ZM78.789 12.8249H82.7521V10.9873H78.789V12.8249ZM81.8312 22.7567H83.6778V11.9037H81.8312V22.7567ZM82.7521 23.6779H95.7936V21.8354H82.7521V23.6779ZM96.7241 11.9037H94.8679V22.7567H96.7241V11.9037ZM95.7936 12.8249H99.7615V10.9873H95.7936V12.8249ZM98.8358 39.3623H100.678V11.9037H98.8358V39.3623ZM99.7567 38.4459H95.7936V40.2787H99.7567V38.4459ZM96.7241 26.2304H94.8679V39.3623H96.7241V26.2304ZM95.7936 25.3092H82.7521V27.142H95.7936V25.3092ZM81.8312 39.3623H83.6778V26.2304H81.8312V39.3623ZM82.7521 38.4459H78.789V40.2787H82.7521V38.4459ZM79.7147 11.9037H77.8633V39.3623H79.7147V11.9037ZM106.801 35.7351L106 36.1909L106.01 36.2053L106.801 35.7303V35.7351ZM105.745 33.0866L104.848 33.3121V33.3265L105.745 33.0866ZM106.42 24.6278L105.595 24.2056L106.42 24.6278ZM109.192 21.2405L108.628 20.5112H108.618L109.192 21.2405ZM121.288 18.8127L121.375 17.8915H121.366L121.288 18.8127ZM123.207 19.0143H124.123V18.1794L123.299 18.0931L123.212 19.0143H123.207ZM123.207 40.2787H124.123V39.3623H123.207V40.2787ZM119.64 39.3623L118.724 39.4247L118.777 40.2787H119.64V39.3623ZM119.48 37.0209L120.406 36.9585L120.233 34.4876L118.743 36.4691L119.48 37.0257V37.0209ZM115.85 39.3623L115.57 38.4939L115.85 39.3623ZM110.108 38.8105L109.698 39.6406H109.713L110.108 38.8105ZM108.324 37.6063L107.702 38.2876L107.717 38.2972L108.324 37.6063ZM119.244 21.9074H120.16V21.0966L119.36 21.0006L119.239 21.9074H119.244ZM114.032 22.2049L114.302 23.0829H114.307L114.032 22.2049ZM111.593 23.5867L110.961 22.915V22.9246L111.593 23.5915V23.5867ZM111.299 35.2601L110.638 35.9078H110.643L111.294 35.2601H111.299ZM119.244 34.0222L120.069 34.4348L120.165 34.2333V34.0222H119.249H119.244ZM107.591 35.2745C107.21 34.6075 106.882 33.8063 106.637 32.8611L104.853 33.3217C105.137 34.3964 105.513 35.3608 106 36.1909L107.596 35.2745H107.591ZM106.637 32.8707C106.41 31.9591 106.289 30.7212 106.289 29.1283H104.443C104.443 30.7932 104.578 32.199 104.848 33.3121L106.637 32.8707ZM106.289 29.1283C106.289 27.6362 106.613 26.2831 107.244 25.0453L105.6 24.2056C104.824 25.717 104.443 27.3579 104.443 29.1283H106.289ZM107.239 25.0453C107.905 23.7786 108.734 22.7566 109.761 21.9554L108.623 20.5112C107.374 21.4804 106.367 22.7183 105.6 24.2056L107.244 25.0453H107.239ZM109.761 21.9602C111.776 20.4201 114.307 19.6092 117.417 19.6092V17.7764C113.979 17.7764 111.024 18.664 108.633 20.5112L109.766 21.9602H109.761ZM117.417 19.6092C119.119 19.6092 120.368 19.6572 121.202 19.7244L121.366 17.8915C120.45 17.8052 119.138 17.7764 117.417 17.7764V19.6092ZM121.288 18.8127L121.197 19.7244H121.221C121.245 19.7244 121.259 19.7244 121.313 19.7388C121.351 19.7388 121.554 19.7531 121.674 19.7723C121.732 19.7723 121.867 19.7915 121.944 19.8011C122.069 19.8107 122.132 19.8203 122.277 19.8299C122.277 19.8299 122.291 19.8299 122.301 19.8395H122.32L122.354 19.8491H122.402H122.431C122.431 19.8491 122.436 19.8491 122.446 19.8539H122.465H122.484H122.59L122.609 19.8587C122.629 19.8587 122.653 19.8587 122.667 19.8683C122.793 19.8827 122.981 19.9019 123.12 19.9067L123.309 18.0835C123.231 18.0835 123.328 18.0883 123.251 18.0835C123.188 18.0739 123.255 18.0835 123.198 18.0739C123.188 18.0739 123.178 18.0691 123.178 18.0691H123.082C123.047 18.0627 123.011 18.0563 122.976 18.0499H122.913C122.846 18.0451 122.942 18.0499 122.87 18.0451L122.662 18.0211H122.619C122.581 18.0163 122.6 18.0163 122.566 18.0163H122.556H122.552C122.537 18.0163 122.532 18.0163 122.532 18.0163C122.503 18.0163 122.489 18.0163 122.474 18.0163C122.446 18.0163 122.325 18.0019 122.306 17.9923C122.209 17.9923 122.315 17.9923 122.219 17.9923C122.19 17.9923 122.171 17.9827 122.142 17.9827C122.122 17.9827 122.132 17.9827 122.103 17.9827H122.069C122.016 17.9827 122.045 17.9827 121.997 17.9683C121.949 17.9683 121.915 17.9683 121.872 17.9539C121.795 17.9539 121.881 17.9587 121.809 17.9539C121.737 17.9491 121.824 17.9539 121.756 17.9491H121.703C121.679 17.9395 121.684 17.9395 121.664 17.9395C121.587 17.9299 121.554 17.9251 121.51 17.9251C121.438 17.9155 121.529 17.9251 121.462 17.9251C121.448 17.9155 121.448 17.9251 121.438 17.9155H121.399V17.9107H121.39L121.303 18.8319L121.288 18.8127ZM122.286 39.3623H124.123V19.0143H122.286V39.3623ZM123.207 38.4459H119.635V40.2787H123.207V38.4459ZM120.56 39.2999L120.406 36.9585L118.56 37.0785L118.719 39.4247L120.556 39.2999H120.56ZM118.743 36.4643C118.092 37.3328 117.07 38.0189 115.575 38.4891L116.134 40.2403C117.885 39.6838 119.288 38.8105 120.218 37.5631L118.743 36.4643ZM115.57 38.4891C115.045 38.6522 114.495 38.7386 113.936 38.7386V40.5762C114.688 40.5762 115.421 40.461 116.134 40.2403L115.57 38.4891ZM113.936 38.7434C113.348 38.7434 112.769 38.681 112.2 38.5658L111.824 40.3651C112.519 40.5138 113.222 40.581 113.936 40.581V38.7434ZM112.2 38.5658C111.641 38.4507 111.082 38.2588 110.498 37.9853L109.713 39.6454C110.397 39.9764 111.106 40.2259 111.824 40.3699L112.2 38.5706V38.5658ZM110.508 37.9853C109.963 37.7262 109.443 37.3712 108.932 36.9154L107.712 38.2972C108.329 38.8441 108.999 39.2951 109.698 39.6406L110.508 37.9853ZM108.941 36.9345C108.445 36.4835 107.991 35.9318 107.586 35.2553L106.01 36.2101C106.497 37.0209 107.066 37.7118 107.702 38.2876L108.941 36.9345ZM119.365 21.0006C118.478 20.8855 117.586 20.8279 116.708 20.8279V22.6655C117.518 22.6655 118.319 22.7135 119.128 22.8238L119.365 21.0006ZM116.708 20.8279C115.768 20.8279 114.77 21.0006 113.743 21.3269L114.307 23.0781C115.185 22.7998 115.985 22.6655 116.708 22.6655V20.8279ZM113.762 21.3269C112.682 21.6531 111.747 22.1809 110.961 22.915L112.229 24.2584C112.789 23.7258 113.478 23.3372 114.302 23.0829L113.762 21.3269ZM110.961 22.9246C109.303 24.4647 108.57 26.7629 108.57 29.6033H110.412C110.412 27.0508 111.067 25.3331 112.224 24.2584L110.956 22.9246H110.961ZM108.57 29.6033C108.57 32.2758 109.197 34.4444 110.638 35.9078L111.95 34.6123C110.985 33.6288 110.412 32.0215 110.412 29.5985H108.57V29.6033ZM110.643 35.9126C111.723 36.9921 113.049 37.5439 114.587 37.5439V35.7063C113.545 35.7063 112.682 35.356 111.945 34.6123L110.643 35.9174V35.9126ZM114.587 37.5439C116.496 37.5439 118.102 36.8386 119.365 35.4376L117.981 34.2141C117.094 35.2169 115.98 35.7063 114.587 35.7063V37.5439ZM119.365 35.428C119.654 35.0921 119.9 34.7611 120.069 34.4348L118.42 33.6096C118.347 33.7487 118.217 33.955 117.967 34.2237L119.36 35.428H119.365ZM120.16 21.9074H118.319V34.0222H120.16V21.9074ZM128.689 44.4145L128.959 43.5365L127.773 43.1863V44.4193H128.689V44.4145ZM132.045 44.189L131.726 43.335H131.712L132.04 44.189H132.045ZM133.732 43.1958L133.115 42.5097V42.5193L133.732 43.191V43.1958ZM135.892 39.8373L136.741 40.1971L136.895 39.8517L136.755 39.5014L135.897 39.8421L135.892 39.8373ZM127.484 19.0143V18.0931H126.119L126.626 19.3597L127.484 19.0143ZM131.717 19.0143L132.585 18.6976L132.363 18.0931H131.722V19.0143H131.717ZM137.618 35.2217L136.75 35.5335L137.661 38.0477L138.491 35.5144L137.618 35.2265V35.2217ZM142.902 19.0143V18.0931H142.237L142.034 18.7264L142.902 19.0143ZM147.087 19.0143L147.95 19.3261L148.408 18.0931H147.087V19.0143ZM138.684 41.8716L139.551 42.1931V42.1835L138.684 41.8716ZM136.046 45.7915L136.63 46.5064L136.041 45.7915H136.046ZM129.432 47.5284L129.528 46.6168L129.432 47.5284ZM128.689 47.4516H127.773V48.2769L128.597 48.3632L128.689 47.4516ZM128.434 45.2973C128.916 45.4365 129.499 45.4845 130.145 45.4845V43.6517C129.581 43.6517 129.195 43.6037 128.959 43.5365L128.434 45.2973ZM130.145 45.4845C130.892 45.4845 131.64 45.3405 132.382 45.0574L131.717 43.3398C131.167 43.5605 130.642 43.6517 130.145 43.6517V45.4845ZM132.363 45.0574C133.12 44.784 133.785 44.3857 134.354 43.8724L133.105 42.5193C132.72 42.8552 132.266 43.1383 131.722 43.3398L132.358 45.0574H132.363ZM134.349 43.8772C135.28 43.0327 136.07 41.7805 136.741 40.1971L135.043 39.4822C134.422 40.9408 133.761 41.9244 133.11 42.5097L134.349 43.8772ZM136.755 39.4966L128.342 18.664L126.63 19.3549L135.034 40.1779L136.75 39.4918L136.755 39.4966ZM127.484 19.9259H131.712V18.0883H127.484V19.9259ZM130.844 19.3261L136.755 35.5335L138.486 34.9098L132.585 18.6928L130.849 19.3213L130.844 19.3261ZM138.495 35.5144L143.789 19.2925L142.039 18.7264L136.745 34.9434L138.495 35.5144ZM142.902 19.9259H147.087V18.0883H142.902V19.9259ZM146.224 18.6928L137.821 41.5502L139.551 42.1787L147.95 19.3213L146.224 18.6928ZM137.821 41.5502C137.227 43.1431 136.432 44.3042 135.473 45.0814L136.634 46.5112C137.912 45.4701 138.876 44.0115 139.551 42.1931L137.821 41.5502ZM135.473 45.0814C134.195 46.1034 132.445 46.6552 130.126 46.6552V48.4928C132.744 48.4928 134.942 47.8594 136.634 46.516L135.477 45.0862L135.473 45.0814ZM130.126 46.6504C129.938 46.6504 129.74 46.6408 129.533 46.6216L129.33 48.44C129.605 48.4736 129.865 48.488 130.131 48.488V46.6504H130.126ZM129.528 46.6216L128.795 46.5352L128.593 48.3632L129.325 48.4448L129.523 46.6168L129.528 46.6216ZM129.62 44.4145H127.773V47.4516H129.62V44.4145ZM149.888 39.3239H148.962V40.1252L149.758 40.2355L149.888 39.3239ZM149.888 35.831L150.095 34.9386L148.962 34.6699V35.831H149.888ZM160.018 32.9475L159.343 33.576L159.352 33.5856L159.362 33.5952L160.018 32.9475ZM158.07 31.652L158.48 30.8316L158.46 30.8172L158.07 31.652ZM155.177 30.3326L154.762 31.1482L154.777 31.1626H154.791L155.177 30.3374V30.3326ZM151.527 28.0776L152.193 27.4394H152.183L151.527 28.0776ZM152.241 20.3529L151.725 19.59L152.241 20.3529ZM163.662 19.0143H164.583V18.213L163.793 18.1027L163.662 19.0143ZM163.662 22.3824L163.494 23.2796L164.583 23.4811V22.3824H163.662ZM156.426 22.1617L156.223 21.2693L156.431 22.1617H156.426ZM154.902 22.7567L155.418 23.5147H155.428L154.902 22.7567ZM154.647 25.621L153.996 26.2687V26.2783L154.02 26.2879L154.647 25.621ZM156.426 26.7773L155.992 27.5882L156.011 27.6026H156.026L156.426 26.7773ZM159.343 28.1831L159.767 27.3627H159.752L159.738 27.3531L159.343 28.1831ZM163.007 30.4429L162.37 31.1051L163.007 30.4429ZM162.096 38.1196L161.618 37.3376L162.096 38.1196ZM154.902 38.7626C153.297 38.7626 151.667 38.6474 150.013 38.4171L149.758 40.2307C151.494 40.4802 153.2 40.5954 154.902 40.5954V38.7578V38.7626ZM150.809 35.831H148.962V39.3191H150.809V35.831ZM149.671 36.7282C151.46 37.1553 153.277 37.3616 155.119 37.3616V35.5335C153.422 35.5335 151.754 35.332 150.095 34.9434L149.671 36.7282ZM155.119 37.3616C156.922 37.3616 158.407 37.1792 159.463 36.7426C159.998 36.5123 160.48 36.2005 160.823 35.7638C161.184 35.308 161.358 34.7947 161.358 34.2141H159.511C159.511 34.3964 159.468 34.5164 159.381 34.6267C159.285 34.7467 159.102 34.8954 158.75 35.0442C158.036 35.3512 156.86 35.5335 155.124 35.5335V37.3616H155.119ZM161.353 34.2093C161.353 33.5136 161.18 32.8131 160.668 32.3093L159.362 33.6C159.4 33.648 159.507 33.7871 159.507 34.2141H161.353V34.2093ZM160.683 32.3237C160.167 31.7768 159.41 31.2874 158.475 30.8268L157.66 32.4821C158.504 32.8899 159.039 33.2641 159.338 33.5808L160.678 32.3237H160.683ZM158.46 30.8172L155.558 29.493L154.791 31.1674L157.689 32.4917L158.46 30.8172ZM155.592 29.5121C153.702 28.5669 152.622 27.8808 152.193 27.4442L150.872 28.7253C151.547 29.4162 152.897 30.2222 154.762 31.153L155.592 29.5169V29.5121ZM152.183 27.4394C151.31 26.547 150.886 25.5347 150.886 24.3352H149.044C149.044 26.024 149.662 27.5066 150.881 28.7301L152.188 27.4394H152.183ZM150.886 24.3352C150.886 23.0445 151.455 21.989 152.757 21.111L151.72 19.59C149.985 20.7655 149.04 22.3632 149.04 24.3352H150.881H150.886ZM152.757 21.111C154.184 20.1466 156.281 19.6092 159.14 19.6092V17.7764C156.083 17.7764 153.567 18.3426 151.72 19.59L152.757 21.111ZM159.14 19.6092C160.596 19.6092 162.052 19.7148 163.537 19.9163L163.788 18.1027C162.231 17.882 160.678 17.7812 159.14 17.7812V19.614V19.6092ZM162.737 22.3824H164.578V19.0095H162.737V22.3824ZM163.822 21.4756C162.124 21.1733 160.62 21.015 159.304 21.015V22.843C160.466 22.843 161.864 22.987 163.494 23.2844L163.822 21.4756ZM159.304 21.015C158.046 21.015 157.004 21.0918 156.223 21.2741L156.633 23.0589C157.226 22.9246 158.104 22.843 159.304 22.843V21.015ZM156.218 21.2693C155.495 21.4372 154.854 21.6675 154.377 21.9938L155.423 23.5099C155.625 23.366 156.006 23.2029 156.638 23.0541L156.218 21.2693ZM154.382 21.9986C153.615 22.5216 153.167 23.2652 153.167 24.1912H155.008C155.008 23.9465 155.105 23.7258 155.418 23.5147L154.386 21.9986H154.382ZM153.167 24.1912C153.167 24.9877 153.427 25.7026 153.991 26.2687L155.298 24.9637C155.119 24.7958 155.008 24.5703 155.008 24.1912H153.167ZM154.02 26.2879C154.488 26.7197 155.163 27.1516 155.997 27.5882L156.864 25.9665C156.088 25.5538 155.568 25.218 155.273 24.9493L154.025 26.2927L154.02 26.2879ZM156.026 27.6026L158.942 29.0084L159.738 27.3531L156.826 25.9521L156.026 27.6026ZM158.914 28.994C160.832 29.9919 161.932 30.6924 162.366 31.1051L163.643 29.7904C162.992 29.1523 161.642 28.3414 159.762 27.3627L158.914 28.994ZM162.37 31.1051C163.204 31.9159 163.629 32.9331 163.629 34.2093H165.475C165.475 32.4725 164.873 30.9707 163.648 29.7904L162.37 31.1051ZM163.629 34.2093C163.629 35.4472 163.036 36.4787 161.618 37.3376L162.573 38.9065C164.429 37.7934 165.475 36.2101 165.475 34.2093H163.629ZM161.618 37.3376C160.1 38.2492 157.891 38.7578 154.902 38.7578V40.5954C158.065 40.5954 160.654 40.0676 162.573 38.9065L161.618 37.3376ZM177.533 36.2484L177.851 35.3848L177.538 36.2484H177.533ZM181.737 36.1669H182.658V34.8666L181.424 35.308L181.737 36.1669ZM181.737 39.3239L181.95 40.2211L182.658 40.058V39.3239H181.737ZM180.527 39.4391L180.498 38.5275H180.493L180.527 39.4391ZM179.283 39.487V40.4082H179.312L179.283 39.487ZM173.001 36.9969L172.249 37.5343V37.5439L173.001 36.9969ZM171.531 22.0274H172.452V21.111H171.531V22.0274ZM168.595 22.0274H167.669V22.9438H168.595V22.0274ZM168.595 20.1706L168.252 19.3165L167.669 19.5516V20.1706H168.595ZM171.531 19.0143L171.863 19.8635L172.341 19.6764L172.437 19.187L171.531 19.0191V19.0143ZM172.481 13.9572V13.0408H171.719L171.574 13.7845L172.481 13.9572ZM175.489 13.9572H176.415V13.0408H175.489V13.9572ZM175.489 19.0143H174.573V19.9307H175.489V19.0143ZM181.839 19.0143H182.764V18.0931H181.839V19.0143ZM181.839 22.9486H182.764V22.0322H181.839V22.9486ZM175.489 21.111H174.573V22.0274H175.489V21.111ZM177.22 37.1073C177.813 37.3232 178.608 37.4095 179.52 37.4095V35.5623C178.661 35.5623 178.131 35.4904 177.851 35.3848L177.22 37.1073ZM179.515 37.4095C180.469 37.4095 181.323 37.2992 182.046 37.0353L181.424 35.308C180.966 35.4664 180.334 35.5623 179.515 35.5623V37.4095ZM180.812 39.3239H182.658V36.1669H180.812V39.3239ZM181.52 38.4315C181.342 38.4747 181.014 38.5131 180.503 38.5227L180.551 40.3603C181.101 40.3363 181.573 40.3027 181.954 40.2163L181.52 38.4315ZM180.493 38.5275L179.245 38.5658L179.307 40.4082L180.556 40.3651L180.493 38.5275ZM179.283 38.5658H178.642V40.4082H179.283V38.5658ZM178.637 38.5658C176.313 38.5658 174.742 37.827 173.739 36.4595L172.254 37.5439C173.686 39.4918 175.884 40.4082 178.642 40.4082V38.5658H178.637ZM173.739 36.4595C172.91 35.3128 172.452 33.7487 172.452 31.6712H170.605C170.605 34.0078 171.121 35.9894 172.249 37.5343L173.739 36.4595ZM172.452 22.0274H170.605V31.6712H172.452V22.0274ZM171.531 21.111H168.595V22.9486H171.531V21.111ZM169.515 20.1706H167.669V22.0274H169.515V20.1706ZM168.937 21.0198L171.863 19.8587L171.184 18.1506L168.252 19.3117L168.937 21.015V21.0198ZM172.437 19.1822L173.392 14.13L171.574 13.7893L170.62 18.8415L172.437 19.187V19.1822ZM172.481 14.8688H175.489V13.0408H172.481V14.8688ZM174.573 19.0143H176.415V13.962H174.573V19.0143ZM175.489 19.9259H181.839V18.0883H175.489V19.9259ZM180.918 22.0274H182.764V19.0143H180.918V22.0274ZM181.839 21.111H175.489V22.9486H181.839V21.111ZM174.573 31.652H176.415V22.0274H174.573V31.652ZM174.573 31.652C174.573 34.2861 175.258 36.4116 177.225 37.1169L177.851 35.3896C177.09 35.1113 176.42 34.1805 176.42 31.6568H174.578L174.573 31.652ZM188.019 35.7351L187.219 36.1909L187.234 36.2053L188.019 35.7303V35.7351ZM186.968 33.0866L186.072 33.3121V33.3265L186.968 33.0866ZM187.643 24.6278L186.824 24.2056H186.819L187.643 24.6278ZM190.416 21.2405L189.856 20.5112L190.42 21.2405H190.416ZM202.507 18.8127L202.609 17.8915H202.589L202.507 18.8127ZM204.431 19.0143H205.357V18.1794L204.523 18.0931L204.426 19.0143H204.431ZM204.431 40.2787H205.357V39.3623H204.431V40.2787ZM200.863 39.3623L199.947 39.4247L200 40.2787H200.863V39.3623ZM200.704 37.0209L201.625 36.9585L201.461 34.4876L199.971 36.4691L200.704 37.0257V37.0209ZM197.083 39.3623L196.799 38.4939L197.083 39.3623ZM191.332 38.8105L190.922 39.6406H190.936L191.332 38.8105ZM189.548 37.6063L188.926 38.2876V38.2972L189.548 37.6063ZM200.468 21.9074H201.394V21.0966L200.579 21.0006L200.468 21.9074ZM195.256 22.2049L195.521 23.0829H195.531L195.256 22.2049ZM192.821 23.5867L192.19 22.915V22.9246L192.821 23.5915V23.5867ZM192.523 35.2601L191.857 35.9078L192.518 35.2601H192.523ZM199.894 34.8235L200.579 35.4376H200.593L199.894 34.8235ZM200.468 34.0222L201.292 34.4348L201.389 34.2333V34.0222H200.463H200.468ZM188.82 35.2745C188.434 34.6075 188.111 33.8063 187.865 32.8611L186.072 33.3217C186.356 34.3964 186.742 35.3608 187.219 36.1909L188.815 35.2745H188.82ZM187.87 32.8707C187.639 31.9591 187.513 30.7212 187.513 29.1283H185.671C185.671 30.7932 185.797 32.199 186.072 33.3121L187.87 32.8707ZM187.513 29.1283C187.513 27.6362 187.836 26.2831 188.463 25.0453L186.814 24.2056C186.048 25.717 185.671 27.3579 185.671 29.1283H187.513ZM188.463 25.0453C189.119 23.7786 189.958 22.7566 190.985 21.9554L189.847 20.5112C188.593 21.4804 187.586 22.7183 186.819 24.2056L188.463 25.0453ZM190.98 21.9602C192.995 20.4201 195.531 19.6092 198.641 19.6092V17.7764C195.193 17.7764 192.248 18.664 189.852 20.5112L190.98 21.9602ZM198.646 19.6092C200.347 19.6092 201.596 19.6572 202.425 19.7244L202.584 17.8915C201.673 17.8052 200.352 17.7764 198.641 17.7764V19.6092H198.646ZM202.507 18.8127L202.421 19.7244H202.449C202.478 19.7244 202.498 19.7244 202.541 19.7388C202.575 19.7388 202.787 19.7531 202.898 19.7723C202.961 19.7723 203.091 19.7915 203.173 19.8011C203.293 19.8107 203.361 19.8203 203.505 19.8299C203.505 19.8299 203.515 19.8299 203.52 19.8395H203.544L203.573 19.8491H203.626H203.655C203.655 19.8491 203.655 19.8491 203.664 19.8539H203.703H203.799L203.819 19.8587C203.848 19.8587 203.872 19.8587 203.881 19.8683C204.002 19.8827 204.19 19.9019 204.33 19.9067L204.518 18.0835C204.445 18.0835 204.532 18.0883 204.455 18.0835C204.392 18.0739 204.465 18.0835 204.397 18.0739H204.368L204.359 18.0691H204.286C204.251 18.0627 204.216 18.0563 204.18 18.0499C204.118 18.0499 204.18 18.0499 204.118 18.0499C204.045 18.0499 204.137 18.0499 204.065 18.0499L203.867 18.0259H203.814C203.785 18.0211 203.795 18.0211 203.795 18.0211H203.756H203.742C203.727 18.0211 203.727 18.0211 203.722 18.0211H203.674C203.64 18.0163 203.529 18.0019 203.505 17.9923C203.409 17.9923 203.52 17.9923 203.423 17.9923C203.39 17.9923 203.375 17.9827 203.346 17.9827C203.327 17.9827 203.332 17.9827 203.308 17.9827H203.279C203.226 17.9827 203.25 17.9827 203.202 17.9683C203.153 17.9683 203.124 17.9683 203.081 17.9539C203.009 17.9539 203.096 17.9587 203.028 17.9539C202.956 17.9491 203.043 17.9539 202.965 17.9491H202.917C202.888 17.9395 202.893 17.9395 202.869 17.9395C202.801 17.9299 202.763 17.9251 202.719 17.9251C202.647 17.9155 202.739 17.9251 202.676 17.9251C202.657 17.9155 202.666 17.9251 202.652 17.9155H202.613L202.609 17.9107L202.507 18.8319V18.8127ZM203.51 39.3623H205.362V19.0143H203.51V39.3623ZM204.431 38.4459H200.863V40.2787H204.431V38.4459ZM201.779 39.2999L201.625 36.9585L199.788 37.0785L199.947 39.4247L201.779 39.2999ZM199.971 36.4643C199.32 37.3328 198.303 38.0189 196.804 38.4891L197.363 40.2403C199.113 39.6838 200.516 38.8105 201.447 37.5631L199.976 36.4643H199.971ZM196.799 38.4891C196.269 38.6522 195.724 38.7386 195.155 38.7386V40.5762C195.902 40.5762 196.645 40.461 197.353 40.2403L196.794 38.4891H196.799ZM195.155 38.7434C194.572 38.7434 193.993 38.681 193.419 38.5658L193.043 40.3651C193.737 40.5138 194.437 40.581 195.155 40.581V38.7434ZM193.424 38.5658C192.865 38.4507 192.301 38.2588 191.732 37.9853L190.936 39.6454C191.626 39.9764 192.334 40.2259 193.048 40.3699L193.424 38.5706V38.5658ZM191.737 37.9853C191.197 37.7262 190.671 37.3712 190.16 36.9154L188.931 38.2972C189.562 38.8441 190.218 39.2951 190.922 39.6406L191.737 37.9853ZM190.17 36.9345C189.673 36.4835 189.22 35.9318 188.805 35.2553L187.234 36.2101C187.716 37.0209 188.285 37.7118 188.926 38.2876L190.165 36.9345H190.17ZM200.579 21.0006C199.697 20.8855 198.814 20.8279 197.927 20.8279V22.6655C198.732 22.6655 199.542 22.7135 200.357 22.8238L200.579 21.0006ZM197.927 20.8279C196.987 20.8279 195.999 21.0006 194.977 21.3269L195.531 23.0781C196.404 22.7998 197.209 22.6655 197.927 22.6655V20.8279ZM194.986 21.3269C193.911 21.6531 192.971 22.1809 192.185 22.915L193.453 24.2584C194.007 23.7258 194.697 23.3372 195.521 23.0829L194.986 21.3269ZM192.185 22.9246C190.531 24.4647 189.789 26.7629 189.789 29.6033H191.635C191.635 27.0508 192.296 25.3331 193.453 24.2584L192.185 22.9246ZM189.789 29.6033C189.789 32.2758 190.416 34.4444 191.857 35.9078L193.178 34.6123C192.209 33.6288 191.635 32.0215 191.635 29.5985H189.789V29.6033ZM191.862 35.9126C192.952 36.9921 194.282 37.5439 195.811 37.5439V35.7063C194.769 35.7063 193.911 35.356 193.173 34.6123L191.862 35.9174V35.9126ZM195.811 37.5439C197.71 37.5439 199.33 36.8386 200.579 35.4376L199.21 34.2141C198.313 35.2169 197.214 35.7063 195.815 35.7063V37.5439H195.811ZM200.593 35.428C200.878 35.0921 201.133 34.7611 201.297 34.4348L199.644 33.6096C199.576 33.7487 199.431 33.955 199.2 34.2237L200.593 35.428ZM201.394 21.9074H199.542V34.0222H201.394V21.9074ZM225.461 39.3047L225.741 40.1827L226.392 39.9764V39.3047H225.466H225.461ZM216.349 38.9737L216.041 39.8373H216.045L216.349 38.9737ZM212.859 36.877L212.213 37.5439L212.859 36.877ZM213.447 21.2165L214.021 21.9362L213.447 21.2165ZM225.307 18.8943H226.223V18.1362L225.476 17.9875L225.312 18.8943H225.307ZM225.307 22.4016L225.018 23.2748L226.223 23.6635V22.4016H225.307ZM217.969 22.464L218.316 23.3132L218.326 23.3036L217.969 22.4592V22.464ZM215.665 24.0185L214.99 23.4092L215.669 24.0185H215.665ZM222.265 36.378L222.193 35.476L222.265 36.378ZM225.461 35.7782H226.387V34.3964L225.109 34.9242L225.461 35.7734V35.7782ZM225.182 38.4315C224.54 38.633 223.292 38.7578 221.339 38.7578V40.5954C223.297 40.5954 224.806 40.4802 225.741 40.1827L225.182 38.4315ZM221.334 38.7626C219.449 38.7626 217.892 38.5275 216.643 38.0956L216.045 39.8373C217.54 40.3555 219.314 40.6002 221.334 40.6002V38.7626ZM216.648 38.1052C215.404 37.6734 214.358 37.0401 213.505 36.2149L212.217 37.5439C213.292 38.561 214.565 39.3239 216.045 39.8373L216.653 38.1052H216.648ZM213.5 36.2101C211.721 34.5164 210.776 32.1414 210.776 28.9508H208.934C208.934 32.5204 209.995 35.4232 212.208 37.5439L213.495 36.2149L213.5 36.2101ZM210.781 28.9508C210.781 25.9329 211.87 23.6299 214.025 21.941L212.883 20.5016C210.25 22.5647 208.944 25.4243 208.944 28.9508H210.785H210.781ZM214.021 21.941C215.973 20.4057 218.398 19.614 221.334 19.614V17.7812C218.041 17.7812 215.202 18.6688 212.878 20.5064L214.021 21.9458V21.941ZM221.334 19.6092C223.272 19.6092 224.516 19.6812 225.138 19.7915L225.471 17.9875C224.656 17.8388 223.263 17.7764 221.334 17.7764V19.6092ZM224.381 22.4016H226.223V18.8943H224.381V22.4016ZM225.582 21.5284C224.367 21.1397 223.003 20.9478 221.493 20.9478V22.7854C222.848 22.7854 224.02 22.9582 225.018 23.2748L225.582 21.5284ZM221.493 20.9478C220.009 20.9478 218.697 21.1637 217.612 21.6195L218.326 23.3036C219.117 22.9726 220.163 22.7854 221.493 22.7854V20.9478ZM217.622 21.6099C216.566 22.0322 215.689 22.6319 214.99 23.4044L216.354 24.6278C216.841 24.0905 217.492 23.6443 218.316 23.3132L217.622 21.6099ZM214.985 23.4092C213.678 24.8581 213.061 26.7437 213.061 28.9508H214.908C214.908 27.0892 215.419 25.6786 216.359 24.6326L214.985 23.4092ZM213.061 28.9508C213.061 30.7788 213.389 32.3717 214.112 33.6959C214.83 35.025 215.92 36.0085 217.338 36.6611L218.114 34.9962C217.039 34.502 216.253 33.7871 215.737 32.8131C215.197 31.8391 214.908 30.5629 214.908 28.946H213.061V28.9508ZM217.342 36.6611C218.34 37.1217 219.329 37.3616 220.322 37.3616V35.5335C219.637 35.5335 218.9 35.3656 218.119 35.001L217.342 36.6659V36.6611ZM220.322 37.3616C221.18 37.3616 221.86 37.3472 222.347 37.2992L222.197 35.476C221.783 35.5144 221.175 35.5288 220.322 35.5288V37.3568V37.3616ZM222.347 37.2992C222.834 37.256 223.292 37.2032 223.726 37.1313L223.432 35.3224C223.046 35.3848 222.636 35.4328 222.197 35.476L222.347 37.2992ZM223.731 37.1313C224.608 36.9873 225.336 36.829 225.813 36.6227L225.114 34.9242C224.83 35.0394 224.295 35.1737 223.427 35.3176L223.731 37.1265V37.1313ZM224.531 39.3047H226.382V35.7782H224.531V39.3047ZM231.324 9.11133H230.403V10.0325H231.324V9.11133ZM235.287 10.0325H236.218V9.11133H235.287V10.0325ZM235.287 28.1159H234.366V30.5053L235.977 28.7397L235.287 28.1159ZM243.575 19.0143V18.0931H243.17L242.89 18.4001L243.575 19.0143ZM248.29 19.0143L248.96 19.6428L250.445 18.0931H248.29V19.0143ZM239.472 28.2407L238.811 27.6026L238.243 28.1975L238.763 28.826L239.472 28.2407ZM248.748 39.3623V40.2787H250.72L249.462 38.777L248.748 39.3623ZM243.912 39.3623L243.199 39.9476L243.478 40.2835H243.912V39.3671V39.3623ZM235.287 28.9844L236.005 28.4038L234.371 26.4367V28.9844H235.292H235.287ZM235.287 40.2787H236.218V39.3623H235.287V40.2787ZM231.324 39.3623H230.403V40.2787H231.324V39.3623ZM231.324 10.9537H235.287V9.11133H231.324V10.9537ZM234.366 28.1159H236.218V10.0325H234.366V28.1159ZM235.981 28.7397L244.264 19.6236L242.895 18.3953L234.607 27.5018L235.981 28.7397ZM243.575 19.9259H248.295V18.0883H243.575V19.9259ZM247.625 18.3809L238.807 27.6074L240.137 28.874L248.96 19.6428L247.625 18.3809ZM238.763 28.826L248.039 39.9476L249.462 38.777L240.185 27.6553L238.763 28.826ZM248.748 38.4459H243.912V40.2787H248.748V38.4459ZM244.626 38.777L236.005 28.4038L234.578 29.5745L243.199 39.9429L244.626 38.7722V38.777ZM234.366 39.3623H236.218V28.9892H234.366V39.3623ZM235.287 38.4459H231.324V40.2787H235.287V38.4459ZM232.245 10.0325H230.403V39.3575H232.245V10.0325Z" fill="#4670B2"/>
</g>
<defs>
<clipPath id="clip0_2571_2338">
<rect width="340" height="52" fill="white"/>
</clipPath>
</defs>
</svg>
