<svg width="73" height="34" viewBox="0 0 73 34" fill="none" xmlns="http://www.w3.org/2000/svg">
<path fill-rule="evenodd" clip-rule="evenodd" d="M72.8188 12.0456C72.7932 12.218 72.7267 12.3818 72.6246 12.5232C72.5225 12.6647 72.3879 12.7795 72.2321 12.8582C72.1175 12.914 71.9926 12.9459 71.8652 12.9519C71.8387 13.1529 71.7615 13.3439 71.6409 13.5069C71.5202 13.6699 71.36 13.7995 71.1753 13.8837C70.7304 14.0992 70.1485 14.1208 69.5853 14.1424C68.8457 14.1705 67.8273 14.2361 67.1272 14.4657C66.4457 15.4181 67.6274 15.793 68.2113 14.9794C68.8195 15.2259 69.6642 15.7714 69.1761 16.495C69.126 16.5665 69.0808 16.6414 69.0409 16.7191C68.9283 16.9431 68.9396 17.2158 68.9518 17.5027C68.964 17.7895 68.9752 18.1063 68.8579 18.4016C68.7812 18.6094 68.6282 18.7803 68.43 18.8796C68.1287 19.0249 67.7729 18.9893 67.4219 18.9546C67.2748 18.937 67.1269 18.9277 66.9789 18.9265H66.8015L66.7498 18.7559C66.7071 18.6086 66.6811 18.4571 66.672 18.3041C66.671 18.2438 66.6606 18.184 66.641 18.1269C66.6222 18.1044 66.6034 18.0791 66.5837 18.0538C66.5254 18.0073 66.4625 17.9668 66.396 17.9329H66.3857C66.3067 17.8877 66.2242 17.8492 66.1388 17.8176C66.1186 17.4879 66.0571 17.162 65.9558 16.8475C65.8742 16.6122 65.7629 16.3882 65.6245 16.181C65.4828 15.9747 65.317 15.786 65.1308 15.6187C64.9487 15.4518 64.7553 15.3028 64.5676 15.1584C64.3799 15.0141 64.1922 14.8707 64.0195 14.7169C63.8486 14.5706 63.6944 14.4059 63.5596 14.2258C63.4953 14.1397 63.4388 14.0481 63.3906 13.9521C63.3416 13.8524 63.299 13.7497 63.263 13.6446C63.1896 13.4363 63.1469 13.2184 63.1363 12.9979C63.1256 12.7743 63.1417 12.5503 63.1842 12.3305C63.264 11.8825 63.4395 11.4466 63.6122 11.0051C63.8027 10.5629 63.9675 10.11 64.1059 9.64881C64.2335 9.18015 64.2936 8.68244 64.1997 8.21003C64.1995 8.68329 64.1057 9.15185 63.9238 9.58883C63.7567 10.0294 63.5371 10.4474 63.3315 10.8823C63.1099 11.32 62.9386 11.7813 62.8209 12.2574C62.7656 12.5059 62.7425 12.7604 62.7524 13.0148C62.7624 13.2719 62.8091 13.5263 62.8913 13.7702C62.9334 13.891 62.9829 14.009 63.0396 14.1236C63.0992 14.2404 63.1689 14.3518 63.248 14.4564C63.403 14.6567 63.5806 14.8385 63.7773 14.9981C64.1622 15.3112 64.5695 15.5605 64.9318 15.8511C65.2952 16.1333 65.585 16.4989 65.7766 16.9168C65.9174 17.2245 66.0237 17.5467 66.0938 17.8776C66.1257 18.0126 66.1548 18.1466 66.1801 18.2825C66.289 18.7212 66.319 19.0521 65.7775 19.607C65.6221 19.7511 65.4522 19.879 65.2707 19.9885C65.1768 20.0475 65.0951 20.1047 65.0201 20.1581C64.8585 20.2907 64.7251 20.4542 64.6277 20.639C64.6268 20.6574 64.6268 20.6758 64.6277 20.6943L64.6503 21.1985L64.2495 20.892C63.9069 20.6296 63.7473 20.2593 63.5925 19.9032C63.4789 19.6426 63.3775 19.4064 63.217 19.2301C63.0123 19.7168 62.7135 20.1583 62.3376 20.5293C62.2071 20.6558 62.0672 20.7993 61.933 20.938C61.7134 21.1639 61.4872 21.3991 61.276 21.5763L61.0198 21.7937L60.9025 21.4779C60.8405 21.3054 60.8433 21.0317 60.849 20.7139C60.849 20.6268 60.849 20.5143 60.849 20.4065C60.9286 20.1747 60.9825 19.9349 61.0095 19.6913C61.0654 19.224 61.0212 18.7502 60.8799 18.3013C60.8425 18.1889 60.7967 18.0796 60.7429 17.9741C60.6913 17.8682 60.6368 17.7661 60.5796 17.6639C60.4625 17.4624 60.3349 17.2672 60.1976 17.079C59.9216 16.7061 59.6223 16.351 59.3012 16.0161C58.6724 15.3356 57.9487 14.7498 57.226 14.1864L56.1335 13.355C55.9514 13.2153 55.7749 13.0738 55.5957 12.9341L55.0597 12.5067C54.3455 11.9443 53.6519 11.3585 53.1244 10.6433C52.8588 10.2897 52.6423 9.90186 52.4805 9.49041C52.3215 9.07643 52.2174 8.64347 52.1708 8.20253C52.1243 7.75645 52.1215 7.3069 52.1623 6.86027C52.1801 6.63625 52.2083 6.4113 52.243 6.18728C52.2773 5.96668 52.3291 5.74917 52.3979 5.53678C52.5288 5.10707 52.7463 4.70865 53.0371 4.36606C53.3355 4.02275 53.7181 3.76274 54.1474 3.61151C53.9242 3.6689 53.7096 3.75558 53.5092 3.86927C53.3074 3.98573 53.1219 4.12818 52.9573 4.29295C52.6303 4.63026 52.3783 5.0327 52.2177 5.47396C52.1342 5.69254 52.0689 5.91765 52.0225 6.14698C51.9756 6.37475 51.938 6.60344 51.908 6.83308C51.8457 7.29625 51.8321 7.76467 51.8676 8.23065C51.9 8.70199 51.9986 9.16644 52.1604 9.61039C52.3242 10.0549 52.5474 10.4752 52.824 10.8599C53.1025 11.2393 53.4168 11.5912 53.7626 11.9106C54.1015 12.2312 54.4591 12.5255 54.8167 12.8123L55.3573 13.2369C55.5375 13.3784 55.7205 13.5181 55.9035 13.6596L57.0036 14.4807C57.3705 14.7544 57.731 15.03 58.0801 15.3187C58.4293 15.6074 58.7643 15.9092 59.0863 16.2288C59.4085 16.5463 59.7125 16.8818 59.9967 17.2337C60.1366 17.4091 60.2676 17.5915 60.389 17.7801C60.5106 17.9661 60.6156 18.1624 60.7025 18.3669C60.8598 18.7857 60.9282 19.2325 60.9034 19.6791C60.8952 19.9051 60.8637 20.1297 60.8095 20.3493C60.8095 20.3596 60.787 20.3906 60.7842 20.3999C60.7701 20.4205 60.7551 20.4403 60.7391 20.4646C60.5739 20.7224 60.4792 21.0326 60.3778 21.3626C60.2445 21.7928 60.1075 22.2399 59.7968 22.5952C59.6255 22.7797 59.441 22.9517 59.2449 23.1098C59.1679 23.1744 59.0938 23.2372 59.0225 23.2972C58.9512 23.3572 58.8507 23.3909 58.7634 23.4388C58.7634 23.4519 58.7634 23.4856 58.7521 23.5728L58.7634 23.4388C58.7475 23.4472 58.7221 23.4725 58.7062 23.48C58.6564 23.5053 58.6066 23.5287 58.5569 23.5522C58.3401 23.6528 58.1184 23.7423 57.8924 23.8203C57.7798 23.8596 57.6662 23.8933 57.5526 23.9215C57.532 23.9262 57.5094 23.9299 57.4888 23.9355C57.6914 23.6936 57.8419 23.4124 57.9309 23.1098C58.0423 22.7166 58.0742 22.3052 58.0247 21.8996C57.9787 21.4988 57.879 21.106 57.7282 20.7317C57.579 20.3574 57.3879 20.0012 57.1584 19.6698C57.044 19.5029 56.9186 19.3438 56.783 19.1936C56.6469 19.0455 56.5014 18.9124 56.3578 18.7737C56.064 18.5047 55.7552 18.2572 55.4408 18.0238C54.812 17.5505 54.1559 17.1296 53.5439 16.6656C52.932 16.2017 52.3566 15.6955 51.9023 15.0891C51.7897 14.9384 51.6851 14.782 51.5889 14.6204C51.495 14.4564 51.4011 14.2895 51.3176 14.1189C51.1487 13.7763 51.0053 13.4216 50.8887 13.0579C50.7723 12.6927 50.6783 12.3209 50.6071 11.9443C50.5356 11.566 50.4889 11.1833 50.4672 10.7989C50.4163 10.0257 50.4936 9.24949 50.6962 8.50153C50.4241 9.23826 50.289 10.0184 50.2973 10.8036C50.2962 11.1975 50.3239 11.591 50.38 11.9809C50.4331 12.3722 50.5146 12.759 50.624 13.1385C50.7317 13.5198 50.8669 13.8929 51.0285 14.2548C51.1101 14.4348 51.1994 14.6157 51.2988 14.7872C51.3987 14.9617 51.5074 15.1309 51.6245 15.2943C51.8592 15.6184 52.1217 15.9214 52.4092 16.1998C52.6954 16.4734 52.9972 16.7304 53.313 16.9693C53.9391 17.4483 54.5914 17.8776 55.2118 18.3341C55.5252 18.5548 55.8237 18.7959 56.1053 19.0558C56.2461 19.1824 56.3869 19.3164 56.5146 19.4514C56.6422 19.5864 56.761 19.7295 56.8703 19.8797C57.0909 20.1854 57.2763 20.5149 57.4231 20.862C57.5717 21.2068 57.6757 21.569 57.7328 21.94C57.7908 22.3073 57.7764 22.6823 57.6906 23.0441C57.6027 23.4048 57.4185 23.7349 57.1575 23.9993L56.9745 24.1867L57.2307 24.1755C57.3585 24.1668 57.4846 24.1419 57.6061 24.1014C57.7263 24.0658 57.8417 24.0227 57.9543 23.9768C58.1791 23.8836 58.3985 23.7778 58.6114 23.6599C58.6583 23.6346 58.7052 23.6065 58.754 23.5794C58.7784 23.6815 58.8038 23.7846 58.83 23.8906C58.9347 24.3431 59.0087 24.8022 59.0515 25.2647C59.0938 25.6246 59.137 25.9977 59.2111 26.351C59.305 26.8244 59.641 27.3165 59.962 27.7936C60.3618 28.385 60.7748 28.9962 60.8067 29.6457C61.0263 29.7038 61.5445 29.7629 61.8148 29.7948C61.9859 29.8073 62.1558 29.8317 62.3235 29.8679C62.8388 30.0272 62.9298 30.076 63.0565 30.3956C63.0969 30.4999 63.1436 30.6016 63.1964 30.7002C63.2236 30.7508 63.2611 30.8127 63.3005 30.8783C63.4272 31.0836 63.5681 31.316 63.6141 31.5457C63.6826 31.9009 63.6225 32.1952 63.4357 32.4221C63.1729 32.7408 62.6783 32.8907 61.9218 32.8907C61.6176 32.8907 61.3257 32.8673 61.0911 32.8486L60.9541 32.8373C60.756 32.8223 60.5308 32.8176 60.2971 32.8129C59.8118 32.8045 59.3115 32.7951 58.9004 32.692C58.0764 32.4849 57.9572 32.0087 57.8305 31.5044C57.7939 31.3563 57.7563 31.2045 57.6991 31.0404C57.5695 30.6786 57.241 30.5024 56.8609 30.2981C56.5014 30.105 56.1298 29.9054 55.896 29.5257C55.7999 29.363 55.7197 29.1912 55.6567 29.013C55.5751 28.7607 55.4415 28.5282 55.2644 28.3306C55.0954 28.1596 54.9165 27.9987 54.7284 27.8489C54.4297 27.6188 54.1602 27.3531 53.9259 27.0578C53.4444 26.4016 52.8381 25.5374 52.412 24.6207C52.3698 24.5345 52.335 24.4407 52.2975 24.3395C52.0758 24.066 51.7963 23.8449 51.479 23.6918C51.419 23.6646 51.357 23.6403 51.2913 23.6178L51.2266 23.6262C51.0979 23.6454 50.9681 23.656 50.838 23.6581C50.4012 23.6637 49.9676 23.5827 49.5624 23.4197C49.1572 23.2567 48.7884 23.015 48.4774 22.7086C48.3829 22.6135 48.2938 22.513 48.2108 22.4077C48.0447 22.2015 47.9199 22.0609 47.7773 22.0093C47.7569 22.0029 47.7362 21.9976 47.7153 21.9934C47.7022 21.9934 47.6871 21.9934 47.6721 21.9878C47.6871 21.9878 47.7022 21.9878 47.7153 21.9934C47.7284 21.999 47.7585 22.0037 47.7773 22.0093C47.9387 21.9156 48.1057 21.8397 48.2775 21.7619C48.4774 21.6681 48.682 21.5847 48.8885 21.49C49.1006 21.3944 49.3046 21.2819 49.4986 21.1535C49.8912 20.8916 50.2233 20.549 50.4729 20.1487C50.7086 19.7516 50.8639 19.3121 50.93 18.8552C50.7242 19.2463 50.4869 19.62 50.2204 19.9725C49.9519 20.3033 49.6355 20.5924 49.2818 20.8302C48.9373 21.0664 48.5253 21.251 48.1377 21.4863C47.9383 21.6051 47.7517 21.7443 47.5811 21.9015H47.5877C47.5492 21.9343 47.5004 21.9793 47.4337 22.0478H47.4403L47.3981 22.0965C47.1634 22.298 46.8828 22.7133 46.7598 22.897C46.7223 22.9523 46.6894 23.002 46.6603 23.0432C46.3531 23.4988 46.0729 23.9721 45.8212 24.4604C45.5602 24.9695 45.2684 25.4622 44.9474 25.9358C44.8047 26.1364 44.6564 26.3379 44.5128 26.5319C44.1311 27.0241 43.7861 27.5435 43.4804 28.086C43.2773 28.4533 43.1335 28.8503 43.0543 29.2623C43.0055 29.4967 42.9806 29.7354 42.9801 29.9747C43.0483 29.9648 43.1175 29.9648 43.1856 29.9747C43.3864 30.031 43.5652 30.1471 43.6982 30.3075C43.7687 30.3944 43.8199 30.4954 43.8483 30.6037C43.8577 30.6357 43.8693 30.667 43.883 30.6974C43.914 30.7041 43.9454 30.7091 43.9769 30.7124C44.0185 30.716 44.0598 30.722 44.1008 30.7302C44.2586 30.7691 44.4133 30.8198 44.5635 30.882L44.6311 30.9092C44.9127 31.0161 45.2881 31.1632 45.442 31.4847C45.5959 31.8062 45.6222 32.0893 45.5087 32.3218C45.3144 32.7248 44.7719 32.8504 44.3354 32.9535C43.6602 33.1143 42.9693 33.2002 42.2752 33.2094C41.6135 33.2094 41.0551 33.1157 40.6083 32.9188C40.2544 32.7633 39.6397 32.4371 39.4951 31.9815C39.3628 31.5682 39.5496 31.2486 39.7007 30.9908C39.7539 30.9058 39.8003 30.8168 39.8396 30.7246C39.876 30.6437 39.9025 30.5587 39.9185 30.4715L39.8358 30.434C39.6699 30.3682 39.5192 30.2693 39.3928 30.1434C38.9827 29.7207 39.177 28.938 39.2192 28.7843C39.324 28.4373 39.4533 28.0981 39.6059 27.7692C39.8199 27.2818 40.0208 26.8216 40.0461 26.2282C40.0893 25.2253 40.3568 24.2945 40.6139 23.3938C40.7641 22.8679 40.9199 22.3252 41.0316 21.7684C41.1105 21.3757 41.056 21.2351 41.0166 21.1882C40.9772 21.1414 40.8664 21.1067 40.705 21.1067C40.5407 21.1106 40.3769 21.1266 40.215 21.1545C39.817 21.2097 39.4155 21.2351 39.0136 21.2304C38.6683 21.2304 38.3219 21.2182 38.0141 21.206C37.9042 21.206 37.7925 21.2004 37.679 21.1985C37.3822 21.2032 37.0856 21.1837 36.792 21.1404C36.2157 21.0392 35.6019 20.7852 35.0087 20.5396C34.6924 20.4084 34.392 20.2847 34.1077 20.1881C33.9059 20.1197 33.6984 20.0306 33.4769 19.9369C32.9785 19.7269 32.4642 19.5095 32.0193 19.5095H31.9912C31.5791 19.517 31.3604 19.8554 31.107 20.2472C31.0319 20.3615 30.9568 20.4787 30.8733 20.5893C30.6271 20.9166 30.4595 21.2959 30.3833 21.6981C30.3364 21.9156 30.297 22.1368 30.2538 22.3702C30.1093 23.1575 29.961 23.9693 29.5733 24.6816C29.4701 24.8691 29.3537 25.051 29.242 25.2244C28.8938 25.7596 28.5935 26.2226 28.7239 26.8694C28.8488 27.4983 29.4297 27.9604 29.9929 28.4075C30.2013 28.5734 30.3983 28.7309 30.5748 28.8968C31.2675 29.5473 31.795 29.7676 32.6547 29.7676C32.7364 29.7676 32.8274 29.7676 32.9185 29.7601C33.0095 29.7526 33.1062 29.7488 33.185 29.7413C33.3042 29.7329 33.4178 29.7226 33.5313 29.7226C33.7075 29.7165 33.8827 29.7503 34.0439 29.8214C34.2052 29.8925 34.3482 29.9991 34.4624 30.1331C34.6999 30.3871 35.0659 30.9608 35.0331 31.4163C34.9721 32.2871 33.888 32.3133 33.0968 32.333C32.9087 32.3333 32.7207 32.3436 32.5336 32.364C32.3638 32.3893 32.1957 32.4174 32.0193 32.4464C31.5076 32.5473 30.9883 32.6054 30.4669 32.6199C30.2469 32.6207 30.0273 32.6044 29.8099 32.5711C29.2467 32.4774 29.0768 32.2712 28.844 31.9815C28.783 31.9065 28.7136 31.8212 28.6291 31.7275C28.3607 31.4304 28.0528 31.2645 27.6952 31.0714L27.4981 30.9645C26.69 30.5174 26.0499 29.9616 25.3553 29.3336C25.2051 29.1958 25.0287 29.0477 24.841 28.8912C24.2985 28.4356 23.6846 27.921 23.3449 27.3971C22.9647 26.8103 23.0924 26.0295 23.2041 25.3415C23.2476 25.1153 23.2789 24.8869 23.2979 24.6573C23.3524 23.5765 23.2153 22.7311 22.8662 21.9981L22.839 21.9409C22.7451 21.7413 22.5874 21.4085 22.4016 21.3316C22.3781 21.3211 22.3536 21.3132 22.3284 21.3082H22.2739C22.2298 21.3138 22.1876 21.3607 22.0909 21.4872C21.9762 21.6575 21.8236 21.799 21.6451 21.9006C21.2508 22.1049 20.8276 22.1668 20.4193 22.2249C19.9397 22.2943 19.4882 22.3599 19.1381 22.6533C18.933 22.8298 18.7446 23.0246 18.5749 23.2353C18.2494 23.861 17.7406 24.3727 17.1164 24.7023C16.8962 24.7987 16.6657 24.8698 16.4293 24.9141H16.4115C16.0992 25.0248 15.8 25.169 15.5189 25.3443C15.0815 25.6461 14.8262 26.0942 14.5616 26.6022C14.3682 26.9678 14.3053 27.3071 14.2321 27.7017C14.1992 27.8845 14.1636 28.071 14.1148 28.2735C14.0941 28.3531 14.0726 28.4338 14.051 28.5153C13.928 28.984 13.8097 29.4255 13.9458 29.8651C14.0916 29.8482 14.2338 29.8086 14.3673 29.7479C14.5933 29.6415 14.8412 29.5898 15.0909 29.597C15.6259 29.6382 16.113 29.9982 16.4687 30.2597C16.8498 30.5409 17.1258 31.1033 17.1342 31.6375C17.1427 32.0443 16.9972 32.3874 16.7222 32.6114C16.4472 32.8354 15.9188 32.8926 15.502 32.9432C15.4082 32.9535 15.3228 32.9639 15.2552 32.9742C14.7967 33.0506 14.3327 33.0898 13.8679 33.0913H13.7065C12.9021 33.0857 11.7974 33.0773 11.4539 32.154C11.3225 31.7772 11.2218 31.3903 11.1526 30.9973C11.0306 30.3918 10.9151 29.821 10.504 29.2792C9.95778 28.5575 10.0742 27.8732 10.1971 27.1449C10.2215 27.0025 10.2468 26.8544 10.2666 26.7025C10.3426 26.1654 10.3773 25.7165 10.3032 25.2675C10.2752 25.1387 10.2388 25.0119 10.1943 24.8879C10.092 24.5795 9.97653 24.2317 10.0535 23.9355C10.2168 23.2953 10.8203 23.0779 11.3525 22.8876C11.6341 22.7892 11.8941 22.6926 12.0771 22.552C11.8847 21.1329 12.5351 19.6773 13.0598 18.5009C13.2222 18.1363 13.3517 17.7511 13.4906 17.3368C13.7168 16.6638 13.9496 15.9664 14.3353 15.3834L14.4705 15.1781C14.9107 14.5173 15.3641 13.833 15.777 13.1422C15.8352 13.0438 15.8944 12.9482 15.9516 12.8545C16.2009 12.4751 16.4113 12.0715 16.5795 11.65C16.7772 11.0918 17.0366 10.5574 17.3529 10.0566C16.7559 10.0903 15.6165 10.1025 13.4052 10.1269C11.2878 10.1475 8.88778 10.1719 8.40441 10.2497C7.00122 10.4765 3.60072 11.2882 2.31298 13.9052C1.84369 14.8622 1.59118 16.4116 2.14777 17.5523C2.55324 18.3838 3.90857 19.771 4.74767 19.8432L5.06962 19.8703C6.12366 19.9575 6.82102 20.0156 7.82531 20.6933C8.50297 21.1498 9.23319 21.8406 10.0601 22.807L10.3032 23.0929L9.93901 23.1866C9.04172 23.4181 8.11252 23.6553 7.19364 23.6553C6.56682 23.6599 5.94562 23.5368 5.36807 23.2935C4.65098 22.9916 4.17795 22.7911 3.83631 22.0384C3.79368 21.9113 3.76963 21.7787 3.76495 21.6447C3.75371 21.5105 3.73397 21.3771 3.70583 21.2454C2.18438 20.698 1.1144 19.7766 0.522147 18.5075C-0.0250495 17.3349 -0.142349 15.9176 0.171139 14.2942C0.409552 13.0549 1.07909 11.9396 2.06142 11.1457C5.56236 8.26813 9.6424 8.08254 13.9599 7.88664L14.5231 7.86041C16.3618 7.77511 17.7659 7.49766 19.5323 6.8734C21.4949 6.17885 23.144 5.64083 24.9893 5.54241H25.0296C25.5111 5.51897 26.0226 5.50678 26.5501 5.50678C28.1148 5.50678 29.7 5.61082 31.2318 5.71205C32.7636 5.81328 34.3348 5.9164 35.8853 5.9164C36.0815 5.9164 36.2748 5.9164 36.4719 5.91171C38.4871 5.87609 40.4891 5.54802 42.4263 5.22933C43.2514 5.09342 44.1064 4.95377 44.9549 4.83754L45.0544 4.8244C46.1807 4.66974 47.2741 4.39323 48.3845 4.19265C48.423 4.18608 48.4624 4.17671 48.4999 4.16734C48.4974 4.17024 48.4942 4.17249 48.4905 4.1739C48.4333 4.21608 48.377 4.26107 48.3216 4.30512C48.1517 4.44936 47.9911 4.60436 47.8411 4.76911C47.6939 4.93679 47.5573 5.11333 47.4318 5.29776C47.3064 5.48213 47.1929 5.67436 47.0921 5.87326C46.989 6.07164 46.8987 6.2764 46.8218 6.48628C46.7442 6.69641 46.6787 6.91079 46.6256 7.12835C46.5993 7.23802 46.5758 7.34863 46.5561 7.45923L46.5036 7.78167C46.3647 8.62526 46.191 9.46885 45.8466 10.2356C45.6663 10.6105 45.443 10.9751 45.121 11.2376C44.96 11.3706 44.7754 11.4721 44.5767 11.5366C44.3717 11.6015 44.157 11.6301 43.9422 11.6209C44.1579 11.6695 44.3812 11.6752 44.5992 11.6378C44.8235 11.5969 45.0373 11.5115 45.228 11.3866C45.4167 11.2593 45.5861 11.1056 45.7311 10.9302C45.8742 10.7553 45.9999 10.5669 46.1065 10.3678C46.3169 9.97486 46.4832 9.55989 46.6021 9.13047C46.666 8.91957 46.7194 8.704 46.7654 8.48935C46.8114 8.27471 46.8537 8.05911 46.8912 7.84258L46.9428 7.52203C46.9597 7.41986 46.9795 7.31769 47.0029 7.21552C47.0493 7.01087 47.1072 6.80903 47.1765 6.61095C47.245 6.41317 47.3201 6.21633 47.4084 6.02418C47.4966 5.83203 47.5961 5.64925 47.7003 5.46179C47.8057 5.27836 47.9226 5.1018 48.0504 4.93315C48.1753 4.762 48.3121 4.59974 48.4596 4.4476C48.5682 4.33186 48.6832 4.22233 48.8041 4.11953V4.11017H48.82C48.928 4.01644 49.0396 3.93114 49.157 3.84865C49.232 3.80647 49.3071 3.76523 49.385 3.72398C49.6995 3.55526 49.8543 3.33125 50.0421 3.04911C50.1432 2.89155 50.2535 2.74006 50.3724 2.59544C50.6456 2.27769 50.9572 1.95526 51.4049 1.73967C51.5361 1.67615 51.6728 1.62438 51.8132 1.585C52.3848 1.42284 52.9508 1.27757 53.5965 1.29163H53.8865C54.2685 1.27866 54.6506 1.3152 55.0231 1.40035C55.3704 1.48846 55.6398 1.45847 56.0171 1.28881C56.248 1.18477 56.4742 1.06947 56.7032 0.956059L57.1012 0.758296C57.8389 0.402112 58.7099 0.037477 59.7292 0.226817C60.2295 0.320549 60.7288 0.235263 61.2572 0.143405L61.3671 0.121848C61.8636 0.0356143 62.3751 -0.0440584 62.9091 0.0281157C63.308 0.0815432 63.6957 0.157473 64.058 0.503346C64.2001 0.654858 64.3142 0.830339 64.3949 1.02167C64.4541 1.14352 64.5217 1.28132 64.5827 1.31788C64.7211 1.3881 64.8701 1.43527 65.0238 1.45754C65.265 1.50815 65.5382 1.56625 65.7747 1.74716C66.1846 2.07768 66.4914 2.51836 66.6588 3.01724C66.719 3.19711 66.7651 3.38139 66.7968 3.5684C66.946 4.30888 67.0784 4.64819 67.6012 4.57414C67.6636 4.56428 67.7241 4.54466 67.7804 4.51602C67.9593 4.42159 68.1163 4.29067 68.2413 4.13173L68.6064 3.66307L68.6608 4.25359C68.7078 4.75505 68.5313 5.16558 68.1596 5.42897C68.4958 5.70258 68.7929 6.02078 69.0428 6.37474C69.1505 6.52335 69.2465 6.68004 69.33 6.8434C69.3601 6.89683 69.3882 6.95119 69.4183 7.00462L69.3957 7.01961C69.4547 7.16539 69.5 7.31633 69.5309 7.47047C69.5534 7.57658 69.5662 7.68449 69.5694 7.7929C69.5694 7.8079 69.5694 7.81729 69.5694 7.8276C69.6175 7.92256 69.6708 8.01486 69.7289 8.1041C69.8779 8.3239 70.0467 8.52971 70.233 8.71899L70.3775 8.87646C70.599 9.12297 70.7961 9.35355 70.9866 9.57757C71.3606 10.0355 71.7621 10.4703 72.189 10.8795L72.3541 11.0295C72.6489 11.2882 72.9023 11.5122 72.8234 12.0456H72.8188ZM66.5349 6.03542C66.2915 6.12286 66.04 6.18566 65.784 6.22288C65.2697 6.30724 64.7281 6.3363 64.1838 6.50408C64.0473 6.54906 63.9146 6.60453 63.7867 6.66999C63.6556 6.73777 63.5328 6.82051 63.4207 6.91652C63.1979 7.10883 63.0247 7.35189 62.9157 7.62514C62.8596 7.76084 62.8229 7.9038 62.8069 8.04975C62.7894 8.19616 62.7989 8.34451 62.835 8.48748C62.8723 8.62822 62.9407 8.75888 63.035 8.86991C63.128 8.97422 63.2426 9.05705 63.3709 9.11267C63.2728 9.02789 63.1911 8.92592 63.1297 8.81179C63.0719 8.70229 63.0377 8.58191 63.0293 8.45841C63.0189 8.2146 63.0778 7.97283 63.1992 7.76105C63.312 7.54577 63.4694 7.35692 63.661 7.20708C63.857 7.06156 64.0768 6.9509 64.3105 6.87995C64.7901 6.72529 65.3241 6.66719 65.8535 6.52191C66.1235 6.45359 66.3828 6.34856 66.6241 6.20977C66.8645 6.07015 67.0666 5.87341 67.2126 5.63706C67.0158 5.81149 66.7878 5.94728 66.5405 6.0373L66.5349 6.03542ZM22.2655 21.3138C22.2655 21.3138 24.4149 17.364 28.4696 17.2093C28.4696 17.2093 24.2872 16.5222 22.2655 21.3138ZM29.1322 14.7947C29.0646 13.6062 29.2777 12.5902 28.7502 11.2798C28.6638 11.0689 28.4761 10.9301 28.3025 10.7839C29.2176 11.5657 28.5841 13.4553 28.9764 15.8005C29.3687 18.1457 32.1817 19.4973 32.1817 19.4973C31.7428 19.1749 31.3278 18.8212 30.9399 18.4391C29.9431 17.4474 29.2129 16.2214 29.1322 14.7947ZM42.0706 18.185C41.9322 18.4351 41.837 18.7067 41.789 18.9883C41.699 19.5421 41.6943 20.1063 41.775 20.6614C41.7853 20.7308 41.7966 20.7974 41.8041 20.8602C41.8116 20.923 41.8181 20.9876 41.8238 21.0476C41.835 21.1779 41.8397 21.3073 41.8397 21.4376C41.8387 21.7011 41.8217 21.9643 41.789 22.2259C41.7318 22.7564 41.6173 23.2935 41.5872 23.8446C41.7903 23.3341 41.96 22.8109 42.095 22.2783C42.1571 22.0049 42.196 21.7268 42.2114 21.4469C42.218 21.3054 42.217 21.1657 42.2114 21.0223C42.2058 20.9502 42.1983 20.8789 42.1908 20.8096C42.1833 20.7402 42.1729 20.669 42.1645 20.6043C42.0882 20.0812 42.0646 19.5517 42.0941 19.0239C42.1092 18.7645 42.1591 18.5082 42.2424 18.2619C42.3256 18.0098 42.4908 17.7927 42.7117 17.6451C42.575 17.683 42.4488 17.7516 42.3428 17.8457C42.2364 17.9431 42.1453 18.0559 42.0725 18.1803L42.0706 18.185Z" fill="#1E396C"/>
</svg>
