<svg xmlns="http://www.w3.org/2000/svg" xmlns:xlink="http://www.w3.org/1999/xlink" viewBox="0 0 360 42.59"><defs><style>.cls-1{fill:none;}.cls-2{clip-path:url(#clip-path);}.cls-3{fill:#3470d3;}.cls-4{fill:#04b454;}.cls-5{fill:#1db150;}</style><clipPath id="clip-path" transform="translate(-2.02 -3.15)"><rect class="cls-1" width="364.38" height="45.74"/></clipPath></defs><g id="Layer_2" data-name="Layer 2"><g id="Layer_1-2" data-name="Layer 1"><g class="cls-2"><path class="cls-3" d="M67.28,11.12h3.39v9.31H81.82V11.12h3.39V34.7H81.82V23.42H70.67V34.7H67.28ZM91.22,31.58a8.88,8.88,0,0,1-.89-2.27,14.27,14.27,0,0,1-.33-3.4A8.41,8.41,0,0,1,90.9,22a8.63,8.63,0,0,1,2.38-2.91,11.13,11.13,0,0,1,7-2.19c1.45,0,2.56,0,3.3.11l1.65.17V34.7h-3.05l-.14-2a6,6,0,0,1-3.1,2,5.37,5.37,0,0,1-1.65.26,8.23,8.23,0,0,1-1.64-.17,7.69,7.69,0,0,1-1.63-.56,7,7,0,0,1-1.52-1A7.08,7.08,0,0,1,91.22,31.58Zm10.65-11.87a17.69,17.69,0,0,0-2.17-.14,7.54,7.54,0,0,0-2.29.39,5.11,5.11,0,0,0-2.08,1.19,6.77,6.77,0,0,0-1.8,5.16,6.71,6.71,0,0,0,1.54,4.87,3.84,3.84,0,0,0,2.81,1.17,4.51,4.51,0,0,0,3.5-1.54,4.83,4.83,0,0,0,.49-.7ZM110,39a4.5,4.5,0,0,0,1.24.14,4.34,4.34,0,0,0,1.62-.33,4.15,4.15,0,0,0,1.44-.86,8,8,0,0,0,1.85-2.88l-7.19-17.89h3.61l5,13.92,4.53-13.92h3.57l-7.18,19.63a7.55,7.55,0,0,1-2.26,3.38,7.87,7.87,0,0,1-5.06,1.52l-.59,0-.63-.07ZM132.35,35a31.37,31.37,0,0,1-4.29-.3v-3a19.25,19.25,0,0,0,4.48.52c3,0,4.54-.63,4.54-1.91a1.44,1.44,0,0,0-.36-1.08,5.58,5.58,0,0,0-1.66-1.12l-2.47-1.14A12.7,12.7,0,0,1,129.47,25a4.44,4.44,0,0,1-1.34-3.22,4,4,0,0,1,2-3.42,10.44,10.44,0,0,1,5.9-1.43,26.68,26.68,0,0,1,3.86.28v2.89a21.12,21.12,0,0,0-3.73-.39,11.2,11.2,0,0,0-2.46.21,3.87,3.87,0,0,0-1.3.5,1.46,1.46,0,0,0-.7,1.24,1.63,1.63,0,0,0,.48,1.22,7,7,0,0,0,1.52,1l2.49,1.2A15.49,15.49,0,0,1,139.28,27a4.34,4.34,0,0,1,1.32,3.24,3.79,3.79,0,0,1-2.1,3.35A11.79,11.79,0,0,1,132.35,35ZM151.7,32a5.11,5.11,0,0,0,1.69.21,5.75,5.75,0,0,0,1.9-.27v2.71a5.82,5.82,0,0,1-1,.1l-1.07,0h-.54a5.59,5.59,0,0,1-4.83-2.13,7.6,7.6,0,0,1-1.25-4.58V19.81h-2.51V18.22l2.51-1,.81-4.34H150v4.34h5.42v2.59H150v8.27C150,30.29,150.54,31.61,151.7,32Zm9-.44a8.88,8.88,0,0,1-.89-2.27,14.27,14.27,0,0,1-.33-3.4,8.41,8.41,0,0,1,.9-3.87,8.72,8.72,0,0,1,2.37-2.91,11.16,11.16,0,0,1,7-2.19c1.45,0,2.55,0,3.3.11l1.64.17V34.7h-3.05l-.13-2a6,6,0,0,1-3.1,2,5.37,5.37,0,0,1-1.65.26,8.23,8.23,0,0,1-1.64-.17,7.69,7.69,0,0,1-1.63-.56,7,7,0,0,1-1.52-1A7.08,7.08,0,0,1,160.66,31.58ZM171.3,19.71a17.41,17.41,0,0,0-2.16-.14,7.49,7.49,0,0,0-2.29.39,5.22,5.22,0,0,0-2.09,1.19A6.8,6.8,0,0,0,163,26.31a6.71,6.71,0,0,0,1.54,4.87,3.84,3.84,0,0,0,2.81,1.17,4.49,4.49,0,0,0,3.49-1.54,3.63,3.63,0,0,0,.49-.7Zm21.37,14.94a16.91,16.91,0,0,1-7.79-.29,8,8,0,0,1-3-1.79,9,9,0,0,1-2.55-6.81,8,8,0,0,1,3.06-6.65,10.58,10.58,0,0,1,6.75-2.17,22.51,22.51,0,0,1,3.39.17v3a10.83,10.83,0,0,0-3.26-.46,7.72,7.72,0,0,0-3,.51,5.33,5.33,0,0,0-2,1.34,6.1,6.1,0,0,0-1.44,4.24q0,4.44,3.2,5.91a5.28,5.28,0,0,0,2.22.52c.73,0,1.28,0,1.66,0s.77-.07,1.12-.13a9,9,0,0,0,1.61-.39Zm5-25.14h3.39V25l7.08-7.82h4l-7.54,7.92,7.93,9.56h-4.13l-7.37-8.91V34.7h-3.39Z" transform="translate(-2.02 -3.15)"/><path class="cls-4" d="M67.28,11.12v-.79h-.79v.79Zm3.39,0h.79v-.79h-.79Zm0,9.31h-.79v.79h.79Zm11.15,0v.79h.79v-.79Zm0-9.31v-.79H81v.79Zm3.39,0H86v-.79h-.79Zm0,23.58v.79H86V34.7Zm-3.39,0H81v.79h.79Zm0-11.28h.79v-.79h-.79Zm-11.15,0v-.79h-.79v.79Zm0,11.28v.79h.79V34.7Zm-3.39,0h-.79v.79h.79Zm0-22.8h3.39V10.33H67.28Zm2.6-.78v9.31h1.58V11.12Zm.79,10.1H81.82V19.65H70.67Zm11.94-.79V11.12H81v9.31Zm-.79-8.53h3.39V10.33H81.82Zm2.6-.78V34.7H86V11.12Zm.79,22.79H81.82v1.58h3.39Zm-2.6.79V23.42H81V34.7Zm-.79-12.07H70.67v1.58H81.82Zm-11.94.79V34.7h1.58V23.42Zm.79,10.49H67.28v1.58h3.39Zm-2.6.79V11.12H66.49V34.7Zm23.15-3.12-.68.4h0Zm-.89-2.27-.77.19h0ZM90.9,22l-.7-.36h0Zm2.38-2.91-.49-.62h0Zm10.33-2.08.08-.79h0Zm1.65.17H106V16.5l-.7-.07Zm0,17.48v.79H106V34.7Zm-3.05,0-.79,0,0,.74h.74Zm-.14-2,.79-.06-.15-2.12-1.27,1.7Zm-3.1,2L98.73,34h0Zm-4.92-.47-.34.71h0Zm-1.52-1-.53.59h0Zm9.34-13.48h.78V19l-.69-.09ZM97.41,20l.23.75h0Zm-2.08,1.19-.54-.58h0Zm-.26,10-.56.55h0Zm6.31-.37.58.52h0Zm.49-.7.7.35.08-.16v-.19Zm-10,1.08a8.27,8.27,0,0,1-.82-2.07l-1.53.39a10,10,0,0,0,1,2.47Zm-.82-2.07a14,14,0,0,1-.3-3.21H89.22a15.72,15.72,0,0,0,.34,3.59Zm-.3-3.21a7.6,7.6,0,0,1,.82-3.51l-1.41-.71a9.13,9.13,0,0,0-1,4.22Zm.81-3.5a8,8,0,0,1,2.16-2.66l-1-1.24a9.39,9.39,0,0,0-2.59,3.17Zm2.16-2.66a10.38,10.38,0,0,1,6.55-2V16.16a11.9,11.9,0,0,0-7.52,2.35Zm6.55-2c1.45,0,2.52,0,3.23.1l.14-1.57c-.78-.07-1.91-.1-3.37-.1Zm3.3-.68-.08.78h.1l.31,0,.23,0,.29,0h.33l.38,0,.17-1.57H105l-.17,0h-.16l-.15,0h-.26l-.11,0h-.18l-.13,0h-.1Zm.86.17V34.7H106V17.22Zm.79,16.69h-3.05v1.58h3.05Zm-2.27.74-.13-2-1.58.11.14,2Zm-1.55-2.44A5.26,5.26,0,0,1,98.73,34l.48,1.5a6.71,6.71,0,0,0,3.49-2.29ZM98.73,34a4.43,4.43,0,0,1-1.41.22v1.58a6,6,0,0,0,1.89-.3Zm-1.41.22A6.77,6.77,0,0,1,95.84,34l-.32,1.55a9.17,9.17,0,0,0,1.8.19ZM95.84,34a6.2,6.2,0,0,1-1.45-.49l-.68,1.42a8.43,8.43,0,0,0,1.81.62Zm-1.44-.49a6.22,6.22,0,0,1-1.35-.92l-1,1.19a7.83,7.83,0,0,0,1.7,1.15Zm-1.34-.91a6.35,6.35,0,0,1-1.16-1.44L90.55,32A8.06,8.06,0,0,0,92,33.78ZM102,18.92a19,19,0,0,0-2.26-.14v1.58a16,16,0,0,1,2.07.13Zm-2.26-.14a8.3,8.3,0,0,0-2.53.43l.48,1.5a6.73,6.73,0,0,1,2-.35Zm-2.52.43a6,6,0,0,0-2.39,1.36l1.08,1.15a4.47,4.47,0,0,1,1.77-1Zm-2.4,1.36a7.56,7.56,0,0,0-2,5.74h1.58c0-2.19.56-3.66,1.55-4.59Zm-2,5.74a7.5,7.5,0,0,0,1.77,5.42l1.12-1.1a6,6,0,0,1-1.31-4.32Zm1.77,5.43a4.66,4.66,0,0,0,3.37,1.4V31.56a3.05,3.05,0,0,1-2.25-.94Zm3.37,1.4A5.26,5.26,0,0,0,102,31.33l-1.17-1a3.69,3.69,0,0,1-2.91,1.28ZM102,31.32a3.83,3.83,0,0,0,.6-.86l-1.41-.7a3.1,3.1,0,0,1-.38.53Zm.68-1.21V19.71h-1.57v10.4ZM110,39l.22-.76-1-.3V39Zm2.86-.19-.27-.74h0Zm1.44-.86-.53-.59h0Zm1.85-2.88.73.31.12-.3-.12-.31Zm-7.19-17.89v-.79h-1.16l.43,1.08Zm3.61,0,.75-.27-.19-.52h-.56Zm5,13.92-.74.27.79,2.16.7-2.18Zm4.53-13.92v-.79h-.57l-.18.54Zm3.57,0,.74.27.39-1.06h-1.13Zm-7.18,19.63.74.28h0Zm-2.26,3.38.5.61h0Zm-5.65,1.49.08-.79h0Zm-.63-.07h-.79v.71l.7.07Zm-.23-1.85a5.38,5.38,0,0,0,1.47.16V38.39a3.72,3.72,0,0,1-1-.11Zm1.47.16a5.44,5.44,0,0,0,1.91-.37l-.57-1.47a3.8,3.8,0,0,1-1.34.27Zm1.89-.37a4.93,4.93,0,0,0,1.71-1l-1.07-1.16a3.55,3.55,0,0,1-1.18.7Zm1.7-1a8.92,8.92,0,0,0,2-3.16l-1.46-.62a7.22,7.22,0,0,1-1.65,2.6Zm2-3.77-7.18-17.89-1.47.59,7.19,17.89ZM108.91,18h3.61V16.43h-3.61Zm2.87-.52,5,13.93,1.48-.54-5-13.92Zm6.54,13.91,4.53-13.93-1.5-.49L116.82,30.9ZM122.1,18h3.57V16.43H122.1Zm2.83-1.06-7.18,19.64,1.48.54,7.18-19.63Zm-7.18,19.64a6.9,6.9,0,0,1-2,3l1,1.23a8.42,8.42,0,0,0,2.5-3.71Zm-2,3A7,7,0,0,1,111.17,41v1.58a8.62,8.62,0,0,0,5.56-1.7ZM111.17,41l-.51,0-.17,1.57a5.27,5.27,0,0,0,.68,0Zm-.51,0-.63-.06-.17,1.56.63.07Zm.08.72V39h-1.58v2.61Zm17.32-7h-.79v.68l.68.1Zm0-3,.19-.77-1-.23v1Zm8.66-2.47-.57.54h0Zm-1.66-1.12.35-.71h0Zm-2.47-1.14-.36.71h0ZM129.47,25l.56-.55h0Zm.61-6.64-.44-.66h0Zm9.76-1.15h.79v-.69l-.68-.1Zm0,2.89-.14.78.93.17v-.95Zm-6.19-.18-.17-.77h0Zm-1.3.5.44.66h0Zm-.22,2.46-.56.56h0Zm1.52,1-.36.7h0Zm2.49,1.2.37-.7h0ZM139.28,27l-.55.57h0Zm-.78,6.59-.41-.67h0Zm-6.15.55a29.78,29.78,0,0,1-4.18-.29L128,35.45a31.31,31.31,0,0,0,4.4.31Zm-3.5.49v-3h-1.58v3Zm-1-2.23a20.26,20.26,0,0,0,4.66.54V31.41a18.11,18.11,0,0,1-4.29-.51Zm4.66.54a10,10,0,0,0,3.71-.54,2.81,2.81,0,0,0,1.16-.83,2.09,2.09,0,0,0,.46-1.33h-1.58a.5.5,0,0,1-.12.35,1.39,1.39,0,0,1-.54.36,8.34,8.34,0,0,1-3.09.42Zm5.33-2.7a2.25,2.25,0,0,0-.59-1.64l-1.12,1.11s.13.16.13.53Zm-.58-1.62a6.38,6.38,0,0,0-1.88-1.29l-.7,1.41a5.15,5.15,0,0,1,1.44,1Zm-1.9-1.3-2.47-1.14-.66,1.44,2.47,1.13Zm-2.45-1.12A12.8,12.8,0,0,1,130,24.46l-1.13,1.1a13.93,13.93,0,0,0,3.33,2.09ZM130,24.46a3.65,3.65,0,0,1-1.11-2.67h-1.58a5.17,5.17,0,0,0,1.57,3.77Zm-1.11-2.67a3.22,3.22,0,0,1,1.6-2.77l-.88-1.31a4.77,4.77,0,0,0-2.3,4.08Zm1.6-2.77A9.66,9.66,0,0,1,136,17.73V16.16a11.2,11.2,0,0,0-6.34,1.55ZM136,17.73a26.59,26.59,0,0,1,3.75.27l.22-1.57a29.76,29.76,0,0,0-4-.27Zm3.07-.51v2.89h1.58V17.22Zm.93,2.12a21.54,21.54,0,0,0-3.87-.41v1.58a20,20,0,0,1,3.59.38Zm-3.87-.41a11.86,11.86,0,0,0-2.63.23l.35,1.54a10.39,10.39,0,0,1,2.28-.19Zm-2.64.23a4.49,4.49,0,0,0-1.57.63l.9,1.29a3.26,3.26,0,0,1,1-.39Zm-1.57.62a2.23,2.23,0,0,0-1,1.89h1.57a.66.66,0,0,1,.35-.58Zm-1,1.89a2.44,2.44,0,0,0,.7,1.78l1.12-1.12a.86.86,0,0,1-.25-.66Zm.72,1.8a8.06,8.06,0,0,0,1.7,1.12l.73-1.4a6.37,6.37,0,0,1-1.35-.88Zm1.72,1.13,2.49,1.21.69-1.43L134,23.18Zm2.47,1.19a15.25,15.25,0,0,1,2.95,1.82l1.1-1.13a16.18,16.18,0,0,0-3.32-2.09Zm2.95,1.82a3.53,3.53,0,0,1,1.08,2.67h1.58a5.11,5.11,0,0,0-1.56-3.8Zm1.08,2.67A3,3,0,0,1,138.09,33l.82,1.35a4.6,4.6,0,0,0,2.48-4ZM138.09,33a11.09,11.09,0,0,1-5.74,1.22v1.58a12.61,12.61,0,0,0,6.56-1.45ZM151.7,32l.27-.74h0Zm3.59-.06h.79V30.84l-1.05.37Zm0,2.71.18.77.61-.15v-.62Zm-1,.1,0-.79h0Zm-1.07,0v.79h0Zm-5.37-2.13-.64.46h0Zm-1.25-12.86h.78V19h-.78Zm-2.51,0h-.79v.79h.79Zm0-1.59-.29-.74-.5.2v.54Zm2.51-1,.29.73.4-.16.08-.43Zm.81-4.34v-.79h-.66l-.12.64Zm2.58,0h.78v-.79H150Zm0,4.34h-.79V18H150Zm5.42,0h.79v-.79h-.79Zm0,2.59v.79h.79v-.79Zm-5.42,0V19h-.79v.79Zm1.47,13a6.11,6.11,0,0,0,2,.25V31.44a4.45,4.45,0,0,1-1.42-.16Zm2,.25a6.52,6.52,0,0,0,2.17-.32L155,31.21a4.77,4.77,0,0,1-1.64.23ZM154.5,32v2.71h1.58V32Zm.61,1.94a4.43,4.43,0,0,1-.87.08l0,1.58a6.25,6.25,0,0,0,1.19-.12Zm-.88.08-1.06,0,.05,1.57,1.06,0Zm-1,0h-.54v1.57h.54Zm-.54,0a4.79,4.79,0,0,1-4.19-1.82l-1.28.93a6.36,6.36,0,0,0,5.47,2.46Zm-4.19-1.81a6.87,6.87,0,0,1-1.11-4.12h-1.57a8.4,8.4,0,0,0,1.4,5Zm-1.11-4.12V19.81h-1.57v8.28ZM146.57,19h-2.51V20.6h2.51Zm-1.72.79V18.22h-1.58v1.59Zm-.5-.86,2.51-1-.59-1.47-2.5,1Zm3-1.59.81-4.34-1.55-.29-.81,4.34Zm0-3.69H150V12.09h-2.58Zm1.79-.79v4.34h1.57V12.88ZM150,18h5.42V16.43H150Zm4.63-.78v2.59h1.58V17.22Zm.79,1.8H150V20.6h5.42Zm-6.21.79v8.27h1.57V19.81Zm0,8.27c0,2.26.58,4.08,2.26,4.69l.54-1.49c-.65-.23-1.23-1-1.23-3.2Zm11.49,3.5L160,32h0Zm-.89-2.27-.77.19h0Zm.57-7.27-.7-.36h0Zm2.37-2.91-.48-.62h0Zm10.34-2.08.08-.79h0Zm1.64.17h.79V16.5l-.71-.07Zm0,17.48v.79h.79V34.7Zm-3.05,0-.78,0,0,.74h.73Zm-.13-2,.78-.06-.14-2.12-1.27,1.7Zm-3.1,2-.24-.75h0Zm-4.92-.47-.34.71h0Zm-1.52-1-.53.59h0Zm9.33-13.48h.79V19l-.69-.09Zm-4.45.25.23.75h0Zm-2.09,1.19-.54-.58h0Zm-.25,10-.56.55h0Zm6.3-.37.59.52h0Zm.49-.7.71.35.08-.16v-.19Zm-10,1.08a8.27,8.27,0,0,1-.82-2.07l-1.53.39A10,10,0,0,0,160,32Zm-.82-2.07a14,14,0,0,1-.3-3.21h-1.58A15.11,15.11,0,0,0,159,29.5Zm-.3-3.21A7.59,7.59,0,0,1,161,22.4l-1.4-.71a9.14,9.14,0,0,0-1,4.22Zm.81-3.5a7.83,7.83,0,0,1,2.16-2.66l-1-1.24a9.39,9.39,0,0,0-2.59,3.17Zm2.16-2.66a10.38,10.38,0,0,1,6.55-2V16.16a11.9,11.9,0,0,0-7.52,2.35Zm6.55-2c1.45,0,2.52,0,3.23.1l.14-1.57c-.78-.07-1.91-.1-3.37-.1Zm3.3-.68-.08.78h.1l.31,0,.23,0,.28,0h.34l.38,0,.16-1.57h-.38l-.18,0h-.16l-.14,0h-.26l-.11,0h-.18l-.13,0h-.1Zm.85.17V34.7h1.58V17.22Zm.79,16.69h-3.05v1.58h3.05Zm-2.26.74-.14-2-1.57.11.14,2Zm-1.55-2.44A5.26,5.26,0,0,1,168.17,34l.48,1.5a6.71,6.71,0,0,0,3.49-2.29ZM168.17,34a4.47,4.47,0,0,1-1.41.22v1.58a6,6,0,0,0,1.89-.3Zm-1.41.22a6.71,6.71,0,0,1-1.48-.16L165,35.56a9,9,0,0,0,1.8.19ZM165.28,34a6.2,6.2,0,0,1-1.45-.49l-.68,1.42a8.43,8.43,0,0,0,1.81.62Zm-1.44-.49a6.22,6.22,0,0,1-1.35-.92l-1,1.19a7.83,7.83,0,0,0,1.7,1.15Zm-1.34-.91a6.35,6.35,0,0,1-1.16-1.44L160,32a8.06,8.06,0,0,0,1.45,1.79Zm8.9-13.69a19,19,0,0,0-2.26-.14v1.58a16,16,0,0,1,2.07.13Zm-2.26-.14a8.3,8.3,0,0,0-2.53.43l.48,1.5a6.73,6.73,0,0,1,2-.35Zm-2.52.43a6,6,0,0,0-2.4,1.36l1.08,1.15a4.58,4.58,0,0,1,1.78-1Zm-2.4,1.36a7.56,7.56,0,0,0-2,5.74h1.58c0-2.19.56-3.66,1.54-4.59Zm-2,5.74A7.5,7.5,0,0,0,164,31.73l1.12-1.1a6,6,0,0,1-1.31-4.32ZM164,31.74a4.66,4.66,0,0,0,3.37,1.4V31.56a3.05,3.05,0,0,1-2.25-.94Zm3.37,1.4a5.26,5.26,0,0,0,4.08-1.81l-1.18-1a3.65,3.65,0,0,1-2.9,1.28Zm4.09-1.82a3.83,3.83,0,0,0,.6-.86l-1.41-.7a3.1,3.1,0,0,1-.38.53Zm.68-1.21V19.71h-1.57v10.4Zm20.58,4.54.24.75.55-.17v-.58Zm-7.79-.29-.26.75h0Zm-3-1.79-.54.57h0Zm.51-13.46.49.62Zm10.14-2h.78v-.65l-.64-.12Zm0,3-.25.75,1,.33V20.13Zm-6.27.05.29.73h0Zm-2,1.34-.59-.53h0Zm1.76,10.15.33-.72h0Zm3.88.47-.06-.78h0Zm1.12-.13.13.78h0Zm1.61-.39h.79V30.44l-1.09.45Zm-.24,2.28a12.85,12.85,0,0,1-3.28.28v1.58a13.64,13.64,0,0,0,3.76-.36Zm-3.28.28a12.44,12.44,0,0,1-4-.56l-.51,1.49a14,14,0,0,0,4.53.65Zm-4-.56a7.25,7.25,0,0,1-2.7-1.62l-1.09,1.14a8.87,8.87,0,0,0,3.27,2ZM182.44,32a8.21,8.21,0,0,1-2.32-6.24h-1.57a9.77,9.77,0,0,0,2.8,7.38Zm-2.32-6.24a7.22,7.22,0,0,1,2.77-6l-1-1.24a8.8,8.8,0,0,0-3.36,7.27Zm2.77-6a9.76,9.76,0,0,1,6.26-2V16.16a11.34,11.34,0,0,0-7.24,2.33Zm6.26-2a21.15,21.15,0,0,1,3.24.16l.29-1.55a22.47,22.47,0,0,0-3.53-.18Zm2.6-.62v3h1.57v-3Zm1,2.27a11.3,11.3,0,0,0-3.5-.5v1.58a9.94,9.94,0,0,1,3,.42Zm-3.5-.5a8.42,8.42,0,0,0-3.32.58l.61,1.45a6.94,6.94,0,0,1,2.71-.45Zm-3.31.57A6.18,6.18,0,0,0,183.71,21l1.18,1.06a4.49,4.49,0,0,1,1.67-1.14ZM183.71,21a6.94,6.94,0,0,0-1.64,4.77h1.58a5.29,5.29,0,0,1,1.24-3.71Zm-1.64,4.77a8.38,8.38,0,0,0,.9,4.07,5.87,5.87,0,0,0,2.76,2.56l.66-1.44a4.17,4.17,0,0,1-2-1.87,6.87,6.87,0,0,1-.71-3.32Zm3.66,6.62a5.94,5.94,0,0,0,2.55.6V31.41a4.51,4.51,0,0,1-1.89-.46Zm2.55.6c.73,0,1.31,0,1.73,0l-.14-1.57c-.34,0-.87.05-1.59.05Zm1.73,0c.41,0,.81-.08,1.18-.14l-.25-1.56c-.33.05-.69.1-1.06.13Zm1.18-.14a9.17,9.17,0,0,0,1.78-.44l-.6-1.46a7.19,7.19,0,0,1-1.44.34Zm.69-1.17v3h1.58v-3Zm5.81-22.11V8.72h-.79v.79Zm3.39,0h.79V8.72h-.79Zm0,15.53h-.79v2.05l1.37-1.52Zm7.08-7.82v-.79h-.35l-.24.26Zm4,0,.57.54L214,16.43h-1.84Zm-7.54,7.92-.57-.54-.48.51.44.54Zm7.93,9.56v.79h1.68l-1.07-1.29Zm-4.13,0-.61.51.23.28h.38Zm-7.37-8.91.6-.5-1.39-1.69v2.19Zm0,8.91v.79h.79V34.7Zm-3.39,0h-.79v.79h.79Zm0-24.41h3.39V8.72h-3.39Zm2.6-.78V25h1.58V9.51Zm1.37,16.06,7.08-7.83-1.17-1-7.08,7.82Zm6.5-7.57h4V16.43h-4Zm3.46-1.33-7.54,7.93,1.14,1.09,7.54-7.93Zm-7.58,9L212,35.21l1.22-1-7.93-9.56Zm8.54,8.26h-4.13v1.58h4.13Zm-3.53.29-7.37-8.91-1.21,1,7.37,8.92Zm-8.76-8.41V34.7h1.58V25.79Zm.79,8.12h-3.39v1.58h3.39Zm-2.6.79V9.51H196.9V34.7Z" transform="translate(-2.02 -3.15)"/><path class="cls-3" d="M67.28,11.12v-.79h-.79v.79Zm3.39,0h.79v-.79h-.79Zm0,9.31h-.79v.79h.79Zm11.15,0v.79h.79v-.79Zm0-9.31v-.79H81v.79Zm3.39,0H86v-.79h-.79Zm0,23.58v.79H86V34.7Zm-3.39,0H81v.79h.79Zm0-11.28h.79v-.79h-.79Zm-11.15,0v-.79h-.79v.79Zm0,11.28v.79h.79V34.7Zm-3.39,0h-.79v.79h.79Zm0-22.8h3.39V10.33H67.28Zm2.6-.78v9.31h1.58V11.12Zm.79,10.1H81.82V19.65H70.67Zm11.94-.79V11.12H81v9.31Zm-.79-8.53h3.39V10.33H81.82Zm2.6-.78V34.7H86V11.12Zm.79,22.79H81.82v1.58h3.39Zm-2.6.79V23.42H81V34.7Zm-.79-12.07H70.67v1.58H81.82Zm-11.94.79V34.7h1.58V23.42Zm.79,10.49H67.28v1.58h3.39Zm-2.6.79V11.12H66.49V34.7Zm23.15-3.12-.68.4h0Zm-.89-2.27-.77.19h0ZM90.9,22l-.7-.36h0Zm2.38-2.91-.49-.62h0Zm10.33-2.08.08-.79h0Zm1.65.17H106V16.5l-.7-.07Zm0,17.48v.79H106V34.7Zm-3.05,0-.79,0,0,.74h.74Zm-.14-2,.79-.06-.15-2.12-1.27,1.7Zm-3.1,2L98.73,34h0Zm-4.92-.47-.34.71h0Zm-1.52-1-.53.59h0Zm9.34-13.48h.78V19l-.69-.09ZM97.41,20l.23.75h0Zm-2.08,1.19-.54-.58h0Zm-.26,10-.56.55h0Zm6.31-.37.58.52h0Zm.49-.7.7.35.08-.16v-.19Zm-10,1.08a8.27,8.27,0,0,1-.82-2.07l-1.53.39a10,10,0,0,0,1,2.47Zm-.82-2.07a14,14,0,0,1-.3-3.21H89.22a15.72,15.72,0,0,0,.34,3.59Zm-.3-3.21a7.6,7.6,0,0,1,.82-3.51l-1.41-.71a9.13,9.13,0,0,0-1,4.22Zm.81-3.5a8,8,0,0,1,2.16-2.66l-1-1.24a9.39,9.39,0,0,0-2.59,3.17Zm2.16-2.66a10.38,10.38,0,0,1,6.55-2V16.16a11.9,11.9,0,0,0-7.52,2.35Zm6.55-2c1.45,0,2.52,0,3.23.1l.14-1.57c-.78-.07-1.91-.1-3.37-.1Zm3.3-.68-.08.78h.1l.31,0,.23,0,.29,0h.33l.38,0,.17-1.57H105l-.17,0h-.16l-.15,0h-.26l-.11,0h-.18l-.13,0h-.1Zm.86.17V34.7H106V17.22Zm.79,16.69h-3.05v1.58h3.05Zm-2.27.74-.13-2-1.58.11.14,2Zm-1.55-2.44A5.26,5.26,0,0,1,98.73,34l.48,1.5a6.71,6.71,0,0,0,3.49-2.29ZM98.73,34a4.43,4.43,0,0,1-1.41.22v1.58a6,6,0,0,0,1.89-.3Zm-1.41.22A6.77,6.77,0,0,1,95.84,34l-.32,1.55a9.17,9.17,0,0,0,1.8.19ZM95.84,34a6.2,6.2,0,0,1-1.45-.49l-.68,1.42a8.43,8.43,0,0,0,1.81.62Zm-1.44-.49a6.22,6.22,0,0,1-1.35-.92l-1,1.19a7.83,7.83,0,0,0,1.7,1.15Zm-1.34-.91a6.35,6.35,0,0,1-1.16-1.44L90.55,32A8.06,8.06,0,0,0,92,33.78ZM102,18.92a19,19,0,0,0-2.26-.14v1.58a16,16,0,0,1,2.07.13Zm-2.26-.14a8.3,8.3,0,0,0-2.53.43l.48,1.5a6.73,6.73,0,0,1,2-.35Zm-2.52.43a6,6,0,0,0-2.39,1.36l1.08,1.15a4.47,4.47,0,0,1,1.77-1Zm-2.4,1.36a7.56,7.56,0,0,0-2,5.74h1.58c0-2.19.56-3.66,1.55-4.59Zm-2,5.74a7.5,7.5,0,0,0,1.77,5.42l1.12-1.1a6,6,0,0,1-1.31-4.32Zm1.77,5.43a4.66,4.66,0,0,0,3.37,1.4V31.56a3.05,3.05,0,0,1-2.25-.94Zm3.37,1.4A5.26,5.26,0,0,0,102,31.33l-1.17-1a3.69,3.69,0,0,1-2.91,1.28ZM102,31.32a3.83,3.83,0,0,0,.6-.86l-1.41-.7a3.1,3.1,0,0,1-.38.53Zm.68-1.21V19.71h-1.57v10.4ZM110,39l.22-.76-1-.3V39Zm2.86-.19-.27-.74h0Zm1.44-.86-.53-.59h0Zm1.85-2.88.73.31.12-.3-.12-.31Zm-7.19-17.89v-.79h-1.16l.43,1.08Zm3.61,0,.75-.27-.19-.52h-.56Zm5,13.92-.74.27.79,2.16.7-2.18Zm4.53-13.92v-.79h-.57l-.18.54Zm3.57,0,.74.27.39-1.06h-1.13Zm-7.18,19.63.74.28h0Zm-2.26,3.38.5.61h0Zm-5.65,1.49.08-.79h0Zm-.63-.07h-.79v.71l.7.07Zm-.23-1.85a5.38,5.38,0,0,0,1.47.16V38.39a3.72,3.72,0,0,1-1-.11Zm1.47.16a5.44,5.44,0,0,0,1.91-.37l-.57-1.47a3.8,3.8,0,0,1-1.34.27Zm1.89-.37a4.93,4.93,0,0,0,1.71-1l-1.07-1.16a3.55,3.55,0,0,1-1.18.7Zm1.7-1a8.92,8.92,0,0,0,2-3.16l-1.46-.62a7.22,7.22,0,0,1-1.65,2.6Zm2-3.77-7.18-17.89-1.47.59,7.19,17.89ZM108.91,18h3.61V16.43h-3.61Zm2.87-.52,5,13.93,1.48-.54-5-13.92Zm6.54,13.91,4.53-13.93-1.5-.49L116.82,30.9ZM122.1,18h3.57V16.43H122.1Zm2.83-1.06-7.18,19.64,1.48.54,7.18-19.63Zm-7.18,19.64a6.9,6.9,0,0,1-2,3l1,1.23a8.42,8.42,0,0,0,2.5-3.71Zm-2,3A7,7,0,0,1,111.17,41v1.58a8.62,8.62,0,0,0,5.56-1.7ZM111.17,41l-.51,0-.17,1.57a5.27,5.27,0,0,0,.68,0Zm-.51,0-.63-.06-.17,1.56.63.07Zm.08.72V39h-1.58v2.61Zm17.32-7h-.79v.68l.68.1Zm0-3,.19-.77-1-.23v1Zm8.66-2.47-.57.54h0Zm-1.66-1.12.35-.71h0Zm-2.47-1.14-.36.71h0ZM129.47,25l.56-.55h0Zm.61-6.64-.44-.66h0Zm9.76-1.15h.79v-.69l-.68-.1Zm0,2.89-.14.78.93.17v-.95Zm-6.19-.18-.17-.77h0Zm-1.3.5.44.66h0Zm-.22,2.46-.56.56h0Zm1.52,1-.36.7h0Zm2.49,1.2.37-.7h0ZM139.28,27l-.55.57h0Zm-.78,6.59-.41-.67h0Zm-6.15.55a29.78,29.78,0,0,1-4.18-.29L128,35.45a31.31,31.31,0,0,0,4.4.31Zm-3.5.49v-3h-1.58v3Zm-1-2.23a20.26,20.26,0,0,0,4.66.54V31.41a18.11,18.11,0,0,1-4.29-.51Zm4.66.54a10,10,0,0,0,3.71-.54,2.81,2.81,0,0,0,1.16-.83,2.09,2.09,0,0,0,.46-1.33h-1.58a.5.5,0,0,1-.12.35,1.39,1.39,0,0,1-.54.36,8.34,8.34,0,0,1-3.09.42Zm5.33-2.7a2.25,2.25,0,0,0-.59-1.64l-1.12,1.11s.13.16.13.53Zm-.58-1.62a6.38,6.38,0,0,0-1.88-1.29l-.7,1.41a5.15,5.15,0,0,1,1.44,1Zm-1.9-1.3-2.47-1.14-.66,1.44,2.47,1.13Zm-2.45-1.12A12.8,12.8,0,0,1,130,24.46l-1.13,1.1a13.93,13.93,0,0,0,3.33,2.09ZM130,24.46a3.65,3.65,0,0,1-1.11-2.67h-1.58a5.17,5.17,0,0,0,1.57,3.77Zm-1.11-2.67a3.22,3.22,0,0,1,1.6-2.77l-.88-1.31a4.77,4.77,0,0,0-2.3,4.08Zm1.6-2.77A9.66,9.66,0,0,1,136,17.73V16.16a11.2,11.2,0,0,0-6.34,1.55ZM136,17.73a26.59,26.59,0,0,1,3.75.27l.22-1.57a29.76,29.76,0,0,0-4-.27Zm3.07-.51v2.89h1.58V17.22Zm.93,2.12a21.54,21.54,0,0,0-3.87-.41v1.58a20,20,0,0,1,3.59.38Zm-3.87-.41a11.86,11.86,0,0,0-2.63.23l.35,1.54a10.39,10.39,0,0,1,2.28-.19Zm-2.64.23a4.49,4.49,0,0,0-1.57.63l.9,1.29a3.26,3.26,0,0,1,1-.39Zm-1.57.62a2.23,2.23,0,0,0-1,1.89h1.57a.66.66,0,0,1,.35-.58Zm-1,1.89a2.44,2.44,0,0,0,.7,1.78l1.12-1.12a.86.86,0,0,1-.25-.66Zm.72,1.8a8.06,8.06,0,0,0,1.7,1.12l.73-1.4a6.37,6.37,0,0,1-1.35-.88Zm1.72,1.13,2.49,1.21.69-1.43L134,23.18Zm2.47,1.19a15.25,15.25,0,0,1,2.95,1.82l1.1-1.13a16.18,16.18,0,0,0-3.32-2.09Zm2.95,1.82a3.53,3.53,0,0,1,1.08,2.67h1.58a5.11,5.11,0,0,0-1.56-3.8Zm1.08,2.67A3,3,0,0,1,138.09,33l.82,1.35a4.6,4.6,0,0,0,2.48-4ZM138.09,33a11.09,11.09,0,0,1-5.74,1.22v1.58a12.61,12.61,0,0,0,6.56-1.45ZM151.7,32l.27-.74h0Zm3.59-.06h.79V30.84l-1.05.37Zm0,2.71.18.77.61-.15v-.62Zm-1,.1,0-.79h0Zm-1.07,0v.79h0Zm-5.37-2.13-.64.46h0Zm-1.25-12.86h.78V19h-.78Zm-2.51,0h-.79v.79h.79Zm0-1.59-.29-.74-.5.2v.54Zm2.51-1,.29.73.4-.16.08-.43Zm.81-4.34v-.79h-.66l-.12.64Zm2.58,0h.78v-.79H150Zm0,4.34h-.79V18H150Zm5.42,0h.79v-.79h-.79Zm0,2.59v.79h.79v-.79Zm-5.42,0V19h-.79v.79Zm1.47,13a6.11,6.11,0,0,0,2,.25V31.44a4.45,4.45,0,0,1-1.42-.16Zm2,.25a6.52,6.52,0,0,0,2.17-.32L155,31.21a4.77,4.77,0,0,1-1.64.23ZM154.5,32v2.71h1.58V32Zm.61,1.94a4.43,4.43,0,0,1-.87.08l0,1.58a6.25,6.25,0,0,0,1.19-.12Zm-.88.08-1.06,0,.05,1.57,1.06,0Zm-1,0h-.54v1.57h.54Zm-.54,0a4.79,4.79,0,0,1-4.19-1.82l-1.28.93a6.36,6.36,0,0,0,5.47,2.46Zm-4.19-1.81a6.87,6.87,0,0,1-1.11-4.12h-1.57a8.4,8.4,0,0,0,1.4,5Zm-1.11-4.12V19.81h-1.57v8.28ZM146.57,19h-2.51V20.6h2.51Zm-1.72.79V18.22h-1.58v1.59Zm-.5-.86,2.51-1-.59-1.47-2.5,1Zm3-1.59.81-4.34-1.55-.29-.81,4.34Zm0-3.69H150V12.09h-2.58Zm1.79-.79v4.34h1.57V12.88ZM150,18h5.42V16.43H150Zm4.63-.78v2.59h1.58V17.22Zm.79,1.8H150V20.6h5.42Zm-6.21.79v8.27h1.57V19.81Zm0,8.27c0,2.26.58,4.08,2.26,4.69l.54-1.49c-.65-.23-1.23-1-1.23-3.2Zm11.49,3.5L160,32h0Zm-.89-2.27-.77.19h0Zm.57-7.27-.7-.36h0Zm2.37-2.91-.48-.62h0Zm10.34-2.08.08-.79h0Zm1.64.17h.79V16.5l-.71-.07Zm0,17.48v.79h.79V34.7Zm-3.05,0-.78,0,0,.74h.73Zm-.13-2,.78-.06-.14-2.12-1.27,1.7Zm-3.1,2-.24-.75h0Zm-4.92-.47-.34.71h0Zm-1.52-1-.53.59h0Zm9.33-13.48h.79V19l-.69-.09Zm-4.45.25.23.75h0Zm-2.09,1.19-.54-.58h0Zm-.25,10-.56.55h0Zm6.3-.37.59.52h0Zm.49-.7.71.35.08-.16v-.19Zm-10,1.08a8.27,8.27,0,0,1-.82-2.07l-1.53.39A10,10,0,0,0,160,32Zm-.82-2.07a14,14,0,0,1-.3-3.21h-1.58A15.11,15.11,0,0,0,159,29.5Zm-.3-3.21A7.59,7.59,0,0,1,161,22.4l-1.4-.71a9.14,9.14,0,0,0-1,4.22Zm.81-3.5a7.83,7.83,0,0,1,2.16-2.66l-1-1.24a9.39,9.39,0,0,0-2.59,3.17Zm2.16-2.66a10.38,10.38,0,0,1,6.55-2V16.16a11.9,11.9,0,0,0-7.52,2.35Zm6.55-2c1.45,0,2.52,0,3.23.1l.14-1.57c-.78-.07-1.91-.1-3.37-.1Zm3.3-.68-.08.78h.1l.31,0,.23,0,.28,0h.34l.38,0,.16-1.57h-.38l-.18,0h-.16l-.14,0h-.26l-.11,0h-.18l-.13,0h-.1Zm.85.17V34.7h1.58V17.22Zm.79,16.69h-3.05v1.58h3.05Zm-2.26.74-.14-2-1.57.11.14,2Zm-1.55-2.44A5.26,5.26,0,0,1,168.17,34l.48,1.5a6.71,6.71,0,0,0,3.49-2.29ZM168.17,34a4.47,4.47,0,0,1-1.41.22v1.58a6,6,0,0,0,1.89-.3Zm-1.41.22a6.71,6.71,0,0,1-1.48-.16L165,35.56a9,9,0,0,0,1.8.19ZM165.28,34a6.2,6.2,0,0,1-1.45-.49l-.68,1.42a8.43,8.43,0,0,0,1.81.62Zm-1.44-.49a6.22,6.22,0,0,1-1.35-.92l-1,1.19a7.83,7.83,0,0,0,1.7,1.15Zm-1.34-.91a6.35,6.35,0,0,1-1.16-1.44L160,32a8.06,8.06,0,0,0,1.45,1.79Zm8.9-13.69a19,19,0,0,0-2.26-.14v1.58a16,16,0,0,1,2.07.13Zm-2.26-.14a8.3,8.3,0,0,0-2.53.43l.48,1.5a6.73,6.73,0,0,1,2-.35Zm-2.52.43a6,6,0,0,0-2.4,1.36l1.08,1.15a4.58,4.58,0,0,1,1.78-1Zm-2.4,1.36a7.56,7.56,0,0,0-2,5.74h1.58c0-2.19.56-3.66,1.54-4.59Zm-2,5.74A7.5,7.5,0,0,0,164,31.73l1.12-1.1a6,6,0,0,1-1.31-4.32ZM164,31.74a4.66,4.66,0,0,0,3.37,1.4V31.56a3.05,3.05,0,0,1-2.25-.94Zm3.37,1.4a5.26,5.26,0,0,0,4.08-1.81l-1.18-1a3.65,3.65,0,0,1-2.9,1.28Zm4.09-1.82a3.83,3.83,0,0,0,.6-.86l-1.41-.7a3.1,3.1,0,0,1-.38.53Zm.68-1.21V19.71h-1.57v10.4Zm20.58,4.54.24.75.55-.17v-.58Zm-7.79-.29-.26.75h0Zm-3-1.79-.54.57h0Zm.51-13.46.49.62Zm10.14-2h.78v-.65l-.64-.12Zm0,3-.25.75,1,.33V20.13Zm-6.27.05.29.73h0Zm-2,1.34-.59-.53h0Zm1.76,10.15.33-.72h0Zm3.88.47-.06-.78h0Zm1.12-.13.13.78h0Zm1.61-.39h.79V30.44l-1.09.45Zm-.24,2.28a12.85,12.85,0,0,1-3.28.28v1.58a13.64,13.64,0,0,0,3.76-.36Zm-3.28.28a12.44,12.44,0,0,1-4-.56l-.51,1.49a14,14,0,0,0,4.53.65Zm-4-.56a7.25,7.25,0,0,1-2.7-1.62l-1.09,1.14a8.87,8.87,0,0,0,3.27,2ZM182.44,32a8.21,8.21,0,0,1-2.32-6.24h-1.57a9.77,9.77,0,0,0,2.8,7.38Zm-2.32-6.24a7.22,7.22,0,0,1,2.77-6l-1-1.24a8.8,8.8,0,0,0-3.36,7.27Zm2.77-6a9.76,9.76,0,0,1,6.26-2V16.16a11.34,11.34,0,0,0-7.24,2.33Zm6.26-2a21.15,21.15,0,0,1,3.24.16l.29-1.55a22.47,22.47,0,0,0-3.53-.18Zm2.6-.62v3h1.57v-3Zm1,2.27a11.3,11.3,0,0,0-3.5-.5v1.58a9.94,9.94,0,0,1,3,.42Zm-3.5-.5a8.42,8.42,0,0,0-3.32.58l.61,1.45a6.94,6.94,0,0,1,2.71-.45Zm-3.31.57A6.18,6.18,0,0,0,183.71,21l1.18,1.06a4.49,4.49,0,0,1,1.67-1.14ZM183.71,21a6.94,6.94,0,0,0-1.64,4.77h1.58a5.29,5.29,0,0,1,1.24-3.71Zm-1.64,4.77a8.38,8.38,0,0,0,.9,4.07,5.87,5.87,0,0,0,2.76,2.56l.66-1.44a4.17,4.17,0,0,1-2-1.87,6.87,6.87,0,0,1-.71-3.32Zm3.66,6.62a5.94,5.94,0,0,0,2.55.6V31.41a4.51,4.51,0,0,1-1.89-.46Zm2.55.6c.73,0,1.31,0,1.73,0l-.14-1.57c-.34,0-.87.05-1.59.05Zm1.73,0c.41,0,.81-.08,1.18-.14l-.25-1.56c-.33.05-.69.1-1.06.13Zm1.18-.14a9.17,9.17,0,0,0,1.78-.44l-.6-1.46a7.19,7.19,0,0,1-1.44.34Zm.69-1.17v3h1.58v-3Zm5.81-22.11V8.72h-.79v.79Zm3.39,0h.79V8.72h-.79Zm0,15.53h-.79v2.05l1.37-1.52Zm7.08-7.82v-.79h-.35l-.24.26Zm4,0,.57.54L214,16.43h-1.84Zm-7.54,7.92-.57-.54-.48.51.44.54Zm7.93,9.56v.79h1.68l-1.07-1.29Zm-4.13,0-.61.51.23.28h.38Zm-7.37-8.91.6-.5-1.39-1.69v2.19Zm0,8.91v.79h.79V34.7Zm-3.39,0h-.79v.79h.79Zm0-24.41h3.39V8.72h-3.39Zm2.6-.78V25h1.58V9.51Zm1.37,16.06,7.08-7.83-1.17-1-7.08,7.82Zm6.5-7.57h4V16.43h-4Zm3.46-1.33-7.54,7.93,1.14,1.09,7.54-7.93Zm-7.58,9L212,35.21l1.22-1-7.93-9.56Zm8.54,8.26h-4.13v1.58h4.13Zm-3.53.29-7.37-8.91-1.21,1,7.37,8.92Zm-8.76-8.41V34.7h1.58V25.79Zm.79,8.12h-3.39v1.58h3.39Zm-2.6.79V9.51H196.9V34.7Z" transform="translate(-2.02 -3.15)"/><path class="cls-5" d="M223.35,11.12h2.32l10,23.58h-3.53l-2.39-5.93H219.23l-2.37,5.93H213.4Zm5.27,14.94-4.14-10.34-4.15,10.34Zm18-6.2a6.63,6.63,0,0,0-4.49,1.71V34.7h-3.39V17.22h3.13l.24,1.89a9.2,9.2,0,0,1,5.71-2.17,5.48,5.48,0,0,1,4.58,1.87q1.51,2,1.52,6.33V34.7h-3.39V25.14c0-2.8-.75-4.47-2.27-5A4.66,4.66,0,0,0,246.6,19.86Zm13.16,11.72a8.88,8.88,0,0,1-.89-2.27,14.27,14.27,0,0,1-.33-3.4,8.41,8.41,0,0,1,.9-3.87,8.72,8.72,0,0,1,2.37-2.91,11.16,11.16,0,0,1,7-2.19c1.45,0,2.56,0,3.3.11l1.64.17V34.7h-3.05l-.13-2a6,6,0,0,1-3.1,2,5.37,5.37,0,0,1-1.65.26,8.23,8.23,0,0,1-1.64-.17,7.5,7.5,0,0,1-1.63-.56,6.74,6.74,0,0,1-1.52-1A7.08,7.08,0,0,1,259.76,31.58Zm10.65-11.87a17.69,17.69,0,0,0-2.17-.14A7.54,7.54,0,0,0,266,20a5.15,5.15,0,0,0-2.09,1.19,6.8,6.8,0,0,0-1.79,5.16,6.71,6.71,0,0,0,1.54,4.87,3.84,3.84,0,0,0,2.81,1.17,4.47,4.47,0,0,0,3.49-1.54,4.29,4.29,0,0,0,.5-.7ZM280,9.49h3.38V28.08c0,2.23.51,3.55,1.53,3.94a2.81,2.81,0,0,0,1.08.21,3.69,3.69,0,0,0,1-.14V34.7l-.63.07-.59,0a5.26,5.26,0,0,1-4.7-2.13A8.23,8.23,0,0,1,280,28.09ZM290.08,39a4.65,4.65,0,0,0,2.86-.19,4.35,4.35,0,0,0,1.44-.86,8.13,8.13,0,0,0,1.85-2.88L289,17.22h3.61l5.05,13.92,4.53-13.92h3.57l-7.18,19.63a7.63,7.63,0,0,1-2.26,3.38,7.87,7.87,0,0,1-5.06,1.52l-.59,0-.63-.07Zm24.4-7a5.11,5.11,0,0,0,1.69.21,5.75,5.75,0,0,0,1.9-.27v2.71a5.82,5.82,0,0,1-1,.1l-1.07,0h-.54a5.59,5.59,0,0,1-4.83-2.13,7.6,7.6,0,0,1-1.26-4.58V19.81h-2.5V18.22l2.5-1,.82-4.34h2.57v4.34h5.42v2.59h-5.42v8.27C312.73,30.29,313.31,31.61,314.48,32Zm12.13-19.89a1.81,1.81,0,0,1-.65,1.49,2.39,2.39,0,0,1-1.57.51,2.44,2.44,0,0,1-1.58-.51,1.86,1.86,0,0,1-.6-1.49,1.85,1.85,0,0,1,.6-1.49,2.44,2.44,0,0,1,1.58-.51,2.39,2.39,0,0,1,1.57.51A1.79,1.79,0,0,1,326.61,12.13Zm-4,5.09H326V34.7h-3.39Zm21.29,17.43a17,17,0,0,1-7.8-.29,8,8,0,0,1-3-1.79,9,9,0,0,1-2.56-6.81,8,8,0,0,1,3.07-6.65,10.58,10.58,0,0,1,6.74-2.17,22.51,22.51,0,0,1,3.39.17v3a10.76,10.76,0,0,0-3.25-.46,7.77,7.77,0,0,0-3,.51,5.42,5.42,0,0,0-2,1.34,6.15,6.15,0,0,0-1.43,4.24c0,2.95,1.06,4.93,3.2,5.91a5.25,5.25,0,0,0,2.22.52c.72,0,1.27,0,1.66,0s.77-.07,1.12-.13a9.19,9.19,0,0,0,1.61-.39Zm9,.32a31.12,31.12,0,0,1-4.28-.3v-3a19.23,19.23,0,0,0,4.47.52c3,0,4.54-.63,4.54-1.91a1.48,1.48,0,0,0-.35-1.08,5.72,5.72,0,0,0-1.66-1.12l-2.48-1.14A13.13,13.13,0,0,1,350.09,25a4.43,4.43,0,0,1-1.33-3.22,4,4,0,0,1,1.95-3.42,10.4,10.4,0,0,1,5.89-1.43,26.48,26.48,0,0,1,3.86.28v2.89a21,21,0,0,0-3.72-.39,11.2,11.2,0,0,0-2.46.21,3.93,3.93,0,0,0-1.31.5,1.45,1.45,0,0,0-.69,1.24,1.63,1.63,0,0,0,.48,1.22,6.73,6.73,0,0,0,1.52,1l2.49,1.2A15.8,15.8,0,0,1,359.91,27a4.34,4.34,0,0,1,1.32,3.24,3.79,3.79,0,0,1-2.1,3.35A11.81,11.81,0,0,1,353,35Z" transform="translate(-2.02 -3.15)"/><path class="cls-4" d="M223.35,11.12v-.79h-.52l-.21.48Zm2.32,0,.73-.31-.21-.48h-.52Zm10,23.58v.79h1.19l-.47-1.09Zm-3.53,0-.73.3.2.49h.53Zm-2.39-5.93.74-.29-.2-.5h-.54Zm-10.47,0V28h-.53l-.2.5Zm-2.37,5.93v.79h.53l.2-.49Zm-3.46,0-.72-.3-.46,1.09h1.18Zm15.22-8.64v.79h1.17l-.44-1.08Zm-4.14-10.34.74-.29-.73-1.83-.74,1.83Zm-4.15,10.34-.73-.29-.43,1.08h1.16Zm3-14.16h2.32V10.33h-2.32Zm1.6-.48L234.89,35l1.45-.61L226.4,10.81Zm10.67,22.49h-3.53v1.58h3.53Zm-2.8.5-2.38-5.93-1.47.59L231.36,35ZM229.7,28H219.23v1.58H229.7Zm-11.2.5-2.37,5.93,1.46.59L220,29.06Zm-1.64,5.43H213.4v1.58h3.46ZM214.13,35l10-23.59-1.46-.61L212.68,34.4Zm15.22-9.24-4.13-10.34-1.47.59,4.14,10.33Zm-5.6-10.34L219.6,25.77l1.47.58L225.22,16Zm-3.42,11.42h8.29V25.27h-8.29Zm21.78-5.28-.52-.59-.27.23v.36Zm0,13.13v.79h.79V34.7Zm-3.39,0h-.79v.79h.79Zm0-17.48v-.79h-.79v.79Zm3.13,0,.78-.1-.08-.69h-.7Zm.24,1.89-.78.1.17,1.38,1.1-.86Zm10.29-.3.62-.49h0ZM253.9,34.7v.79h.79V34.7Zm-3.39,0h-.79v.79h.79Zm-2.27-14.57-.27.74h0Zm-1.64-1.06a7.4,7.4,0,0,0-5,1.91l1,1.19a5.8,5.8,0,0,1,4-1.52Zm-5.28,2.5V34.7h1.58V21.57Zm.79,12.34h-3.39v1.58h3.39Zm-2.6.79V17.22h-1.58V34.7ZM238.72,18h3.13V16.43h-3.13Zm2.35-.69.24,1.9,1.56-.19-.24-1.9Zm1.51,2.42a8.34,8.34,0,0,1,5.22-2V16.16a10,10,0,0,0-6.2,2.33Zm5.22-2a4.67,4.67,0,0,1,3.95,1.56l1.25-1a6.23,6.23,0,0,0-5.2-2.16Zm3.95,1.56c.86,1.1,1.36,3,1.36,5.85h1.58c0-3-.51-5.3-1.69-6.82Zm1.36,5.85V34.7h1.58V25.14Zm.79,8.77h-3.39v1.58h3.39Zm-2.6.79V25.14h-1.58V34.7Zm0-9.56c0-2.86-.77-5-2.79-5.75L248,20.87c1,.36,1.75,1.53,1.75,4.27Zm-2.78-5.75a5.45,5.45,0,0,0-1.92-.32v1.58a4,4,0,0,1,1.37.22Zm11.24,12.19-.68.4h0Zm-.89-2.27-.77.19h0Zm.57-7.27-.7-.36h0Zm2.37-2.91-.48-.62h0Zm10.34-2.08.08-.79h0Zm1.64.17h.79V16.5l-.71-.07Zm0,17.48v.79h.79V34.7Zm-3.05,0-.78,0,.05.74h.73Zm-.13-2,.79-.06-.15-2.12L270,32.21Zm-3.1,2-.24-.75h0Zm-4.92-.47-.34.71h0Zm-1.52-1-.53.59h0Zm9.34-13.48h.78V19l-.69-.09ZM266,20l.23.75h0Zm-2.09,1.19-.54-.58h0Zm-.25,10-.56.55h0Zm6.3-.37.59.52h0Zm.5-.7.7.35.08-.16v-.19Zm-10,1.08a8.27,8.27,0,0,1-.82-2.07l-1.53.39a10,10,0,0,0,1,2.47Zm-.82-2.07a14,14,0,0,1-.3-3.21h-1.58a15.11,15.11,0,0,0,.35,3.59Zm-.3-3.21a7.72,7.72,0,0,1,.81-3.51l-1.4-.71a9.14,9.14,0,0,0-1,4.22Zm.81-3.5a8,8,0,0,1,2.16-2.66l-1-1.24a9.39,9.39,0,0,0-2.59,3.17Zm2.16-2.66a10.38,10.38,0,0,1,6.55-2V16.16a11.9,11.9,0,0,0-7.52,2.35Zm6.55-2c1.45,0,2.52,0,3.23.1l.14-1.57c-.78-.07-1.91-.1-3.37-.1Zm3.3-.68-.08.78h.1l.31,0,.23,0,.28,0h.34l.38,0,.16-1.57h-.38l-.17,0h-.16l-.15,0h-.26l-.11,0h-.18l-.13,0h-.1Zm.86.17V34.7h1.57V17.22Zm.78,16.69h-3.05v1.58h3.05Zm-2.26.74-.13-2-1.58.11.14,2ZM270,32.21A5.26,5.26,0,0,1,267.27,34l.48,1.5a6.71,6.71,0,0,0,3.49-2.29ZM267.27,34a4.47,4.47,0,0,1-1.41.22v1.58a6,6,0,0,0,1.89-.3Zm-1.41.22a6.71,6.71,0,0,1-1.48-.16l-.32,1.55a9.09,9.09,0,0,0,1.8.19ZM264.38,34a6.2,6.2,0,0,1-1.45-.49l-.68,1.42a8.43,8.43,0,0,0,1.81.62Zm-1.44-.49a6.22,6.22,0,0,1-1.35-.92l-1,1.19a7.83,7.83,0,0,0,1.7,1.15Zm-1.34-.91a6.35,6.35,0,0,1-1.16-1.44l-1.35.82a8.06,8.06,0,0,0,1.45,1.79Zm8.9-13.69a19,19,0,0,0-2.26-.14v1.58a16,16,0,0,1,2.07.13Zm-2.26-.14a8.3,8.3,0,0,0-2.53.43l.48,1.5a6.73,6.73,0,0,1,2.05-.35Zm-2.52.43a6,6,0,0,0-2.4,1.36l1.08,1.15a4.58,4.58,0,0,1,1.78-1Zm-2.4,1.36a7.56,7.56,0,0,0-2,5.74h1.58c0-2.19.56-3.66,1.54-4.59Zm-2,5.74a7.5,7.5,0,0,0,1.77,5.42l1.12-1.1a6,6,0,0,1-1.31-4.32Zm1.77,5.43a4.66,4.66,0,0,0,3.37,1.4V31.56a3.05,3.05,0,0,1-2.25-.94Zm3.37,1.4a5.26,5.26,0,0,0,4.08-1.81l-1.18-1a3.65,3.65,0,0,1-2.9,1.28Zm4.09-1.82a3.83,3.83,0,0,0,.6-.86l-1.41-.7a3.1,3.1,0,0,1-.38.53Zm.68-1.21V19.71h-1.57v10.4ZM280,9.49V8.7h-.79v.79Zm3.38,0h.79V8.7h-.79ZM284.86,32l.29-.73h0Zm2.12.07h.79V31l-1,.3Zm0,2.61.08.79.71-.08V34.7Zm-.63.07-.09-.78h0Zm-5.29-2.1-.65.44h0ZM280,10.28h3.38V8.7H280Zm2.59-.79V28.08h1.58V9.49Zm0,18.59a8.45,8.45,0,0,0,.44,3,2.84,2.84,0,0,0,1.59,1.73l.57-1.47a1.33,1.33,0,0,1-.69-.83,6.94,6.94,0,0,1-.33-2.38Zm2,4.68a3.71,3.71,0,0,0,1.37.26V31.44a2,2,0,0,1-.79-.15Zm1.37.26a4.62,4.62,0,0,0,1.26-.17l-.45-1.51a3,3,0,0,1-.81.1Zm.25-.93V34.7h1.58V32.09Zm.7,1.83-.63.07.18,1.56.62-.06Zm-.63.07-.5,0v1.57a5.27,5.27,0,0,0,.68,0Zm-.5,0a4.46,4.46,0,0,1-4-1.79l-1.31.88a6,6,0,0,0,5.35,2.48Zm-4-1.79a7.39,7.39,0,0,1-1-4.14h-1.57a8.89,8.89,0,0,0,1.25,5Zm-1-4.14V9.49h-1.57v18.6Zm9.35,11,.22-.76-1-.3V39Zm2.86-.19-.27-.74h0Zm1.44-.86-.53-.59h0Zm1.85-2.88.72.31.13-.3-.12-.31ZM289,17.22v-.79h-1.16l.43,1.08Zm3.61,0,.74-.27-.18-.52h-.56Zm5.05,13.92-.74.27.78,2.16.71-2.18Zm4.53-13.92v-.79h-.58l-.17.54Zm3.57,0,.74.27.39-1.06H305.8Zm-7.18,19.63.74.28h0Zm-2.26,3.38.5.61h0Zm-5.65,1.49.08-.79h0Zm-.63-.07h-.79v.71l.7.07Zm-.23-1.85a5.35,5.35,0,0,0,1.46.16V38.39a3.69,3.69,0,0,1-1-.11Zm1.46.16a5.45,5.45,0,0,0,1.92-.37l-.57-1.47a3.81,3.81,0,0,1-1.35.27Zm1.9-.37a4.8,4.8,0,0,0,1.7-1l-1.06-1.16a3.55,3.55,0,0,1-1.18.7Zm1.7-1a8.77,8.77,0,0,0,2-3.16l-1.45-.62a7.22,7.22,0,0,1-1.65,2.6Zm2-3.77-7.18-17.89-1.47.59L295.5,35.4ZM289,18h3.61V16.43H289Zm2.87-.52,5,13.93,1.48-.54L293.39,17Zm6.54,13.91L303,17.46l-1.5-.49L297,30.9ZM302.23,18h3.57V16.43h-3.57Zm2.83-1.06-7.18,19.64,1.48.54,7.18-19.63Zm-7.18,19.64a6.9,6.9,0,0,1-2,3l1,1.23a8.42,8.42,0,0,0,2.5-3.71Zm-2,3A7,7,0,0,1,291.3,41v1.58a8.65,8.65,0,0,0,5.56-1.7ZM291.3,41l-.51,0-.17,1.57a5.27,5.27,0,0,0,.68,0Zm-.51,0-.63-.06L290,42.43l.63.07Zm.08.72V39h-1.58v2.61ZM314.48,32l.27-.74h0Zm3.59-.06h.79V30.84l-1.06.37Zm0,2.71.18.77.61-.15v-.62Zm-1,.1,0-.79h0Zm-1.07,0v.79h0Zm-5.37-2.13-.64.46h0Zm-1.26-12.86h.79V19h-.79Zm-2.5,0H306v.79h.8Zm0-1.59-.3-.74-.5.2v.54Zm2.5-1,.29.73.41-.16.08-.43Zm.82-4.34v-.79h-.66l-.12.64Zm2.57,0h.79v-.79h-.79Zm0,4.34h-.79V18h.79Zm5.42,0h.79v-.79h-.79Zm0,2.59v.79h.79v-.79Zm-5.42,0V19h-.79v.79Zm1.48,13a6.07,6.07,0,0,0,2,.25V31.44a4.45,4.45,0,0,1-1.42-.16Zm2,.25a6.46,6.46,0,0,0,2.16-.32l-.53-1.49a4.67,4.67,0,0,1-1.63.23ZM317.28,32v2.71h1.58V32Zm.61,1.94A4.43,4.43,0,0,1,317,34l0,1.58a6.43,6.43,0,0,0,1.19-.12ZM317,34l-1.07,0,.05,1.57,1.07,0Zm-1,0h-.54v1.57H316Zm-.54,0a4.82,4.82,0,0,1-4.2-1.82l-1.27.93a6.35,6.35,0,0,0,5.47,2.46Zm-4.19-1.81a6.87,6.87,0,0,1-1.11-4.12h-1.58a8.4,8.4,0,0,0,1.41,5Zm-1.11-4.12V19.81h-1.58v8.28ZM309.34,19h-2.5V20.6h2.5Zm-1.72.79V18.22H306v1.59Zm-.49-.86,2.5-1-.58-1.47-2.51,1Zm3-1.59.81-4.34-1.55-.29-.81,4.34Zm0-3.69h2.57V12.09h-2.57Zm1.78-.79v4.34h1.58V12.88Zm.79,5.12h5.42V16.43h-5.42Zm4.64-.78v2.59h1.57V17.22Zm.78,1.8h-5.42V20.6h5.42Zm-6.21.79v8.27h1.58V19.81Zm0,8.27c0,2.26.59,4.08,2.27,4.69l.53-1.49c-.64-.23-1.22-1-1.22-3.2Zm14-14.46.5.62h0Zm-3.15,0-.51.6h0Zm0-3-.49-.61h0Zm3.15,0-.49.61h0Zm-3.32,6.58v-.79h-.78v.79Zm3.39,0h.79v-.79H326Zm0,17.48v.79h.79V34.7Zm-3.39,0h-.78v.79h.78Zm3.18-22.57a1,1,0,0,1-.35.88l1,1.22a2.57,2.57,0,0,0,.94-2.1Zm-.35.88a1.6,1.6,0,0,1-1.08.33v1.58a3.2,3.2,0,0,0,2.07-.68Zm-1.08.33a1.62,1.62,0,0,1-1.08-.33l-1,1.23a3.2,3.2,0,0,0,2.07.68ZM323.33,13a1.08,1.08,0,0,1-.34-.9h-1.57a2.62,2.62,0,0,0,.88,2.09Zm-.34-.9a1,1,0,0,1,.33-.88l-1-1.21a2.58,2.58,0,0,0-.89,2.09Zm.32-.88a1.68,1.68,0,0,1,1.08-.33V9.34a3.21,3.21,0,0,0-2.07.69Zm1.08-.33a1.66,1.66,0,0,1,1.08.33l1-1.22a3.21,3.21,0,0,0-2.07-.69Zm1.09.34a1,1,0,0,1,.34.87h1.58a2.57,2.57,0,0,0-.95-2.11ZM322.64,18H326V16.43h-3.39Zm2.6-.78V34.7h1.58V17.22ZM326,33.91h-3.39v1.58H326Zm-2.6.79V17.22h-1.57V34.7Zm20.5-.05.23.75.55-.17v-.58Zm-7.8-.29-.26.75h0Zm-3-1.79-.54.57h0Zm.51-13.46.49.62Zm10.13-2h.79v-.65l-.65-.12Zm0,3-.24.75,1,.33V20.13Zm-6.27.05.3.73h0Zm-2,1.34L335,21h0Zm1.77,10.15.33-.72h0Zm3.88.47-.07-.78h0Zm1.12-.13.12.78h0Zm1.61-.39h.78V30.44l-1.09.45Zm-.24,2.28a12.94,12.94,0,0,1-3.29.28v1.58a13.6,13.6,0,0,0,3.76-.36Zm-3.29.28a12.37,12.37,0,0,1-4-.56l-.52,1.49a14,14,0,0,0,4.53.65Zm-4-.56A7.34,7.34,0,0,1,333.7,32l-1.09,1.14a8.91,8.91,0,0,0,3.26,2ZM333.7,32a8.21,8.21,0,0,1-2.32-6.24H329.8a9.77,9.77,0,0,0,2.81,7.38Zm-2.32-6.24a7.22,7.22,0,0,1,2.77-6l-1-1.24a8.8,8.8,0,0,0-3.37,7.27Zm2.77-6a9.75,9.75,0,0,1,6.25-2V16.16a11.34,11.34,0,0,0-7.23,2.33Zm6.25-2a21.22,21.22,0,0,1,3.25.16l.28-1.55a22.39,22.39,0,0,0-3.53-.18Zm2.6-.62v3h1.58v-3Zm1,2.27a11.23,11.23,0,0,0-3.49-.5v1.58a10,10,0,0,1,3,.42Zm-3.49-.5a8.44,8.44,0,0,0-3.33.58l.62,1.45a6.91,6.91,0,0,1,2.71-.45Zm-3.32.57A6.22,6.22,0,0,0,335,21l1.17,1.06a4.45,4.45,0,0,1,1.68-1.14ZM335,21a6.89,6.89,0,0,0-1.64,4.77h1.57a5.34,5.34,0,0,1,1.24-3.71Zm-1.64,4.77a8.49,8.49,0,0,0,.89,4.07A5.89,5.89,0,0,0,337,32.39l.66-1.44a4.23,4.23,0,0,1-2-1.87,7,7,0,0,1-.71-3.32ZM337,32.38a5.91,5.91,0,0,0,2.55.6V31.41a4.51,4.51,0,0,1-1.89-.46Zm2.55.6c.73,0,1.31,0,1.73,0l-.14-1.57c-.35,0-.88.05-1.59.05Zm1.73,0c.41,0,.8-.08,1.17-.14l-.25-1.56c-.33.05-.68.1-1.06.13Zm1.18-.14a9.36,9.36,0,0,0,1.78-.44l-.61-1.46a6.85,6.85,0,0,1-1.43.34Zm.69-1.17v3h1.57v-3Zm5.55,3.05h-.79v.68l.68.1Zm0-3,.18-.77-1-.23v1Zm8.66-2.47-.58.54h0Zm-1.66-1.12.35-.71h0Zm-2.48-1.14-.35.71h0ZM350.09,25l.57-.55h0Zm.62-6.64-.45-.66h0Zm9.75-1.15h.79v-.69l-.68-.1Zm0,2.89-.14.78.93.17v-.95Zm-6.18-.18-.18-.77h0Zm-1.31.5.45.66h0Zm-.21,2.46-.56.56h0Zm1.52,1-.37.7h0Zm2.49,1.2.37-.7h0ZM359.91,27l-.55.57h0Zm-.78,6.59-.41-.67h0Zm-6.16.55a29.64,29.64,0,0,1-4.17-.29l-.22,1.56a31.28,31.28,0,0,0,4.39.31Zm-3.49.49v-3H347.9v3Zm-1-2.23a20.17,20.17,0,0,0,4.65.54V31.41a18.24,18.24,0,0,1-4.29-.51Zm4.65.54a9.93,9.93,0,0,0,3.71-.54,2.91,2.91,0,0,0,1.17-.83,2.14,2.14,0,0,0,.45-1.33h-1.58a.56.56,0,0,1-.11.35,1.39,1.39,0,0,1-.54.36,8.45,8.45,0,0,1-3.1.42Zm5.33-2.7a2.21,2.21,0,0,0-.59-1.64l-1.11,1.11a.81.81,0,0,1,.12.53Zm-.57-1.62A6.38,6.38,0,0,0,356,27.37l-.7,1.41a4.91,4.91,0,0,1,1.43,1Zm-1.9-1.3-2.48-1.14-.66,1.44,2.48,1.13Zm-2.46-1.12a12.65,12.65,0,0,1-2.9-1.78l-1.13,1.1a13.72,13.72,0,0,0,3.33,2.09Zm-2.9-1.78a3.62,3.62,0,0,1-1.12-2.67H348a5.2,5.2,0,0,0,1.56,3.77Zm-1.12-2.67A3.23,3.23,0,0,1,351.15,19l-.89-1.31A4.78,4.78,0,0,0,348,21.79ZM351.15,19a9.62,9.62,0,0,1,5.45-1.29V16.16a11.22,11.22,0,0,0-6.34,1.55Zm5.45-1.29a26.73,26.73,0,0,1,3.76.27l.21-1.57a29.53,29.53,0,0,0-4-.27Zm3.08-.51v2.89h1.57V17.22Zm.93,2.12a21.63,21.63,0,0,0-3.87-.41v1.58a19.77,19.77,0,0,1,3.58.38Zm-3.87-.41a12,12,0,0,0-2.64.23l.36,1.54a10.39,10.39,0,0,1,2.28-.19Zm-2.64.23a4.41,4.41,0,0,0-1.57.63l.89,1.29a3.46,3.46,0,0,1,1-.39Zm-1.57.62a2.24,2.24,0,0,0-1,1.89h1.58a.66.66,0,0,1,.35-.58Zm-1,1.89a2.45,2.45,0,0,0,.71,1.78l1.11-1.12a.85.85,0,0,1-.24-.66Zm.73,1.8a8,8,0,0,0,1.69,1.12l.74-1.4a6.23,6.23,0,0,1-1.36-.88Zm1.72,1.13,2.49,1.21.68-1.43-2.49-1.2Zm2.47,1.19a15.25,15.25,0,0,1,2.95,1.82l1.1-1.13a16.18,16.18,0,0,0-3.32-2.09Zm2.95,1.82a3.57,3.57,0,0,1,1.08,2.67H362a5.11,5.11,0,0,0-1.56-3.8Zm1.08,2.67A3,3,0,0,1,358.72,33l.82,1.35a4.6,4.6,0,0,0,2.48-4ZM358.72,33A11.13,11.13,0,0,1,353,34.18v1.58a12.65,12.65,0,0,0,6.57-1.45Z" transform="translate(-2.02 -3.15)"/><path class="cls-3" d="M22.08,5.75a.5.5,0,0,0-.19.73c.15.22-.36.2,5.73.2h5.44l.12-.06a.5.5,0,0,0-.06-.88C33,5.67,22.24,5.68,22.08,5.75Zm0,5.7a.47.47,0,0,0,0,.87c.09,0,.24.06,5.53.06s5.44,0,5.53-.06a.47.47,0,0,0,0-.87C33,11.37,22.25,11.37,22.08,11.45Zm-.78,5.2a.5.5,0,0,0,.07.93c.06,0,1.81,0,5.51,0H32.3l.12-.08a.51.51,0,0,0-.09-.88C32.17,16.57,21.46,16.58,21.3,16.65Zm-.78,5.07a.48.48,0,0,0,0,.86l.13.07H26a54.89,54.89,0,0,0,5.53,0,.48.48,0,0,0,0-.89C31.38,21.64,20.67,21.65,20.52,21.72Zm-1.89,4.75a.51.51,0,0,0,0,.88c.16.07,10.84.08,11.05,0a.48.48,0,0,0,0-.88C29.51,26.39,18.8,26.39,18.63,26.47Zm-2.8,4.74a.5.5,0,0,0-.06.86l.12.07h5.47c5.34,0,5.47,0,5.55,0a.5.5,0,0,0-.05-.89C26.69,31.13,16,31.14,15.83,31.21ZM13.14,36a.51.51,0,0,0,0,.88l.14.07h5.41a53.39,53.39,0,0,0,5.53,0,.51.51,0,0,0,0-.89C24.06,35.87,13.3,35.87,13.14,36Zm-2.62,4.41a.51.51,0,0,0,0,.91,54.29,54.29,0,0,0,5.56,0h5.44l.1-.07a.52.52,0,0,0-.06-.87C21.4,40.29,10.7,40.29,10.52,40.37ZM8.17,44.81a.49.49,0,0,0,0,.87l.12.06H19.12l.12-.06a.49.49,0,0,0,.05-.82l-.11-.08H13.72C8.81,44.76,8.25,44.77,8.17,44.81Z" transform="translate(-2.02 -3.15)"/><path class="cls-4" d="M22.08,3.21a.51.51,0,0,0-.08.86l.1.09h5.47c5.43,0,5.47,0,5.58,0a.51.51,0,0,0,0-.92C33,3.13,22.24,3.14,22.08,3.21Zm.16,5.54a.51.51,0,0,0-.08.86l.1.08h5.47c5.33,0,5.48,0,5.58,0a.5.5,0,0,0,0-.91C33.11,8.67,22.4,8.68,22.24,8.75ZM23,14.12a.5.5,0,0,0,0,.9c.14.08,10.86.09,11,0a.5.5,0,0,0,0-.92C33.89,14,23.18,14.05,23,14.12Zm.91,5.25a.47.47,0,0,0,0,.84l.15.07H34.92l.12-.06a.5.5,0,0,0,0-.86l-.12-.06H24.07Zm1.28,4.56a.51.51,0,0,0,0,.92c.15.06,10.86.06,11,0a.51.51,0,0,0,0-.93C36.07,23.85,25.36,23.86,25.21,23.93ZM28,28.84a.51.51,0,0,0-.16.76c.14.18-.25.17,5.75.16h5.47l.07-.05a.52.52,0,0,0-.07-.87C38.9,28.76,28.16,28.77,28,28.84Zm3.28,4.74a.53.53,0,0,0-.16.75c.15.2-.36.18,5.71.18h5.48l.09-.06a.52.52,0,0,0-.05-.87C42.22,33.5,31.43,33.5,31.3,33.58Zm2.21,4.57a.51.51,0,0,0,0,.92,54.89,54.89,0,0,0,5.53,0h5.41l.12-.06a.52.52,0,0,0,0-.89l-.12-.06H39C34.16,38.11,33.59,38.11,33.51,38.15ZM36,42.73a.51.51,0,0,0,0,.91c.17.09,10.89.09,11.07,0a.54.54,0,0,0,0-.9C46.92,42.67,36.16,42.66,36,42.73Z" transform="translate(-2.02 -3.15)"/><path class="cls-3" d="M4.92,12.11l4-.06c.09,0,.15,0,.15-.16V9.56c0-.13,0-.16-.15-.16H2.27c-.19,0-.25.1-.25.28V38c0,.23.06.29.25.29H8.9c.12,0,.15,0,.19-.16V35.81c0-.13,0-.19-.16-.19l-4-.13ZM51.48,35.55l-3.94.1c-.09,0-.16,0-.16.19v2.3c0,.13,0,.16.13.16h6.66c.19,0,.25-.06.25-.25V9.72c0-.26-.1-.32-.25-.32H47.54c-.13,0-.16.06-.19.19v2.34c0,.09,0,.15.13.15l4,.13Z" transform="translate(-2.02 -3.15)"/></g></g></g></svg>