<svg xmlns="http://www.w3.org/2000/svg" viewBox="0 0 67.78 68.02"><defs><style>.cls-1{fill:#fff;fill-rule:evenodd;}</style></defs><g id="Layer_2" data-name="Layer 2"><g id="Layer_1-2" data-name="Layer 1"><path class="cls-1" d="M38.79,0a12.21,12.21,0,0,1,1,.79Q45.33,6.38,50.91,12a2.29,2.29,0,0,1,.72,1.77c0,3.52,0,7,0,10.55v.9l.61-.58q3.42-3.39,6.83-6.79c1-1,1.49-1,2.46,0l5.63,5.64c.85.86.85,1.38,0,2.25Q59.68,33.18,52.2,40.63a1.85,1.85,0,0,0-.59,1.45c0,8.06,0,16.12,0,24.17,0,.75-.1,1.42-.89,1.77H.79A1.82,1.82,0,0,1,0,66.32Q0,34,0,1.7A1.82,1.82,0,0,1,.79,0ZM2.4,65.6H49.21V43.78c-1.11,1.08-2.17,2.14-3.28,3.16a4.22,4.22,0,0,1-1.38.86c-2.57.89-5.15,1.72-7.73,2.57l-.64.25a9.57,9.57,0,0,0,1.75.11c1.19,0,2.39,0,3.58,0a1.15,1.15,0,0,1,.14,2.3,3.6,3.6,0,0,1-.66.05H10.57A3.52,3.52,0,0,1,9.78,53a1.09,1.09,0,0,1-.91-1.19,1.11,1.11,0,0,1,1.06-1.08,5.93,5.93,0,0,1,.73,0H33.71c.22,0,.45,0,.74,0-1-1.29.27-2.33.21-3.53h-24a4.45,4.45,0,0,1-.73,0,1.1,1.1,0,0,1-1-1.06,1.07,1.07,0,0,1,.89-1.21,4,4,0,0,1,.92-.08c8,0,16,0,24,0A1,1,0,0,0,35.86,44c.35-1.21.75-2.41,1.19-3.59a4.27,4.27,0,0,1,.88-1.44C41.54,35.29,45.19,31.67,48.8,28a1.58,1.58,0,0,0,.44-1c0-4,0-8,0-12,0-.22,0-.43,0-.7H39c-1.21,0-1.53-.32-1.54-1.53V2.42H2.4ZM44.62,44.7l15-14.88-4.51-4.51-14.86,15Zm20.18-20-4.51-4.52-3.36,3.37,4.5,4.5Zm-25-12.76h7.5l-7.5-7.48Zm-1,30.58-1.79,5.37,5.36-1.79Z" transform="translate(0)"/><path class="cls-1" d="M25.72,59H10.59a3.55,3.55,0,0,1-.8,0,1.07,1.07,0,0,1-.91-1.06,1.05,1.05,0,0,1,.84-1.18,3.55,3.55,0,0,1,.92-.09H40.92a3.47,3.47,0,0,1,.91.09,1.06,1.06,0,0,1,.83,1.2,1.07,1.07,0,0,1-.94,1A3.44,3.44,0,0,1,41,59Z" transform="translate(0)"/><path class="cls-1" d="M18.32,38.9h7.9a4.46,4.46,0,0,1,.73,0,1.09,1.09,0,0,1,.94,1.12A1.07,1.07,0,0,1,27,41.19a4.08,4.08,0,0,1-.79.06H10.54a4.4,4.4,0,0,1-.73,0A1.1,1.1,0,0,1,8.87,40a1.13,1.13,0,0,1,1-1.11,4.85,4.85,0,0,1,.66,0Z" transform="translate(0)"/></g></g></svg>