<svg xmlns="http://www.w3.org/2000/svg" viewBox="0 0 66.59 66.59"><defs><style>.cls-1{fill:#fff;fill-rule:evenodd;}</style></defs><g id="Layer_2" data-name="Layer 2"><g id="Layer_1-2" data-name="Layer 1"><path class="cls-1" d="M2.61,55.66H3.87c7.45,0,14.91,0,22.36,0a1.38,1.38,0,0,0,1.56-.93,4.71,4.71,0,0,1,5.59-2.69,10.34,10.34,0,0,0,2.51.35c-.32-.33-.63-.67-1-1C29.71,46.17,24.45,41,19.23,35.69c-2.75-2.79-1.66-7.07,2-8a4.53,4.53,0,0,1,4.51,1.35l6.44,6.42c.27.27.55.53.92.87a5,5,0,0,1,4-3.09c.78-1.35,1.42-2.43,2-3.53a2.09,2.09,0,0,0,.33-.93c0-5.89,0-11.78,0-17.76H2.61v1.38c0,4.81,0,9.62,0,14.43,0,.94-.13,1.83-1.3,1.83S0,27.81,0,26.85C0,19.79,0,12.73,0,5.66A5.42,5.42,0,0,1,5.66,0H36.34a5.45,5.45,0,0,1,5.79,5.78c0,7.06,0,14.12,0,21.19v1.46l2.23.49c.13-.23.26-.44.38-.66a4.6,4.6,0,0,1,7.46-1.17c3.19,3.12,6.38,6.25,9.46,9.47A17.76,17.76,0,0,1,43.31,65.71a11.07,11.07,0,0,1-1.1-.39,2.28,2.28,0,0,0-2.57.29,5.63,5.63,0,0,1-3,.93c-10.36.07-20.71,0-31.07,0A5.4,5.4,0,0,1,0,61.07c0-7.15,0-14.3,0-21.45,0-.92.21-1.71,1.29-1.72s1.33.85,1.33,1.81c0,4.81,0,9.62,0,14.43ZM64,48.08a14.51,14.51,0,0,0-4.27-9.82c-3-3.07-6.06-6.07-9.1-9.1a2.12,2.12,0,0,0-3.1-.29c-.93.87-.86,2.08.23,3.19,1.43,1.46,2.88,2.89,4.32,4.32.65.64,1.12,1.34.37,2.13s-1.54.39-2.22-.29Q47.13,35.13,44,32.07c-1.09-1.08-2.33-1.18-3.2-.3s-.76,2.12.31,3.2c2,2,4,4,6,6,.71.7,1.27,1.45.41,2.32s-1.57.22-2.21-.43c-2-2.06-4.1-4.12-6.17-6.15a2,2,0,0,0-3.1-.14,2.09,2.09,0,0,0,.22,3c1,1.06,2.08,2.08,3.12,3.13l2.75,2.75c.67.66,1.2,1.38.33,2.22s-1.57.22-2.22-.42l-.45-.46L24.09,31.07c-1.1-1.1-2.32-1.19-3.2-.3s-.79,2.09.3,3.2c1.43,1.45,2.88,2.88,4.32,4.31L41,53.82c.53.52,1.09,1.08.58,1.91s-1.15.74-1.94.54c-2.13-.57-4.28-1.07-6.42-1.58-1.72-.41-2.9.13-3.27,1.46s.4,2.3,2,2.85c3.92,1.38,7.83,2.76,11.76,4.11C53.69,66.52,64,59.26,64,48.08ZM39.53,8.27v-2c0-2.72-1-3.69-3.64-3.69H5.77c-1.61,0-2.8.75-3,2.12a22,22,0,0,0,0,3.54ZM37.19,64l0-.37c-2.11-.75-4.27-1.37-6.31-2.27A8.28,8.28,0,0,1,28,59.09a1.85,1.85,0,0,0-1.66-.84c-7.53,0-15.07,0-22.6,0-.37,0-.74.05-1.17.08v1.78c0,3,.91,3.86,3.88,3.86h30.7Z"/><path class="cls-1" d="M21.75,15.34a13.75,13.75,0,0,1,9.31,3.6c.71.65,1.16,1.39.38,2.21s-1.45.33-2.13-.27a10.94,10.94,0,0,0-14.86-.06c-.71.61-1.44,1.17-2.23.31s-.2-1.64.53-2.3A13.6,13.6,0,0,1,21.75,15.34Z"/><path class="cls-1" d="M27.74,24.49c-.32.45-.54,1.05-.86,1.12a2.21,2.21,0,0,1-1.64-.28,4.93,4.93,0,0,0-4.6-1.11,7.62,7.62,0,0,0-2.14,1.14c-.74.52-1.45.72-2.06,0s-.26-1.42.4-2a7.61,7.61,0,0,1,9.88-.09A10.27,10.27,0,0,1,27.74,24.49Z"/><path class="cls-1" d="M2.78,33.64c-.51.31-1.09.94-1.53.86A1.86,1.86,0,0,1,.11,33.18c0-.34.77-1.09,1.21-1.09s1,.61,1.48,1C2.8,33.24,2.79,33.44,2.78,33.64Z"/><path class="cls-1" d="M22.54,61.34c-.5.36-1,1-1.47,1a1.81,1.81,0,0,1-1.22-1.23c-.06-.35.69-1.15,1.11-1.18s1,.55,1.56.87C22.53,61,22.53,61.15,22.54,61.34Z"/></g></g></svg>