<svg width="97" height="59" viewBox="0 0 97 59" fill="none" xmlns="http://www.w3.org/2000/svg">
<g clip-path="url(#clip0_2587_564)">
<path d="M97 58.9999H0V19.4875H97V58.9999ZM3.60538 55.3561H93.4001V23.1314H3.60538V55.3561Z" fill="white"/>
<path d="M14.8816 19.5374H8.9585V38.0891H14.8816V19.5374Z" fill="white"/>
<path d="M39.2698 19.5374H33.3467V38.0891H39.2698V19.5374Z" fill="white"/>
<path d="M63.6526 19.5374H57.7295V38.0891H63.6526V19.5374Z" fill="white"/>
<path d="M88.0413 19.5374H82.1182V38.0891H88.0413V19.5374Z" fill="white"/>
<path d="M75.9104 19.5374H69.9873V29.9706H75.9104V19.5374Z" fill="white"/>
<path d="M51.4617 19.5374H45.5386V29.9706H51.4617V19.5374Z" fill="white"/>
<path d="M27.013 19.5374H21.0898V29.9706H27.013V19.5374Z" fill="white"/>
<path d="M89.5537 0V5.27755H7.82996V0H1.80273V16.2535H7.82996V10.6935H89.5537V16.2535H95.1974V0H89.5537Z" fill="white"/>
</g>
<defs>
<clipPath id="clip0_2587_564">
<rect width="97" height="59" fill="white"/>
</clipPath>
</defs>
</svg>
