<svg width="97" height="94" viewBox="0 0 97 94" fill="none" xmlns="http://www.w3.org/2000/svg">
<g clip-path="url(#clip0_2587_282)">
<path d="M48.5364 93.9966C34.0196 93.9966 19.5009 93.9966 4.98402 93.9966C2.35101 93.9966 0.657559 92.7716 0.124643 90.4751C0.0262297 90.0495 -0.0406169 89.5795 0.0336571 89.1576C0.863669 84.45 1.41701 79.6666 2.64625 75.0626C4.60522 67.7236 9.51659 62.8643 16.6673 60.2774C21.0532 58.6915 25.4539 57.1445 29.8491 55.5864C31.9399 54.8462 33.0057 53.3437 33.1896 51.1768C33.301 49.8592 33.0429 48.699 32.3336 47.4925C31.0709 45.346 30.0979 43.0292 28.9949 40.7883C28.8743 40.544 28.748 40.2165 28.5345 40.1184C25.7473 38.8342 24.6871 36.373 24.3714 33.6158C24.1467 31.6599 24.3064 29.6392 24.4828 27.6647C24.5942 26.4157 25.3221 25.372 26.2951 24.5171C26.5495 24.2932 26.698 23.825 26.7055 23.4642C26.75 21.3065 26.7055 19.147 26.7537 16.9894C26.9376 9.02684 33.5164 1.44363 41.4618 0.52395C46.6926 -0.0811524 52.0292 -0.375377 57.2228 0.868137C64.678 2.65199 70.1595 9.69856 70.2987 17.341C70.3359 19.3395 70.282 21.3417 70.3451 23.3384C70.3581 23.7714 70.5977 24.2913 70.9041 24.6004C71.8826 25.5904 72.488 26.7691 72.6959 28.1015C73.1508 31.0289 73.0153 33.9212 71.8251 36.6913C71.203 38.1384 70.1985 39.2413 68.7984 40C68.4994 40.1609 68.2228 40.4681 68.0668 40.7734C66.8506 43.1698 65.7773 45.6439 64.4441 47.9718C62.9048 50.6586 64.0504 54.4299 66.9935 55.5106C71.3998 57.1279 75.8451 58.6397 80.2552 60.2459C88.754 63.338 93.6746 69.3854 95.1434 78.2676C95.706 81.6725 96.3021 85.0736 96.9074 88.4729C97.4663 91.6095 95.5148 93.9892 92.282 93.9966C84.4498 94.0151 76.6176 94.0021 68.7854 94.0021C62.0357 94.0021 55.2879 94.0021 48.5383 94.0021L48.5364 93.9966ZM62.8026 29.5837C62.8286 29.5818 62.8528 29.5781 62.8788 29.5763C62.6856 27.526 62.5445 25.4682 62.279 23.4272C62.0914 21.9838 60.7675 21.2418 59.373 21.6803C59.0406 21.784 58.725 21.9394 58.4037 22.0763C56.1328 23.0312 53.7746 23.6603 51.318 23.8454C46.6889 24.197 42.186 23.7307 37.8967 21.7784C36.3648 21.0826 34.9016 21.8987 34.7605 23.5623C34.5024 26.6229 34.4002 29.6984 34.2573 32.7683C34.2016 33.9859 33.6371 34.7021 32.6362 34.7113C31.654 34.7206 31.0115 33.9767 30.9595 32.8053C30.8964 31.3786 30.8369 29.9519 30.733 28.5289C30.6717 27.6962 30.421 26.9375 29.409 26.8246C28.5623 26.7303 27.9087 27.2003 27.7063 28.2735C27.2477 30.7069 27.2681 33.1347 28.2782 35.4589C28.6756 36.3712 29.3645 36.9356 30.3449 37.2853C30.8908 37.4796 31.5481 38.0237 31.7041 38.5455C33.1673 43.3863 35.8894 47.4869 39.1352 51.2693C43.8015 56.7078 52.8332 56.8947 57.6257 51.5746C61.0256 47.8015 63.8295 43.6176 65.25 38.6565C65.4635 37.9145 65.8998 37.4167 66.65 37.2576C67.7177 37.03 68.3825 36.3582 68.7891 35.4052C69.7695 33.1051 69.7992 30.7125 69.3387 28.3106C69.1141 27.1411 68.4976 26.7173 67.5896 26.8191C66.8097 26.9079 66.3158 27.5648 66.2638 28.6362C66.1932 30.0629 66.145 31.4897 66.0837 32.9164C66.0373 33.9915 65.3335 34.7317 64.3865 34.7058C63.4562 34.6799 62.8268 33.9896 62.8063 32.9201C62.7859 31.8098 62.8008 30.6977 62.8008 29.5874L62.8026 29.5837ZM68.44 73.3213C67.974 70.17 68.8578 67.4664 70.5475 64.8887C71.1919 63.9061 71.3256 62.583 71.6561 61.4062C71.8139 60.8399 71.4927 60.5975 70.9579 60.405C68.4623 59.5131 65.9853 58.5712 63.4432 57.6238C59.373 68.5045 55.2415 79.5481 51.0803 90.675C51.4647 90.7009 51.7098 90.7305 51.9568 90.7305C65.3577 90.7323 78.7585 90.7342 92.1613 90.7305C93.4109 90.7305 93.851 90.242 93.6468 89.0299C93.0173 85.2827 92.3897 81.5355 91.7119 77.7976C90.7705 72.6107 88.0818 68.5378 83.7293 65.5475C81.4974 64.0135 78.9294 63.2603 76.4245 62.3536C75.9621 62.187 75.4868 62.0557 75.0615 61.9224C74.7849 62.9439 74.6141 63.8876 74.2687 64.761C73.9103 65.6678 73.4591 66.5578 72.9132 67.3665C71.8473 68.9449 71.4945 70.6585 71.6338 72.5182C71.6728 73.0437 71.8678 73.3417 72.41 73.5378C75.4886 74.6518 77.2545 77.1629 77.1654 80.3679C77.0855 83.1954 75.6836 85.2846 73.1471 86.4633C70.5364 87.6791 67.9684 87.3663 65.7272 85.5251C63.5157 83.708 62.7488 81.2968 63.3783 78.5267C63.9854 75.849 65.7866 74.2151 68.4419 73.3232L68.44 73.3213ZM25.816 60.4976C22.6204 61.6504 19.5622 62.6238 16.6079 63.8469C10.679 66.3006 6.917 70.7121 5.53365 76.9612C4.67207 80.8527 4.10202 84.809 3.43169 88.7412C3.15874 90.3419 3.53011 90.7305 5.16228 90.7305C18.4053 90.7305 31.6465 90.7305 44.8896 90.7305C45.2257 90.7305 45.5618 90.7305 46.0278 90.7305C41.8276 79.5333 37.6776 68.4731 33.5108 57.3684C32.9927 57.6756 32.6102 57.9772 32.1757 58.1475C30.265 58.8895 29.4425 60.5105 28.7963 62.2611C28.709 62.4998 28.8018 62.9994 28.982 63.1123C30.5993 64.1319 31.4627 65.6733 31.8842 67.4313C33.2304 73.0493 32.8665 78.4934 29.9605 83.6228C29.903 83.7228 29.8918 83.8486 29.8231 84.0781C30.2428 84.0392 30.6587 84.1243 30.8982 83.9596C31.9176 83.2546 33.0485 83.4637 34.1403 83.5155C35.2321 83.5673 36.1011 84.5203 36.2478 85.6473C36.3778 86.6447 35.7223 87.9252 34.7159 88.1158C33.6835 88.3101 32.5545 88.3267 31.5258 88.125C30.3746 87.8993 29.2586 87.4052 28.1798 86.9167C26.3155 86.0729 24.6555 87.0758 23.1273 87.692C21.8702 88.1991 20.7338 88.4267 19.4749 88.2583C18.3032 88.101 17.5029 87.098 17.4825 85.9341C17.4639 84.8331 18.2271 83.7098 19.317 83.5692C20.4609 83.4212 21.6511 83.2306 22.7559 83.9115C23.04 84.0873 23.4745 84.017 23.9072 84.0688C23.339 82.8827 22.7596 81.9223 22.405 80.886C21.0662 76.9723 20.7858 72.9457 21.471 68.8802C21.8052 66.8965 22.366 64.848 24.1114 63.6674C25.2905 62.8699 25.4614 61.8299 25.816 60.4976ZM31.3049 23.8361C31.381 23.4586 31.4534 23.0885 31.5277 22.7203C31.99 20.4368 33.3845 19.0027 35.6202 18.442C36.946 18.1089 38.2569 18.3051 39.527 18.8713C42.2621 20.0871 45.131 20.633 48.1354 20.67C51.5334 20.7125 54.7458 20.0834 57.8727 18.751C61.3246 17.2799 64.8284 19.2303 65.5471 22.8998C65.612 23.2273 65.703 23.5493 65.8219 24.0452C66.2229 23.5215 67.0994 23.9527 67.0659 22.9849C66.9843 20.6718 67.1087 18.3421 66.8673 16.0475C66.1338 9.08791 59.9375 3.56612 52.9093 3.4921C49.9811 3.46064 47.051 3.46249 44.1227 3.4921C37.6163 3.55872 31.6094 8.36993 30.4136 14.7503C29.9512 17.2152 30.1388 19.7984 29.9698 22.3243C29.9067 23.2773 30.1276 23.8639 31.303 23.8398L31.3049 23.8361ZM48.4176 87.7494C48.4975 87.7568 48.5754 87.7642 48.6553 87.7716C49.5169 85.44 50.3822 83.1103 51.2326 80.775C51.305 80.5751 51.3162 80.3401 51.3032 80.1236C51.1379 77.3738 50.9689 74.624 50.7888 71.8742C50.6978 70.4919 50.5808 69.1115 50.475 67.7162H46.5923C46.5422 68.1159 46.4809 68.4601 46.4586 68.8062C46.2154 72.5663 45.974 76.3283 45.7419 80.0885C45.7289 80.3031 45.7512 80.5381 45.8236 80.738C46.6814 83.077 47.5505 85.4123 48.4176 87.7475V87.7494ZM26.958 82.3516C27.4408 81.356 27.9477 80.5196 28.2689 79.6166C29.3032 76.7021 29.4889 73.6599 29.1695 70.627C29.0247 69.254 28.4917 67.8772 27.9031 66.6078C27.4315 65.5901 26.4306 65.6363 25.8012 66.593C25.4595 67.113 25.1921 67.707 25.0157 68.3028C24.0799 71.4505 24.3343 74.624 24.9396 77.7846C25.2441 79.3705 25.7566 80.8879 26.958 82.3516ZM48.5494 58.7211C47.8178 58.7211 47.0862 58.7045 46.3565 58.7248C44.832 58.7692 43.9147 59.7111 43.8646 61.2563C43.8015 63.1974 44.5349 64.2503 46.156 64.3299C47.7417 64.4076 49.3368 64.4095 50.9206 64.3262C52.5027 64.2429 53.2269 63.2011 53.1786 61.3136C53.1377 59.7518 52.2371 58.7822 50.7424 58.7267C50.0126 58.6989 49.281 58.7211 48.5494 58.7211ZM54.1218 72.7033C54.315 72.496 54.3781 72.4571 54.3967 72.4053C56.6007 66.5153 58.8123 60.6271 60.9755 54.7223C61.1389 54.2763 60.9532 53.7027 60.9235 53.0402C59.841 54.0098 59.0146 54.8481 58.0844 55.5531C57.1671 56.247 56.1477 56.804 55.1728 57.4202C57.3379 60.8251 56.9703 63.7266 54.055 66.6337C53.9157 66.7725 53.7802 67.0075 53.7895 67.1889C53.8786 68.9764 53.9993 70.7621 54.12 72.7014L54.1218 72.7033ZM36.0324 53.179C36.0603 53.7989 35.9451 54.4317 36.1364 54.9517C38.2272 60.6234 40.3644 66.2766 42.4943 71.9335C42.576 72.1481 42.6929 72.3517 42.9195 72.818C43.0364 70.8546 43.1664 69.1892 43.2073 67.5219C43.2166 67.1593 42.9956 66.6763 42.7171 66.4413C41.2854 65.2366 40.6058 63.7155 40.5223 61.8762C40.448 60.2089 40.8899 58.7026 41.7757 57.559C39.8557 56.0953 38.0304 54.7038 36.0306 53.179H36.0324ZM70.2189 76.4338C68.1708 76.4171 66.494 78.0363 66.4643 80.0552C66.4346 82.1406 68.0761 83.8449 70.1372 83.869C72.1797 83.8912 73.927 82.1684 73.9233 80.1366C73.9196 78.127 72.2429 76.4504 70.2189 76.4338Z" fill="white"/>
<path d="M70.1944 78.1267C71.3549 78.1341 72.2239 79.0205 72.2054 80.1826C72.1868 81.3354 71.2899 82.183 70.1164 82.1571C68.9967 82.133 68.1556 81.2744 68.1519 80.1511C68.1482 78.9891 69.0246 78.1212 70.1963 78.1267H70.1944Z" fill="white"/>
</g>
<defs>
<clipPath id="clip0_2587_282">
<rect width="97" height="94" fill="white"/>
</clipPath>
</defs>
</svg>
