<svg width="90" height="96" viewBox="0 0 90 96" fill="none" xmlns="http://www.w3.org/2000/svg">
<g clip-path="url(#clip0_2587_264)">
<path d="M0.940721 96C0.223 95.5804 0 94.9606 0 94.1234C0.0187395 77.094 0.0149916 60.0628 0.0149916 43.0335C0.0149916 42.784 -0.0112437 42.527 0.035605 42.2851C0.179899 41.5405 0.678368 41.121 1.39609 41.1153C2.11756 41.1096 2.62352 41.5292 2.77157 42.2681C2.83153 42.5686 2.79593 42.8917 2.79593 43.2036C2.79593 59.4524 2.79593 75.7012 2.79593 91.95V93.1274H27.0129C27.0129 92.774 27.0129 92.4131 27.0129 92.054C27.0129 84.7422 27.0054 77.4304 27.0167 70.1186C27.0223 66.5317 29.1492 63.9162 32.5448 63.2888C32.9983 63.2056 33.4687 63.2018 33.9315 63.2018C41.2755 63.1962 48.6214 63.1943 55.9654 63.1999C60.1743 63.2037 62.8934 65.9119 62.9046 70.1527C62.9233 77.4342 62.9102 84.7139 62.9102 91.9954C62.9102 92.362 62.9102 92.7287 62.9102 93.1425H87.1441C87.1441 91.8896 87.1441 90.6782 87.1441 89.4649C87.146 87.9644 87.1235 86.4638 87.1647 84.9652C87.1891 84.0883 87.7831 83.493 88.5289 83.476C89.301 83.4571 89.9663 84.0959 89.9738 84.9973C90 88.1534 90.0244 91.3113 89.9438 94.4635C89.9307 94.9813 89.3835 95.4878 89.0836 95.9981H0.940721V96ZM60 93.1539C60.0431 93.0178 60.0768 92.9592 60.0768 92.9025C60.0806 85.0956 60.0993 77.2868 60.0712 69.4799C60.0656 67.8905 58.8307 66.4769 57.2697 66.1783C56.5182 66.0347 55.733 66.029 54.961 66.0252C52.1482 66.0082 49.3335 66.0196 46.4551 66.0196V93.1539H59.9981H60ZM43.5093 66.0196C40.3517 66.0196 37.2896 66.0819 34.2332 66.0007C31.7821 65.9345 29.8051 67.3689 29.8463 70.4437C29.9438 77.6534 29.8782 84.865 29.8782 92.0767C29.8782 92.4131 29.8782 92.7494 29.8782 93.1388H43.5111V66.0215L43.5093 66.0196Z" fill="white"/>
<path d="M12.8517 23.4339C10.7061 23.4339 8.65411 23.2639 6.64149 23.4793C4.4471 23.7136 2.82988 25.9248 2.80552 28.3305C2.77741 31.0802 2.80177 33.8299 2.79615 36.5797C2.79428 37.6777 2.28644 38.3013 1.41318 38.3051C0.53992 38.3089 0.0189631 37.6814 0.0170891 36.5929C0.0133412 33.7808 0.0039715 30.9687 0.0189631 28.1567C0.0414504 23.9707 3.39769 20.5463 7.57097 20.4631C9.29687 20.4291 11.0246 20.4575 12.8517 20.4575C12.8517 20.0322 12.8517 19.6977 12.8517 19.3651C12.8517 15.2415 12.8461 11.116 12.8517 6.99235C12.8611 2.86684 15.7189 0.00184237 19.8247 -4.74651e-05C36.589 -0.0019373 53.3533 -0.0019373 70.1177 -4.74651e-05C74.2553 -4.74651e-05 77.1094 2.85928 77.1318 7.06228C77.1543 11.1557 77.1375 15.2491 77.1375 19.3424C77.1375 19.6769 77.1375 20.0133 77.1375 20.4556C78.8933 20.4556 80.5574 20.4423 82.2215 20.4593C85.8176 20.4952 88.8084 22.8254 89.6985 26.3273C89.8878 27.0738 89.9759 27.8675 89.9759 28.6386C89.9909 45.3239 89.989 62.0093 89.9815 78.6947C89.9815 79.0916 89.9478 79.5187 89.8016 79.8796C89.5524 80.4957 88.9827 80.8453 88.3793 80.6242C87.9276 80.4598 87.491 80.0195 87.2455 79.5867C87.0544 79.2484 87.1481 78.7344 87.1481 78.2978C87.1443 61.894 87.1481 45.4903 87.1331 29.0865C87.1331 28.2833 87.0937 27.4404 86.852 26.6882C86.2467 24.8079 84.9181 23.587 82.9523 23.4226C81.0821 23.2658 79.1876 23.3886 77.1375 23.3886C77.1375 24.0066 77.1468 24.6453 77.1356 25.2841C77.1131 26.5012 77.1862 27.7314 77.0306 28.9315C76.564 32.5241 73.8487 34.8788 70.2039 34.8864C61.9304 34.9053 53.6569 34.892 45.3834 34.892C36.9544 34.892 28.5254 34.7919 20.0983 34.9336C15.8894 35.0035 12.5725 31.5621 12.8368 27.5821C12.9286 26.2158 12.8517 24.8381 12.8517 23.4302V23.4339ZM44.9225 32.0705C53.2578 32.0705 61.5912 32.0705 69.9265 32.0705C72.7243 32.0705 74.2628 30.5567 74.2666 27.7673C74.2759 20.894 74.2741 14.0207 74.2666 7.14732C74.2628 4.35036 72.7224 2.80825 69.9453 2.80825C53.3065 2.80636 36.6677 2.80636 20.0308 2.80825C17.2312 2.80825 15.6533 4.39572 15.6514 7.22102C15.6458 14.032 15.6458 20.843 15.6514 27.654C15.6533 30.4944 17.2143 32.0705 20.0121 32.0705C28.3155 32.0705 36.619 32.0705 44.9225 32.0705Z" fill="white"/>
<path d="M7.45066 49.0242C7.45066 47.93 7.43754 46.8377 7.45441 45.7435C7.49001 43.5437 9.15595 41.703 11.3372 41.6142C13.5635 41.5235 15.7972 41.548 18.0272 41.5783C20.5739 41.6123 22.3092 43.2508 22.4141 45.8153C22.5022 47.9678 22.5003 50.1279 22.416 52.2804C22.3148 54.8525 20.5214 56.542 17.9579 56.5817C15.9453 56.6119 13.9289 56.6119 11.9163 56.5817C9.21967 56.542 7.4619 54.7297 7.45066 52.0234C7.44691 51.0237 7.45066 50.024 7.45066 49.0242ZM14.9296 44.4168C13.9401 44.4168 12.9488 44.4093 11.9594 44.4187C10.7863 44.4301 10.2503 44.946 10.241 46.1215C10.2241 48.0869 10.2241 50.0523 10.241 52.0178C10.2503 53.1044 10.76 53.6714 11.8057 53.6884C13.8783 53.7224 15.9509 53.7205 18.0235 53.6903C19.071 53.6751 19.5601 53.163 19.5695 52.1293C19.5882 50.0712 19.5901 48.0113 19.5695 45.9514C19.5582 44.9327 19.0298 44.4357 17.9935 44.4206C16.9722 44.4055 15.9509 44.4168 14.9296 44.4168Z" fill="white"/>
<path d="M52.4576 49.0451C52.4576 50.077 52.4669 51.1069 52.4576 52.1388C52.4313 54.6542 50.7466 56.4797 48.2505 56.5667C46.0843 56.6423 43.9124 56.6366 41.7461 56.5704C39.3624 56.4986 37.6384 54.8545 37.5185 52.4487C37.4079 50.2055 37.4079 47.949 37.5147 45.7039C37.6328 43.2244 39.3512 41.6275 41.8079 41.5802C43.9442 41.5406 46.0843 41.533 48.2206 41.5821C50.7354 41.6407 52.4294 43.4209 52.4576 45.9514C52.4688 46.9814 52.4594 48.0133 52.4594 49.0451H52.4576ZM44.9768 44.4169C43.9555 44.4169 42.9342 44.4037 41.9129 44.4207C40.8747 44.4377 40.3462 44.9347 40.3369 45.9514C40.3163 48.0114 40.3181 50.0694 40.3369 52.1293C40.3444 53.129 40.8185 53.6658 41.791 53.6828C43.9255 53.7187 46.0618 53.7168 48.1943 53.6828C49.1013 53.6677 49.6429 53.112 49.656 52.2068C49.686 50.1166 49.686 48.0265 49.656 45.9363C49.6429 44.9782 49.0788 44.4452 48.1325 44.4245C47.0812 44.4018 46.028 44.4188 44.9768 44.4188V44.4169Z" fill="white"/>
<path d="M75.0646 41.5801C76.1796 41.5801 77.2965 41.5404 78.4096 41.5877C80.7408 41.6878 82.4798 43.4473 82.536 45.8077C82.5885 47.9621 82.5848 50.1203 82.536 52.2747C82.4836 54.6937 80.6996 56.4966 78.256 56.5684C76.1197 56.6327 73.9796 56.6289 71.8433 56.5684C69.2798 56.4966 67.5426 54.6294 67.5295 52.0252C67.5201 50.0258 67.5164 48.0263 67.5295 46.0269C67.5464 43.4586 69.276 41.6557 71.8077 41.5763C72.8908 41.5423 73.9759 41.5706 75.0609 41.5706C75.0609 41.5725 75.0609 41.5763 75.0609 41.5782L75.0646 41.5801ZM75.0684 44.4167C74.0471 44.4167 73.0258 44.4073 72.0063 44.4186C70.9644 44.4319 70.3891 44.8986 70.3666 45.9078C70.3198 47.9961 70.3235 50.0881 70.3648 52.1764C70.3835 53.1686 70.9045 53.6713 71.8902 53.6864C73.9927 53.7185 76.0972 53.7185 78.1997 53.6864C79.1517 53.6713 79.6652 53.1931 79.6858 52.2482C79.7308 50.1278 79.7308 48.0055 79.6876 45.887C79.6689 44.9157 79.1067 44.4375 78.1304 44.4224C77.1091 44.4054 76.0878 44.4186 75.0684 44.4186V44.4167Z" fill="white"/>
<path d="M14.9296 80.9929C13.8146 80.9929 12.6977 81.0099 11.5827 80.9891C9.30401 80.9456 7.47691 79.0936 7.45442 76.7861C7.43381 74.5995 7.43381 72.4111 7.45442 70.2246C7.47691 67.9152 9.28714 66.0537 11.5752 66.0159C13.6815 65.9819 15.7897 66.0008 17.8961 66.0064C20.5233 66.0159 22.3223 67.6771 22.4198 70.3115C22.4985 72.4338 22.4966 74.5617 22.4198 76.684C22.3261 79.3222 20.5271 80.9834 17.9035 80.9929C16.9122 80.9966 15.9209 80.9929 14.9296 80.9929ZM19.5751 73.5375C19.5751 72.5075 19.5901 71.4775 19.5714 70.4476C19.5526 69.4214 19.056 68.8544 18.0441 68.8355C15.9715 68.7958 13.8952 68.7977 11.8226 68.8355C10.8257 68.8525 10.2578 69.4384 10.2447 70.4268C10.2185 72.4867 10.2166 74.5466 10.2447 76.6065C10.2578 77.5496 10.8238 78.1487 11.7533 78.1657C13.8577 78.2035 15.964 78.2035 18.0685 78.1657C19.0635 78.1487 19.5526 77.5742 19.5714 76.5347C19.5901 75.5369 19.5751 74.5372 19.5751 73.5375Z" fill="white"/>
<path d="M74.9972 80.9928C73.9122 80.9928 72.8271 81.006 71.7421 80.989C69.4559 80.955 67.5951 79.1502 67.5426 76.8371C67.492 74.6203 67.4939 72.3997 67.5426 70.181C67.5913 67.866 69.4353 66.0461 71.7253 66.0139C73.8934 65.9837 76.0635 65.9894 78.2335 66.0102C80.6359 66.0329 82.478 67.8263 82.5361 70.2585C82.5885 72.4129 82.5867 74.5711 82.5361 76.7274C82.4798 79.2012 80.6209 80.9758 78.1548 80.9909C77.1016 80.9985 76.0466 80.9909 74.9934 80.9909L74.9972 80.9928ZM74.9672 78.1788C75.9885 78.1788 77.0098 78.1958 78.0311 78.1732C79.1067 78.1505 79.6745 77.644 79.6952 76.5876C79.7326 74.5296 79.7326 72.4677 79.6952 70.4097C79.6764 69.3892 79.1311 68.8487 78.1173 68.8317C76.0747 68.7977 74.0321 68.7996 71.9895 68.8298C70.9401 68.8449 70.376 69.4081 70.3573 70.4645C70.3236 72.4923 70.3236 74.522 70.3573 76.5498C70.376 77.6043 70.9513 78.1467 71.9951 78.1732C72.9846 78.1996 73.9759 78.1788 74.9653 78.1788H74.9672Z" fill="white"/>
<path d="M50.4973 81.3915C49.4835 81.3971 48.732 80.6563 48.7189 79.6396C48.7058 78.6172 49.431 77.8442 50.4298 77.8178C51.4699 77.7913 52.2663 78.5737 52.2607 79.6188C52.2551 80.628 51.5017 81.3839 50.4973 81.3915Z" fill="white"/>
<path d="M39.501 81.3898C38.4965 81.4011 37.7226 80.6527 37.6982 79.6511C37.6758 78.6533 38.4291 77.8463 39.411 77.818C40.438 77.7877 41.2756 78.5928 41.2737 79.6095C41.2737 80.596 40.4904 81.3803 39.4991 81.3898H39.501Z" fill="white"/>
<path d="M63.8078 16.676C65.2377 17.3242 66.2346 18.2635 66.4482 19.7867C66.7162 21.6878 66.7743 23.589 65.8804 25.3693C65.0428 27.038 63.583 27.8223 61.8196 27.8997C59.4996 28.0018 57.1741 27.9602 54.8504 27.9357C53.7054 27.9243 53.3194 27.484 53.3194 26.3085C53.3137 20.467 53.325 14.6255 53.3081 8.78403C53.3062 7.92227 53.5442 7.17956 54.4493 7.17011C57.1066 7.14743 59.7826 7.07373 62.4174 7.34964C64.7298 7.59154 65.8973 9.15633 66.0509 11.5054C66.1859 13.5634 65.8205 15.4211 63.8097 16.6741L63.8078 16.676ZM57.0579 24.7607C58.4127 24.7002 59.7058 24.7135 60.9801 24.5623C62.1194 24.4281 62.7772 23.4851 62.8709 22.1433C63.0301 19.8585 62.5916 18.7567 61.3492 18.322C61.2911 18.3013 61.233 18.2635 61.1749 18.2635C59.8051 18.2597 58.4371 18.2616 57.0579 18.2616V24.7626V24.7607ZM57.0541 15.1944C58.0136 15.1944 58.9337 15.1963 59.8538 15.1944C60.1012 15.1944 60.3523 15.2038 60.594 15.1622C61.7446 14.9638 62.3518 14.1398 62.3593 12.7962C62.3668 11.4279 61.799 10.5756 60.6053 10.466C59.4509 10.3602 58.2816 10.4433 57.056 10.4433V15.1944H57.0541Z" fill="white"/>
<path d="M40.835 23.432C40.4845 24.6358 40.1641 25.7697 39.8249 26.898C39.5232 27.9033 38.8804 28.1906 37.7036 27.8655C36.5211 27.5405 35.9983 26.845 36.285 25.8926C38.0522 20.0567 39.8287 14.2247 41.6201 8.39644C41.9481 7.32868 42.7033 6.92425 44.1237 6.93937C45.4467 6.95449 46.1701 7.39482 46.4961 8.4588C48.0478 13.516 49.5844 18.577 51.1267 23.6361C51.3178 24.2616 51.5071 24.8872 51.6945 25.5127C52.0786 26.7978 51.805 27.3458 50.5589 27.79C49.1928 28.2775 48.5594 27.9449 48.1602 26.5427C47.9222 25.7055 47.703 24.8588 47.42 24.0367C47.3376 23.8005 47.064 23.4622 46.8728 23.4584C44.8658 23.4169 42.8569 23.432 40.8331 23.432H40.835ZM44.1219 12.1534L43.9326 12.1704C43.168 14.8918 42.4053 17.6132 41.6239 20.3969H46.4381C45.6473 17.5867 44.8846 14.871 44.12 12.1553L44.1219 12.1534Z" fill="white"/>
<path d="M27.0729 24.7134C29.2973 24.7134 31.3942 24.7078 33.4912 24.7153C34.5874 24.7191 35.0578 25.201 35.0709 26.3047C35.084 27.4424 34.5931 27.9526 33.4556 27.9564C30.7009 27.9621 27.9462 27.9677 25.1915 27.9545C23.6979 27.9469 23.3381 27.5671 23.3363 26.0571C23.3344 20.346 23.3363 14.6349 23.3325 8.92195C23.3325 8.2057 23.3494 7.50268 24.1964 7.26834C25.0828 7.02455 26.0198 6.90549 26.7281 7.61418C26.9998 7.88632 27.0561 8.46838 27.0579 8.90872C27.0804 13.7769 27.071 18.6471 27.071 23.5153C27.071 23.88 27.071 24.2429 27.071 24.7134H27.0729Z" fill="white"/>
</g>
<defs>
<clipPath id="clip0_2587_264">
<rect width="90" height="96" fill="white"/>
</clipPath>
</defs>
</svg>
