<svg width="94" height="83" viewBox="0 0 94 83" fill="none" xmlns="http://www.w3.org/2000/svg">
<g clip-path="url(#clip0_2587_559)">
<path d="M88.7242 0.00664738C69.6347 0.00316569 50.5452 0.00316569 31.4592 0.00664738C30.9085 0.00664738 30.3562 0.0136108 29.8091 0.0727995C29.1078 0.154619 28.6992 0.619425 28.6663 1.29835C28.6334 2.06955 29.0853 2.5831 29.8316 2.71018C30.3683 2.79896 30.9293 2.74326 31.4817 2.74326H88.3796C91.0686 2.74326 91.2227 2.88775 91.2227 5.50946C91.2262 24.6988 91.2262 43.8881 91.2227 63.0809C91.2227 65.8001 91.1413 65.8767 88.4593 65.8767H5.67923C3.74691 65.8767 2.77844 64.8694 2.77382 62.8546V5.83674C2.77382 5.53035 2.79287 5.22048 2.77036 4.91757C2.6682 3.363 3.32097 2.6684 4.92258 2.72759C7.12328 2.80593 9.32745 2.74674 11.5316 2.74674C15.5694 2.74674 19.6072 2.73281 23.645 2.75022C24.6441 2.75718 25.3419 2.45428 25.354 1.33491C25.3609 0.260811 24.6042 0.0501685 23.7402 0.0118699C23.4355 0.00142484 23.1308 0.00490653 22.8226 0.00490653C16.8888 0.00316569 10.955 -0.00727938 5.01781 0.00664738C1.41461 0.0188333 0 1.44807 0 5.0168V63.5161C0 67.2328 1.50638 68.7474 5.21347 68.7509C15.9226 68.7543 26.6283 68.7509 37.334 68.7509H39.4032C38.6759 70.772 38.456 72.854 37.3202 74.0918C36.3679 75.1293 34.3109 74.3059 32.7456 74.4347C32.5656 74.4486 32.3786 74.4539 32.1985 74.487C29.9614 74.863 28.649 76.341 28.5572 78.6319C28.5243 79.4292 28.5901 80.2352 28.5347 81.029C28.436 82.4687 29.1043 83.0119 30.4895 83.0014C34.7732 82.9683 39.0569 82.9823 43.3405 82.9945C44.3292 82.9979 45.3352 82.85 45.3577 81.6575C45.3837 80.3432 44.3517 80.2317 43.2782 80.2387C39.7287 80.2718 36.1809 80.2648 32.6314 80.2352C32.0686 80.2317 31.1908 80.6304 31.2271 79.4188C31.2566 78.4509 31.2964 77.5317 32.498 77.321C32.8547 77.2619 33.2322 77.2984 33.5958 77.2984C42.5302 77.2949 51.4611 77.2949 60.3973 77.2984C60.7609 77.2984 61.1401 77.2619 61.495 77.321C62.6967 77.5317 62.7365 78.4509 62.7659 79.4188C62.8023 80.6304 61.9244 80.2317 61.3617 80.2352C57.8122 80.2648 54.2644 80.2648 50.7183 80.2422C49.7331 80.2352 48.7462 80.2753 48.6873 81.5095C48.625 82.8761 49.6725 82.9945 50.7235 82.991C54.3319 82.9875 57.9421 82.991 61.5504 82.991C64.2227 82.991 65.5219 81.6389 65.448 78.9348C65.3753 76.1599 63.8897 74.6175 61.1834 74.4243C59.625 74.3163 57.6564 75.1258 56.6244 74.043C55.589 72.9637 55.4262 71.0401 54.886 69.4855C54.8306 69.3201 54.8081 69.1391 54.725 68.7509H56.9101C67.5569 68.7509 78.2038 68.7543 88.8471 68.7474C92.4624 68.7474 93.9948 67.2137 93.9948 63.631C93.9983 44.1945 93.9983 24.758 93.9983 5.32145C93.9983 1.35406 92.6754 0.0101291 88.7225 0.0101291L88.7242 0.00664738ZM40.5563 74.3442C40.5425 74.1962 40.5165 74.1301 40.5338 74.0779C41.1225 72.3527 41.2541 70.114 42.4367 69.0573C43.5795 68.0336 45.8131 68.7874 47.5688 68.7683C51.7122 68.7317 51.7174 68.7578 53.0385 72.7322C53.2117 73.2457 53.3554 73.7697 53.5268 74.3425H40.5546L40.5563 74.3442Z" fill="white"/>
<path d="M46.8762 56.9919C34.0286 56.9919 21.1811 56.9919 8.33354 56.9919C5.95103 56.9919 5.69823 56.7499 5.69823 54.3685C5.69304 38.9916 5.69304 23.6164 5.69823 8.23954C5.69823 5.95207 5.96488 5.69442 8.21753 5.69442C34.0961 5.69268 59.9747 5.69268 85.8534 5.69442C88.0021 5.69442 88.2913 5.97296 88.2982 8.12986C88.312 13.1122 88.3034 18.0945 88.3034 23.075C88.3034 23.3205 88.3034 23.5677 88.2982 23.8131C88.2757 24.7201 87.8896 25.4635 86.9442 25.4617C85.9244 25.46 85.533 24.7514 85.54 23.7156C85.5694 19.226 85.4984 14.7346 85.585 10.2467C85.611 8.91324 85.3339 8.51111 83.9158 8.51285C59.322 8.56333 34.7281 8.55985 10.1343 8.51981C8.81488 8.51807 8.40279 8.76005 8.40972 10.1962C8.47378 24.2814 8.47032 38.3649 8.41491 52.45C8.40972 53.8183 8.72312 54.163 10.1048 54.1613C34.6987 54.1143 59.2925 54.1143 83.8864 54.1613C85.2421 54.163 85.6075 53.8636 85.5919 52.464C85.5123 45.2081 85.559 37.9488 85.5486 30.6912C85.5486 29.8452 85.5919 29.0774 86.6031 28.832C87.2108 28.6858 87.7095 28.8842 88.0316 29.3891C88.4142 29.9897 88.3034 30.6947 88.3034 31.3667C88.3069 38.2552 88.3051 45.1437 88.3051 52.0322C88.3051 57.6082 88.7241 56.9867 83.4016 56.9919C71.2276 57.0023 59.0519 56.9954 46.8779 56.9954L46.8762 56.9919Z" fill="white"/>
<path d="M67.1619 19.3007C66.4815 18.6357 65.7283 18.7541 65.0599 19.393C64.7032 19.7324 64.3362 20.0614 64.0314 20.4427C63.4618 21.1564 63.0133 21.2591 62.3155 20.5019C60.8646 18.9212 59.3426 17.4067 57.7791 15.9409C57.0622 15.2654 57.1402 14.8511 57.8154 14.2192C58.4665 13.6134 59.2924 13.0928 59.4655 12.1215C59.4292 11.5644 59.2127 11.124 58.7452 10.8907C57.9782 10.5025 57.3964 10.8419 56.7765 11.3677C53.5837 14.0712 51.9232 17.478 52.1293 21.6839C52.1951 23.0836 51.7691 23.3934 50.4065 23.3986C42.8867 23.4248 39.0463 27.2912 39.0064 34.8569C38.9995 36.0389 38.745 36.3975 37.5329 36.3853C33.341 36.3488 29.8106 37.8668 27.1129 41.1953C26.5138 41.9299 26.0256 42.6367 26.8844 43.4114C27.6739 44.1199 28.4496 43.8431 29.1145 43.105C29.3604 42.8317 29.6772 42.6176 29.8816 42.3181C30.5828 41.3102 31.1421 41.5609 31.8589 42.3669C32.9168 43.5559 34.089 44.6422 35.2128 45.7685C36.374 46.936 36.4144 48.1018 35.334 49.2659C34.721 49.9274 34.0856 50.6133 34.9115 51.4715C35.727 52.3176 36.4802 51.9328 37.2819 51.2504C40.4124 48.58 42.0694 45.2375 41.8893 41.0996C41.827 39.6442 42.272 39.2926 43.7074 39.2891C51.0332 39.2699 54.9862 35.2695 54.9897 27.8865C54.9931 26.5931 55.3065 26.2571 56.5844 26.2658C60.7797 26.2919 64.2877 24.7147 66.9697 21.3932C67.5325 20.6986 67.8961 20.0231 67.1602 19.3024L67.1619 19.3007ZM39.1934 41.6253C39.0653 42.7046 39.0757 43.8344 38.5839 44.7101C36.9044 43.0737 35.2595 41.4738 33.5765 39.834C34.65 39.35 35.8292 39.2647 37.0256 39.2316C39.4462 39.162 39.4947 39.1585 39.1934 41.6253ZM47.9841 35.9031C46.3081 36.5577 44.5749 36.7596 42.7897 36.6604C42.2495 36.6273 41.846 36.5089 41.8235 35.8474C41.7543 33.6505 41.6694 31.4518 43.1014 29.2427C44.9315 31.1263 46.5626 32.8619 48.2664 34.5244C49.0126 35.2486 48.8031 35.5846 47.9841 35.9014V35.9031ZM52.3596 28.475C52.3561 28.7187 52.3457 28.9659 52.3076 29.2061C52.1085 30.5831 52.2124 32.4458 50.938 32.9437C50.074 33.2797 49.2377 31.511 48.3477 30.7276C47.572 30.0434 46.8708 29.2688 46.1436 28.5289C44.9056 27.2685 44.9488 26.9918 46.6769 26.4834C47.7209 26.177 48.7962 25.8968 49.7814 26.0064C52.2643 26.0064 52.3977 26.1387 52.3613 28.4732L52.3596 28.475ZM56.4493 23.4665C55.1005 23.5588 54.5395 23.1897 54.7628 21.7744C54.9689 20.4601 54.9758 19.1075 55.3758 17.9985C56.9843 19.6315 58.6015 21.2748 60.236 22.9373C59.0967 23.2803 57.7825 23.3725 56.4476 23.4648L56.4493 23.4665Z" fill="white"/>
<path d="M46.8156 62.9367C45.0443 62.9367 43.273 62.9315 41.5034 62.9385C40.5546 62.9419 39.9814 62.5398 39.9814 61.5336C39.9814 60.5935 40.5684 60.2436 41.4099 60.2419C45.1343 60.2332 48.8604 60.2332 52.5848 60.2419C53.4246 60.2436 54.0133 60.59 54.015 61.5318C54.0168 62.5381 53.4437 62.9419 52.4948 62.9385C50.6023 62.9315 48.7081 62.9367 46.8156 62.9367Z" fill="white"/>
</g>
<defs>
<clipPath id="clip0_2587_559">
<rect width="94" height="83" fill="white"/>
</clipPath>
</defs>
</svg>
