<svg width="99" height="38" viewBox="0 0 99 38" fill="none" xmlns="http://www.w3.org/2000/svg">
<g clip-path="url(#clip0_2587_539)">
<path d="M51.2308 0H0V4.80231H51.2308V0Z" fill="white"/>
<path d="M6.16574 3.70215H3.33838V18.3272H6.16574V3.70215Z" fill="white"/>
<path d="M16.3176 3.70215H13.4902V18.3272H16.3176V3.70215Z" fill="white"/>
<path d="M26.468 3.70215H23.6406V18.3272H26.468V3.70215Z" fill="white"/>
<path d="M36.6189 3.70215H33.7915V18.3272H36.6189V3.70215Z" fill="white"/>
<path d="M46.7693 3.70215H43.9419V18.3272H46.7693V3.70215Z" fill="white"/>
<path d="M99 33.1978H0V38.0001H99V33.1978Z" fill="white"/>
<path d="M6.16574 20.9731H3.33838V35.5982H6.16574V20.9731Z" fill="white"/>
<path d="M16.0778 20.9731H13.2505V35.5982H16.0778V20.9731Z" fill="white"/>
<path d="M25.99 20.9731H23.1626V35.5982H25.99V20.9731Z" fill="white"/>
<path d="M35.9021 20.9731H33.0747V35.5982H35.9021V20.9731Z" fill="white"/>
<path d="M45.8132 20.9731H42.9858V35.5982H45.8132V20.9731Z" fill="white"/>
<path d="M55.7253 20.9731H52.8979V35.5982H55.7253V20.9731Z" fill="white"/>
<path d="M65.6374 20.9731H62.8101V35.5982H65.6374V20.9731Z" fill="white"/>
<path d="M75.5495 20.9731H72.7222V35.5982H75.5495V20.9731Z" fill="white"/>
<path d="M85.4607 20.9731H82.6333V35.5982H85.4607V20.9731Z" fill="white"/>
<path d="M95.3728 20.9731H92.5454V35.5982H95.3728V20.9731Z" fill="white"/>
</g>
<defs>
<clipPath id="clip0_2587_539">
<rect width="99" height="38" fill="white"/>
</clipPath>
</defs>
</svg>
