<svg width="94" height="94" viewBox="0 0 94 94" fill="none" xmlns="http://www.w3.org/2000/svg">
<g clip-path="url(#clip0_2587_255)">
<path d="M39.1033 0C40.4634 0.301626 41.8438 0.540336 43.1835 0.917831C52.1932 3.45297 58.9936 11.3822 59.9595 20.6716C60.2537 23.4898 60.1297 26.3525 60.1538 29.1967C60.1593 29.811 60.3055 30.1737 60.881 30.4883C61.982 31.0915 62.737 32.076 62.7925 33.3399C62.8684 35.009 62.9701 36.7318 62.6593 38.3528C62.0653 41.4412 59.31 43.5507 56.1347 43.6636C55.6498 43.6803 55.1632 43.6655 54.6802 43.6655C54.4452 44.7979 54.2731 45.8768 53.9937 46.9241C52.8853 51.0692 50.5334 54.3704 47.0583 56.863C46.5809 57.2053 46.3588 57.5347 46.3884 58.1287C46.4366 59.1354 46.4236 60.1476 46.3921 61.1561C46.3755 61.6853 46.5087 61.9758 47.0731 62.1405C48.5368 62.5643 49.9764 63.0658 51.5067 63.5635C55.2205 55.6565 61.3177 50.8841 70.0888 50.0163C75.962 49.4352 81.282 51.1432 85.8766 54.8904C95.2046 62.5014 96.239 75.438 90.314 84.0926C89.5867 83.617 88.8558 83.1396 88.0564 82.6178C91.4039 77.1348 92.2106 71.3706 90.0234 65.3196C88.458 60.9914 85.6231 57.6605 81.6576 55.3345C73.7397 50.6917 63.4864 52.359 57.541 59.2205C51.3309 66.3873 51.0682 76.5353 56.8748 83.9224C62.2984 90.8227 72.9865 94.0648 82.6051 88.0748C83.0917 88.7946 83.5802 89.5182 84.1983 90.4323C82.7605 91.141 81.4152 91.9034 79.996 92.4826C77.3979 93.5429 74.6723 94.0019 71.8559 94C47.9039 93.9889 23.952 93.9944 0 93.9963C0 88.6114 0 83.2266 0 77.8399C0.0536625 77.7344 0.140633 77.6345 0.159137 77.5234C0.501467 75.5009 1.42853 73.7837 2.83671 72.307C5.159 69.8699 8.09748 68.4673 11.2044 67.381C16.2135 65.6286 21.2392 63.9207 26.265 62.2164C26.8405 62.0221 27.0996 61.7649 27.0607 61.1154C26.9978 60.0791 27.0903 59.0336 27.0181 57.9973C26.9941 57.6383 26.748 57.2294 26.4834 56.9648C25.1492 55.6287 23.6355 54.4481 22.4476 52.9974C20.2678 50.3401 19.189 47.1721 18.8485 43.6636C18.2952 43.6636 17.7808 43.6803 17.2701 43.6599C14.1095 43.5378 11.3487 41.3894 10.7677 38.3139C10.4716 36.7466 10.5641 35.0885 10.6252 33.4786C10.677 32.1 11.4764 31.0638 12.6736 30.4143C13.1621 30.1497 13.2916 29.8499 13.2861 29.341C13.2639 27.4443 13.2694 25.5475 13.2805 23.6508C13.3083 18.9525 14.5277 14.5983 17.1128 10.6568C17.7234 9.7279 18.434 8.86374 19.1353 7.92185C19.9106 8.61577 20.5601 9.19682 21.2226 9.78897C21.0672 9.99067 20.9765 10.1128 20.8803 10.2294C18.3711 13.2715 16.6798 16.719 16.3356 20.6531C16.0747 23.6268 16.1968 26.6356 16.1524 29.6278C16.1524 29.6778 16.2116 29.7277 16.2634 29.811H18.7856C18.7856 29.428 18.7856 29.1004 18.7856 28.7729C18.7856 26.9372 18.7856 25.1016 18.7856 23.2659C18.7856 20.9158 19.7274 19.0191 21.7111 17.7737C25.0326 15.6883 28.517 15.1868 32.1457 17.0169C32.9636 17.4295 33.7796 17.8459 34.5938 18.2641C35.9983 18.9858 37.4046 18.9932 38.8146 18.2808C39.6325 17.8681 40.443 17.4425 41.2646 17.0335C45.1986 15.0739 48.8514 15.7234 52.2414 18.3048C53.8679 19.5428 54.6617 21.2582 54.6599 23.3196C54.6599 25.1552 54.658 26.9909 54.6617 28.8266C54.6617 29.1486 54.695 29.4705 54.7117 29.8036H57.4281C57.3282 26.6597 57.467 23.5527 57.0895 20.5087C55.5259 7.9274 42.5136 -0.177645 30.41 3.7694C27.7083 4.65022 25.2991 6.05103 23.0952 7.9237C22.4698 7.19832 21.885 6.52104 21.304 5.84747C23.9464 3.45667 27.4215 1.59325 30.8485 0.751289C32.0587 0.453364 33.2911 0.247963 34.5142 0C36.0445 0 37.5748 0 39.1033 0ZM48.7903 34.4631C48.9198 35.3791 49.1493 36.1637 49.1178 36.9372C48.9827 40.2939 46.1127 42.6348 42.7431 42.2073C39.6362 41.8131 37.4638 38.5933 38.2725 35.4161C38.4964 34.5353 38.1337 34.2854 37.4786 34.1522C37.0419 34.0634 36.5645 34.0486 36.1278 34.1226C35.1101 34.2984 35.0083 34.4927 35.2211 35.5105C35.8669 38.6192 33.8962 41.641 30.867 42.1869C27.6991 42.7569 24.768 40.6288 24.3924 37.3757C24.285 36.4412 24.5108 35.4679 24.5904 34.4298C23.704 34.093 22.7214 33.7211 21.6149 33.301C21.6149 35.0515 21.6038 36.6374 21.6186 38.2232C21.6352 40.2088 21.465 42.2258 21.7407 44.178C22.8047 51.6983 28.4633 56.8426 36.039 57.3608C44.0847 57.9104 51.5289 51.2339 51.7843 43.1677C51.8824 40.1126 51.8195 37.0537 51.8232 33.9949C51.8232 33.8025 51.7621 33.6119 51.7158 33.3399C50.6685 33.7433 49.71 34.1115 48.7903 34.4649V34.4631ZM21.6149 26.1526C21.6149 27.2537 21.6482 28.3565 21.6019 29.4557C21.576 30.0608 21.7352 30.3921 22.3495 30.5975C23.5634 31.0027 24.7329 31.5394 25.9486 31.9391C26.3261 32.063 26.8553 32.0519 27.2069 31.8798C29.0906 30.9639 30.9225 30.9842 32.7101 32.0667C33.1394 32.3258 33.4188 32.3184 33.8499 32.0612C35.7429 30.9287 37.684 30.9194 39.5733 32.0556C40.0563 32.3462 40.3523 32.2925 40.7946 32.026C42.1695 31.1952 43.7756 30.7751 45.1672 31.5282C46.6901 32.3536 47.8799 31.8761 49.1974 31.321C49.8432 31.049 50.4982 30.7936 51.1625 30.5716C51.6252 30.4161 51.8472 30.1885 51.8398 29.6556C51.8102 27.4535 51.8898 25.2496 51.7861 23.0513C51.7528 22.3481 51.4512 21.5006 50.9757 21.0009C49.1733 19.1042 46.8881 18.2771 44.3234 18.9062C42.9577 19.2412 41.6735 19.9721 40.406 20.6309C37.9357 21.9132 35.5042 21.9447 33.0524 20.6253C32.2993 20.22 31.5387 19.8296 30.7727 19.4503C28.158 18.1549 25.6673 18.6175 23.2914 20.0628C22.1793 20.7382 21.576 21.767 21.6112 23.1234C21.6371 24.1319 21.6167 25.1423 21.6149 26.1508V26.1526ZM14.6758 80.14C15.8933 76.0246 17.0776 72.0239 18.3156 67.8437C15.749 68.7485 13.3897 69.4869 11.1081 70.4158C9.53527 71.0561 7.99941 71.8481 6.57458 72.7715C3.98213 74.4498 2.68127 76.8758 2.73864 80.0308C2.7997 83.4246 2.75159 86.8183 2.75159 90.2139C2.75159 90.5378 2.75159 90.8616 2.75159 91.1984H20.3621C20.3714 91.0615 20.3973 90.9671 20.3806 90.8801C19.8755 88.1192 19.3851 85.3565 18.8318 82.6067C18.7689 82.294 18.4118 81.9516 18.1028 81.7906C16.9999 81.2114 15.86 80.7044 14.6758 80.14ZM36.9457 73.2174C34.5253 71.0172 32.1864 68.891 29.9437 66.8518V91.1725H43.4703V66.4928C41.1628 68.8707 38.9738 71.1264 36.9457 73.2174ZM18.0306 78.6485C18.9262 79.0797 19.6775 79.496 20.4695 79.8051C21.056 80.0345 21.3003 80.3954 21.4002 81.0005C21.7 82.8065 22.0516 84.6015 22.3884 86.402C22.69 88.01 22.9971 89.6162 23.2969 91.1947H26.9534V64.9144C25.2047 65.5121 23.556 66.0506 21.9332 66.6538C21.687 66.7445 21.4724 67.1053 21.3799 67.3866C20.9728 68.632 20.6119 69.894 20.2419 71.1504C19.5091 73.6301 18.7782 76.1115 18.0306 78.6485ZM46.4606 64.8774V91.2095H50.0837C50.1504 91.0208 50.2336 90.8542 50.2669 90.6784C50.7795 87.9212 51.3013 85.1659 51.775 82.4013C51.8676 81.8591 51.9249 81.2151 51.7232 80.7322C50.1929 77.0738 49.5989 73.2951 50.106 69.3573C50.241 68.3137 50.439 67.2793 50.6148 66.1967C49.2159 65.7526 47.8669 65.3233 46.4625 64.8774H46.4606ZM36.7199 69.448C38.9497 67.1497 41.0962 64.9384 43.2372 62.7216C43.3593 62.5939 43.5221 62.4273 43.5258 62.2756C43.5499 61.1709 43.5388 60.0643 43.5388 58.8411C38.922 60.6324 34.4365 60.6009 29.8789 58.8411C29.8789 60.0236 29.8622 61.0284 29.8919 62.0313C29.8974 62.2478 30.0232 62.5069 30.175 62.666C32.3252 64.9107 34.4902 67.1423 36.7181 69.4462L36.7199 69.448ZM18.7208 40.7972V32.6589C17.3811 32.6589 16.1024 32.6459 14.8238 32.6626C13.8505 32.6755 13.386 33.1474 13.3601 34.1356C13.3398 34.8387 13.4045 35.5456 13.3453 36.2451C13.1029 39.0985 15.3715 41.3228 18.7208 40.7972ZM54.7117 40.7639C57.3559 41.2858 59.793 39.7665 60.028 37.409C60.1427 36.258 60.0853 35.0867 60.0687 33.9265C60.0576 33.2196 59.6412 32.7237 58.9566 32.6922C57.5613 32.6274 56.1606 32.6718 54.7117 32.6718V40.7639ZM32.5435 36.7854C32.5565 35.2532 31.3481 34.0116 29.8419 34.0079C28.3745 34.0042 27.1588 35.2033 27.1292 36.6818C27.0996 38.2195 28.2709 39.4575 29.7845 39.4834C31.3037 39.5093 32.5306 38.3102 32.5435 36.7854ZM40.8982 36.6411C40.852 38.1844 42.0029 39.4353 43.5129 39.4816C45.0321 39.5278 46.2811 38.3417 46.3107 36.8243C46.3403 35.2865 45.1672 34.0449 43.6498 34.0097C42.1935 33.9746 40.9426 35.1737 40.8982 36.6411ZM60.8903 91.2132C58.3459 89.5478 56.1365 87.5382 54.1602 84.9753C53.7532 87.157 53.3812 89.1573 52.9982 91.2132H60.8921H60.8903Z" fill="white"/>
<path d="M66.4596 60.945H63.7598V58.2729H80.2212C80.2212 58.7041 80.2212 59.1501 80.2212 59.596C80.2212 60.0161 80.2212 60.4361 80.2212 60.9247H77.4678C77.4678 61.2837 77.4678 61.5742 77.4678 61.8666C77.4678 65.7803 77.4567 69.6959 77.4826 73.6096C77.4863 74.0741 77.6177 74.5756 77.8268 74.9919C78.8371 77.0126 79.9048 79.0037 80.9281 81.017C82.488 84.0833 80.7986 87.044 77.3438 87.1347C73.7688 87.2272 70.1864 87.2235 66.6113 87.1384C63.1159 87.0551 61.4283 84.0796 63.0233 80.9597C64.0522 78.9482 65.1088 76.9516 66.1376 74.9419C66.2856 74.6514 66.4429 74.3202 66.4429 74.0075C66.4633 69.6996 66.4559 65.3898 66.4559 60.9469L66.4596 60.945ZM69.2075 67.9213C69.2075 70.0345 69.2426 72.0497 69.1871 74.0611C69.1686 74.7032 69.015 75.3898 68.7338 75.9653C67.6883 78.1025 66.5558 80.1991 65.4715 82.3179C64.846 83.5411 65.2679 84.3016 66.6391 84.3146C70.1864 84.3442 73.7336 84.3442 77.2809 84.3146C78.6539 84.3035 79.0869 83.5429 78.467 82.329C77.3993 80.2361 76.278 78.1692 75.2528 76.0559C74.9475 75.4268 74.7699 74.6829 74.7477 73.9834C74.681 71.9775 74.7236 69.9679 74.7236 67.9213H69.2093H69.2075ZM74.6533 65.0012V61.0227H69.2741V65.0012H74.6533Z" fill="white"/>
<path d="M86.4226 88.4375C85.9045 87.8916 85.3013 87.2569 84.6943 86.6166C85.305 86.0152 85.9304 85.4027 86.5818 84.7625C87.1313 85.3768 87.7124 86.0282 88.3156 86.7017C87.7846 87.1884 87.124 87.7935 86.4226 88.4375Z" fill="white"/>
<path d="M42.5969 6.67456V9.29852H39.9082V6.67456H42.5969Z" fill="white"/>
<path d="M45.4023 12.039V9.41138H48.0892V12.039H45.4023Z" fill="white"/>
</g>
<defs>
<clipPath id="clip0_2587_255">
<rect width="94" height="94" fill="white"/>
</clipPath>
</defs>
</svg>
