<svg width="67" height="67" viewBox="0 0 67 67" fill="none" xmlns="http://www.w3.org/2000/svg">
<g clip-path="url(#clip0_2515_2216)">
<path d="M52.9966 43.2413V46.4675H56.1537V48.609H47.6037V46.515H50.7648V43.2413H50.0241C46.1125 43.2413 42.2019 43.2413 38.2903 43.2413C37.0973 43.2413 36.7744 42.9158 36.7744 41.7193C36.7744 34.4417 36.7744 27.165 36.7744 19.8874C36.7744 18.682 37.0944 18.3564 38.2804 18.3564C47.3617 18.3564 56.4431 18.3564 65.5244 18.3564C66.665 18.3564 66.9998 18.6959 66.9998 19.8518C66.9998 27.1512 66.9998 34.4516 66.9998 41.751C66.9998 42.9009 66.662 43.2404 65.5175 43.2413C61.6059 43.2423 57.6952 43.2413 53.7836 43.2413H52.9976H52.9966ZM38.9638 37.7846H64.7887V20.5544H38.9638V37.7846Z" fill="white"/>
<path d="M4.93589 58.3884H7.54297C10.2409 58.3884 12.9388 58.4003 15.6368 58.3775C16.092 58.3736 16.4011 58.5032 16.651 58.8713C17.0035 59.3909 17.3798 59.8946 17.8508 60.5527C17.4854 60.5527 17.2583 60.5527 17.0302 60.5527C12.7808 60.5527 8.53149 60.5636 4.28215 60.5379C3.76271 60.5349 3.53952 60.711 3.35584 61.1682C2.61026 63.0277 2.2271 64.9545 2.21623 66.9991H0.0802048C0.0574916 64.9436 0.385352 62.9654 1.07761 61.0475C2.31597 57.6155 4.60309 54.9455 7.33164 52.6387C9.77084 50.5774 12.3374 48.6664 14.7618 46.5882C16.0871 45.4521 17.2366 44.1092 18.4572 42.8514C18.6221 42.6812 18.7396 42.4635 18.9569 42.1587H18.1372C14.8546 42.1587 11.5721 42.1488 8.28955 42.1706C7.81257 42.1735 7.48076 42.0508 7.21808 41.654C6.87343 41.1344 6.49718 40.6357 6.04094 39.9954H6.88627C11.1356 39.9954 15.385 39.9855 19.6353 40.0083C20.1241 40.0112 20.3424 39.841 20.5142 39.4115C21.1195 37.8944 21.5175 36.3358 21.5975 34.6168H4.44608V32.4189H21.6163C21.5264 30.596 21.1186 28.9246 20.3828 27.3422C20.2999 27.164 19.9325 27.0255 19.6955 27.0245C15.536 27.0057 11.3766 27.0106 7.21709 27.0106H6.04489C6.59494 26.2674 7.02847 25.6222 7.53211 25.0373C7.6674 24.88 8.01403 24.8553 8.26387 24.8543C11.5691 24.8434 14.8744 24.8464 18.1797 24.8464H18.9569C17.4183 22.7573 15.6852 21.0492 13.7022 19.4925C14.2177 19.0828 14.6947 18.683 15.1983 18.3208C15.301 18.2466 15.5588 18.2486 15.6545 18.3268C19.5494 21.5222 22.7322 25.1967 23.5597 30.405C24.5344 36.5397 22.8635 41.8618 18.388 46.1538C16.1049 48.3438 13.5778 50.2825 11.1228 52.2864C9.04501 53.9826 6.98304 55.6858 5.3309 57.8243C5.22228 57.9649 5.12747 58.1163 4.93787 58.3884H4.93589Z" fill="white"/>
<path d="M10.1331 47.5758C9.5929 47.9964 9.0468 48.4209 8.48588 48.8583C2.8935 44.503 -0.523358 39.1512 0.143225 31.7607C0.583664 26.873 2.933 23.0195 6.50095 19.8566C8.68734 17.918 11.0683 16.2 13.2744 14.2831C15.0352 12.7522 16.7811 11.1737 18.3237 9.43004C20.513 6.95501 21.5183 3.93668 21.6516 0.633341C21.6595 0.434429 21.6694 0.236505 21.6813 0.000976562H23.8904C23.7561 1.17169 23.686 2.35231 23.4746 3.50719C22.728 7.5854 20.517 10.8343 17.4833 13.5142C15.0401 15.6725 12.4153 17.6211 9.93064 19.7339C8.54612 20.9116 7.1616 22.1288 5.98644 23.5073C0.69723 29.7093 0.935225 38.1517 6.52168 44.122C7.64154 45.3185 8.88978 46.3942 10.1341 47.5778L10.1331 47.5758Z" fill="white"/>
<path d="M2.21799 0.015625C2.23478 2.09481 2.61696 4.04237 3.39316 5.9177C3.56894 6.34323 3.78817 6.46495 4.23453 6.46298C8.4582 6.44516 12.6819 6.45209 16.9055 6.45209H17.8467C17.2788 7.21014 16.8117 7.87615 16.2903 8.49664C16.1846 8.62331 15.8775 8.61044 15.6632 8.61143C12.3826 8.61836 9.10306 8.61638 5.82248 8.61638C5.57659 8.61638 5.33069 8.61638 4.94555 8.61638C6.45845 10.7104 8.21527 12.4106 10.1913 13.9732C9.6699 14.3868 9.18897 14.7886 8.68039 15.1528C8.58164 15.224 8.32488 15.2062 8.22514 15.1251C4.40439 11.9979 1.27688 8.39372 0.369336 3.3249C0.176768 2.2482 0.122454 1.14676 0 0.015625H2.21799Z" fill="white"/>
<path d="M13.6743 53.0424C14.2925 52.5595 14.8376 52.1329 15.3709 51.7163C20.195 54.4922 24.0345 61.4512 23.7926 66.992H21.6585C21.7237 60.8475 18.2811 56.6545 13.6753 53.0424H13.6743Z" fill="white"/>
<path d="M29.2617 6.48584H31.3424V8.56601H29.2617V6.48584Z" fill="white"/>
<path d="M35.6618 6.4917V8.56791H33.5781V6.4917H35.6618Z" fill="white"/>
<path d="M37.8828 8.58114V6.50195H39.9695V8.58114H37.8828Z" fill="white"/>
<path d="M44.2778 8.59172H42.2109V6.48779H44.2778V8.59172Z" fill="white"/>
<path d="M48.6229 6.50586V8.57713H46.5234V6.50586H48.6229Z" fill="white"/>
<path d="M50.833 8.58516V6.49707H52.9276V8.58516H50.833Z" fill="white"/>
<path d="M52.9348 12.9193H50.8521V10.8193H52.9348V12.9193Z" fill="white"/>
<path d="M27.105 32.4517H29.1827V34.5318H27.105V32.4517Z" fill="white"/>
<path d="M33.5106 32.4751V34.5434H31.4111V32.4751H33.5106Z" fill="white"/>
<path d="M52.9403 54.1133V56.1845H50.8408V54.1133H52.9403Z" fill="white"/>
<path d="M31.3435 58.4268V60.503H29.2598V58.4268H31.3435Z" fill="white"/>
<path d="M33.5781 58.4023H35.6381V60.5033H33.5781V58.4023Z" fill="white"/>
<path d="M37.8926 58.4219H39.9605V60.507H37.8926V58.4219Z" fill="white"/>
<path d="M44.2965 58.4287V60.501H42.2168V58.4287H44.2965Z" fill="white"/>
<path d="M48.6192 58.438V60.5162H46.5435V58.438H48.6192Z" fill="white"/>
<path d="M50.8589 58.4141H52.9258V60.518H50.8589V58.4141Z" fill="white"/>
<path d="M59.4306 22.7402V34.5325H57.3291V22.7402H59.4306Z" fill="white"/>
<path d="M53.0137 25.6885H55.0895V34.5297H53.0137V25.6885Z" fill="white"/>
<path d="M50.7599 34.5544H48.6841V28.689H50.7599V34.5544Z" fill="white"/>
<path d="M44.3765 31.6411H46.4552V34.5328H44.3765V31.6411Z" fill="white"/>
</g>
<defs>
<clipPath id="clip0_2515_2216">
<rect width="67" height="67" fill="white"/>
</clipPath>
</defs>
</svg>
