<svg width="59" height="59" viewBox="0 0 59 59" fill="none" xmlns="http://www.w3.org/2000/svg">
<g clip-path="url(#clip0_2515_2187)">
<path d="M10.2914 59.0002C10.2914 57.8896 10.243 56.821 10.3059 55.7573C10.3641 54.7777 10.9309 54.013 11.7868 53.617C12.5134 53.2807 13.3419 53.0318 14.1364 52.9978C16.1275 52.9122 18.1234 52.9687 20.1177 52.9687C20.3374 52.9687 20.5586 52.9687 20.8283 52.9687V45.8558C20.599 45.8558 20.368 45.8558 20.1371 45.8558C15.3426 45.8558 10.5482 45.8558 5.75369 45.8558C2.86312 45.8558 0.981825 43.9806 0.98021 41.0999C0.978595 34.5867 0.98021 28.0735 0.98021 21.5588C0.98021 21.3777 0.98021 21.1966 0.98021 20.9816C1.5777 21.1045 1.97495 21.3276 2.03632 22.0017C2.07669 22.4543 2.30277 22.8876 2.39643 23.3402C2.67257 24.6642 3.34434 25.639 4.72181 26.0367V38.3048H55.2632C55.2632 38.0882 55.2632 37.8748 55.2632 37.6614C55.2632 28.7687 55.2632 19.8759 55.2632 10.9831C55.2632 10.0811 55.1195 9.93722 54.2104 9.93722C45.3061 9.93722 36.4035 9.93076 27.4992 9.95177C26.9469 9.95177 26.758 9.79335 26.6272 9.26796C26.3769 8.26084 26.0168 7.27958 25.6874 6.24012C25.8618 6.22881 26.0523 6.20617 26.2429 6.20617C35.5492 6.20456 44.8556 6.20132 54.1619 6.20617C56.7328 6.20617 58.5317 7.64816 58.9386 10.0132C58.9935 10.3284 58.9968 10.655 58.9968 10.9767C59 21.0188 59 31.061 58.9968 41.1047C58.9968 43.9871 57.1139 45.8574 54.2201 45.859C49.4256 45.8607 44.6311 45.859 39.8366 45.859C39.617 45.859 39.399 45.859 39.139 45.859V52.9429C39.3732 52.9526 39.5879 52.9704 39.8011 52.9704C41.8148 52.972 43.8301 52.9768 45.8439 52.9704C46.711 52.9671 47.5265 53.1514 48.2548 53.6267C49.193 54.2394 49.7324 55.0784 49.6985 56.2471C49.6727 57.1508 49.6936 58.0577 49.6936 59.0034H10.2914V59.0002Z" fill="white"/>
<path d="M11.5508 4.82719C12.116 4.82719 12.7022 4.79647 13.2803 4.84659C13.4515 4.86113 13.7066 5.07937 13.747 5.24588C13.902 5.88281 14.2557 6.25785 14.9048 6.36293C15.0211 6.38071 15.1422 6.43244 15.2375 6.50034C15.7865 6.89801 16.3178 6.86892 16.8992 6.5359C17.0526 6.44861 17.3578 6.55045 17.558 6.6426C17.7292 6.72342 17.8341 6.9352 17.994 7.05321C18.6222 7.51554 18.8644 8.03123 18.3638 8.75707C18.2637 8.90256 18.3396 9.20325 18.3961 9.41502C18.4575 9.64457 18.6416 9.84502 18.6852 10.0746C18.824 10.8037 19.2229 11.2417 19.9577 11.3888C20.0804 11.4131 20.258 11.5796 20.2645 11.6879C20.2968 12.2505 20.3113 12.8179 20.2596 13.3772C20.2467 13.5211 19.9884 13.7102 19.8107 13.7604C19.2423 13.9188 18.8483 14.2049 18.7578 14.8273C18.7352 14.9825 18.6771 15.1522 18.5818 15.2735C18.1523 15.815 18.2475 16.3469 18.5834 16.8771C18.7724 17.1746 18.7013 17.3928 18.4365 17.5949C18.3089 17.6919 18.1894 17.8066 18.0958 17.936C17.6145 18.5988 17.0687 18.8784 16.3049 18.3401C16.1838 18.2544 15.9238 18.2997 15.7542 18.3595C15.3005 18.5179 14.8208 18.657 14.4301 18.9205C14.1523 19.108 13.9408 19.4588 13.81 19.7821C13.6598 20.1523 13.4918 20.3641 13.0704 20.2945C12.9137 20.2687 12.7442 20.2671 12.5891 20.2945C11.7962 20.4336 11.294 20.1781 11.1293 19.3343C11.097 19.1678 10.8693 19.0077 10.6965 18.9108C10.4721 18.7863 10.1846 18.7685 9.96823 18.6327C9.35136 18.2431 8.75387 18.1704 8.14023 18.6182C8.10955 18.6408 8.04818 18.6715 8.03042 18.6586C7.56373 18.2932 7.0825 17.9408 6.6465 17.5415C6.52538 17.43 6.43011 17.097 6.50278 16.9967C7.30212 15.9072 6.27831 15.0876 6.08937 14.1532C6.06031 14.0109 5.69697 13.8913 5.47089 13.8444C4.92992 13.7313 4.74582 13.4209 4.83948 12.9003C4.85402 12.8227 4.8524 12.7371 4.83948 12.6595C4.70707 11.8496 4.89762 11.2611 5.82293 11.1043C5.96665 11.0801 6.10068 10.8554 6.18788 10.6953C6.29285 10.5046 6.30899 10.2605 6.42365 10.0778C6.83382 9.41987 6.83543 8.83143 6.52377 8.07488C6.24117 7.38784 7.18747 7.16475 7.52659 6.68786C7.62832 6.54399 8.03849 6.43083 8.15638 6.51489C9.23832 7.28922 10.0457 6.30958 10.9323 6.05255C11.2246 5.96687 11.3409 5.27659 11.5524 4.8288L11.5508 4.82719ZM12.6198 8.91388C10.5786 8.88155 8.94765 10.4626 8.92343 12.4962C8.89921 14.525 10.5076 16.1787 12.5181 16.1965C14.4979 16.2143 16.1579 14.6042 16.1983 12.6271C16.2403 10.6097 14.6368 8.94621 12.6182 8.91388H12.6198Z" fill="white"/>
<path d="M50.5914 36.3759H46.0859V35.7454C46.0859 30.2814 46.0859 24.8174 46.0859 19.3518C46.0859 18.2848 46.3265 18.0504 47.4117 18.0488C48.077 18.0488 48.7407 18.0456 49.4061 18.0488C50.3265 18.0536 50.5897 18.3123 50.5897 19.2418C50.593 24.5442 50.5914 29.8482 50.5914 35.1505C50.5914 35.5482 50.5914 35.9459 50.5914 36.3726V36.3759Z" fill="white"/>
<path d="M18.7743 1.6233C19.0521 1.1545 19.3944 0.865129 19.929 0.96374C20.4715 1.06558 20.6411 1.49559 20.7687 1.95955C20.9172 2.50272 21.082 3.04103 21.2241 3.58743C21.4179 4.33914 21.048 4.87261 20.2794 4.92757C19.7384 4.96637 19.1926 4.95344 18.65 4.97607C18.1591 4.99547 17.5923 5.05528 17.3969 4.50888C17.2612 4.12899 17.371 3.66018 17.371 3.08468C15.7271 2.19395 13.7635 1.77849 11.6965 1.96278C6.82611 2.39441 2.98762 5.88943 2.11399 10.6906C1.67313 13.1107 2.06231 15.4207 3.225 17.5934C3.69331 18.468 3.65778 19.0095 3.09581 19.3328C2.50962 19.6691 2.02194 19.4104 1.52134 18.4987C-2.70148 10.8038 2.33038 1.08498 11.0344 0.0891746C13.6327 -0.208274 16.0792 0.247599 18.3965 1.44224C18.5014 1.49721 18.6112 1.54571 18.7743 1.6233Z" fill="white"/>
<path d="M6.58353 23.5874C6.01187 23.8202 5.61623 24.1063 5.21898 24.1111C4.65702 24.1176 4.46485 23.6084 4.34051 23.1089C4.20486 22.5625 4.01269 22.029 3.88512 21.481C3.70103 20.6986 4.0676 20.2265 4.86372 20.178C5.38693 20.1457 5.91014 20.1295 6.43335 20.0972C6.92749 20.0681 7.49753 20.0309 7.69777 20.5563C7.8431 20.9394 7.72038 21.426 7.71715 22.0031C10.4059 23.3724 13.353 23.5954 16.355 22.4558C22.2927 20.2007 24.8991 13.2106 21.9359 7.58655C21.889 7.49763 21.839 7.41034 21.7938 7.31981C21.4772 6.68612 21.6097 6.12517 22.1377 5.86166C22.6448 5.60948 23.147 5.80993 23.4877 6.39998C27.6314 13.5759 23.4635 22.9892 15.3457 24.7869C12.2807 25.4658 9.51447 25.0649 6.58514 23.5841L6.58353 23.5874Z" fill="white"/>
<path d="M45.645 13.8719C45.138 13.7862 44.7649 13.5534 44.6793 13.0151C44.597 12.4913 44.92 12.0177 45.4965 11.9449C46.4347 11.8285 47.3794 11.7461 48.3241 11.7024C48.9571 11.6733 49.3592 12.1551 49.301 12.8098C49.2316 13.5922 49.125 14.3714 49.0443 15.1538C48.9861 15.7148 48.8214 16.2094 48.1836 16.3032C47.5522 16.3969 47.2308 15.996 47.029 15.3882C46.8594 15.5418 46.7124 15.663 46.58 15.7972C44.7068 17.687 42.8239 19.567 40.9733 21.4778C40.4694 21.9984 39.9737 22.1083 39.2971 21.8804C36.9717 21.0979 34.6318 20.3608 32.3032 19.5864C31.956 19.4717 31.7202 19.5137 31.4328 19.74C28.9621 21.6831 26.4784 23.6069 24.0012 25.5419C23.6153 25.8426 23.1664 26.001 22.795 25.6631C22.5543 25.4433 22.4219 25.0294 22.3864 24.6867C22.367 24.4911 22.5963 24.2115 22.7869 24.0611C25.5111 21.9192 28.2483 19.795 30.979 17.6611C31.3569 17.3669 31.7412 17.3814 32.1724 17.5221C34.5026 18.2883 36.8409 19.032 39.1695 19.8047C39.5813 19.9421 39.838 19.8774 40.1562 19.5573C42.0068 17.7048 43.8897 15.8845 45.7629 14.0545C45.7242 13.9931 45.6854 13.9317 45.6466 13.8702L45.645 13.8719Z" fill="white"/>
<path d="M33.8373 36.3794H29.4126C29.4029 36.1773 29.3884 36.0011 29.3884 35.8265C29.3884 32.2797 29.3868 28.7314 29.3884 25.1846C29.3884 24.226 29.65 23.9625 30.5995 23.9593C31.365 23.9576 32.1304 23.9479 32.8942 23.9625C33.5563 23.9754 33.8728 24.2745 33.8728 24.9211C33.8793 28.6505 33.8761 32.3784 33.8728 36.1078C33.8728 36.1854 33.8518 36.2614 33.8357 36.381L33.8373 36.3794Z" fill="white"/>
<path d="M42.1635 36.3808H37.7711C37.7582 36.1803 37.7372 36.0057 37.7372 35.8311C37.7356 32.91 37.734 29.9889 37.7372 27.0677C37.7372 26.1059 37.9859 25.8585 38.95 25.8569C39.7348 25.8553 40.5196 25.8456 41.3044 25.8617C41.9181 25.8731 42.2216 26.143 42.2233 26.7379C42.2329 29.8999 42.2233 33.0636 42.2184 36.2256C42.2184 36.2628 42.1942 36.2983 42.1635 36.3824V36.3808Z" fill="white"/>
<path d="M21.0417 36.3729C21.0417 34.3587 21.04 32.4059 21.0417 30.453C21.0417 29.8969 21.3517 29.5672 21.8862 29.5462C22.8099 29.5106 23.7368 29.5171 24.6605 29.5429C25.1321 29.5559 25.5035 29.8129 25.5083 30.3124C25.5309 32.3202 25.518 34.3296 25.518 36.3729H21.04H21.0417Z" fill="white"/>
</g>
<defs>
<clipPath id="clip0_2515_2187">
<rect width="59" height="59" fill="white"/>
</clipPath>
</defs>
</svg>
