<svg width="294" height="250" viewBox="0 0 294 250" fill="none" xmlns="http://www.w3.org/2000/svg">
<g clip-path="url(#clip0_2515_2424)">
<path d="M147.261 61.9847L148.5 65.7998C148.563 65.9883 148.739 66.1203 148.94 66.1203H152.958C153.404 66.1203 153.587 66.6923 153.228 66.95L149.978 69.3069C149.814 69.4263 149.751 69.6337 149.808 69.8223L151.047 73.6374C151.185 74.0585 150.701 74.4168 150.336 74.1528L147.085 71.7958C146.922 71.6764 146.708 71.6764 146.544 71.7958L143.294 74.1528C142.935 74.4168 142.445 74.0648 142.583 73.6374L143.822 69.8223C143.885 69.6337 143.822 69.4263 143.652 69.3069L140.401 66.95C140.043 66.686 140.225 66.1203 140.672 66.1203H144.69C144.891 66.1203 145.067 65.9946 145.13 65.7998L146.368 61.9847C146.507 61.5635 147.104 61.5635 147.242 61.9847H147.261Z" fill="white"/>
<path d="M170.891 70.0171L171.941 73.2477C171.991 73.4111 172.142 73.518 172.312 73.518H175.707C176.084 73.518 176.242 74.0019 175.933 74.2219L173.186 76.2143C173.047 76.3149 172.991 76.4909 173.047 76.648L174.097 79.8786C174.217 80.2368 173.802 80.5322 173.5 80.3123L170.752 78.3198C170.614 78.2193 170.432 78.2193 170.293 78.3198L167.545 80.3123C167.237 80.5322 166.829 80.2368 166.948 79.8786L167.998 76.648C168.048 76.4846 167.998 76.3149 167.86 76.2143L165.112 74.2219C164.804 74.0019 164.961 73.518 165.338 73.518H168.734C168.904 73.518 169.055 73.4111 169.105 73.2477L170.155 70.0171C170.274 69.6588 170.777 69.6588 170.897 70.0171H170.891Z" fill="white"/>
<path d="M123.103 70.0171L122.053 73.2477C122.003 73.4111 121.852 73.518 121.682 73.518H118.287C117.909 73.518 117.752 74.0019 118.06 74.2219L120.808 76.2143C120.946 76.3149 121.003 76.4909 120.946 76.648L119.896 79.8786C119.777 80.2368 120.192 80.5322 120.494 80.3123L123.241 78.3198C123.38 78.2193 123.562 78.2193 123.7 78.3198L126.448 80.3123C126.756 80.5322 127.165 80.2368 127.046 79.8786L125.996 76.648C125.945 76.4846 125.996 76.3149 126.134 76.2143L128.882 74.2219C129.183 74.0019 129.033 73.518 128.655 73.518H125.26C125.09 73.518 124.939 73.4111 124.889 73.2477L123.839 70.0171C123.719 69.6588 123.216 69.6588 123.097 70.0171H123.103Z" fill="white"/>
<path d="M147.261 188.015L148.5 184.2C148.563 184.012 148.739 183.88 148.94 183.88H152.958C153.404 183.88 153.587 183.308 153.228 183.05L149.978 180.693C149.814 180.574 149.751 180.366 149.808 180.178L151.047 176.363C151.185 175.941 150.701 175.583 150.336 175.847L147.085 178.204C146.922 178.324 146.708 178.324 146.544 178.204L143.294 175.847C142.935 175.583 142.445 175.935 142.583 176.363L143.822 180.178C143.885 180.366 143.822 180.574 143.652 180.693L140.401 183.05C140.043 183.314 140.225 183.88 140.672 183.88H144.69C144.891 183.88 145.067 184.005 145.13 184.2L146.368 188.015C146.507 188.436 147.104 188.436 147.242 188.015H147.261Z" fill="white"/>
<path d="M170.891 179.983L171.941 176.752C171.991 176.589 172.142 176.482 172.312 176.482H175.707C176.084 176.482 176.242 175.998 175.933 175.778L173.186 173.786C173.047 173.685 172.991 173.509 173.047 173.352L174.097 170.121C174.217 169.763 173.802 169.468 173.5 169.688L170.752 171.68C170.614 171.781 170.432 171.781 170.293 171.68L167.545 169.688C167.237 169.468 166.829 169.763 166.948 170.121L167.998 173.352C168.048 173.515 167.998 173.685 167.86 173.786L165.112 175.778C164.804 175.998 164.961 176.482 165.338 176.482H168.734C168.904 176.482 169.055 176.589 169.105 176.752L170.155 179.983C170.274 180.341 170.777 180.341 170.897 179.983H170.891Z" fill="white"/>
<path d="M123.103 179.983L122.053 176.752C122.003 176.589 121.852 176.482 121.682 176.482H118.287C117.909 176.482 117.752 175.998 118.06 175.778L120.808 173.786C120.946 173.685 121.003 173.509 120.946 173.352L119.896 170.121C119.777 169.763 120.192 169.468 120.494 169.688L123.241 171.68C123.38 171.781 123.562 171.781 123.7 171.68L126.448 169.688C126.756 169.468 127.165 169.763 127.046 170.121L125.996 173.352C125.945 173.515 125.996 173.685 126.134 173.786L128.882 175.778C129.183 175.998 129.033 176.482 128.655 176.482H125.26C125.09 176.482 124.939 176.589 124.889 176.752L123.839 179.983C123.719 180.341 123.216 180.341 123.097 179.983H123.103Z" fill="white"/>
<path d="M35.4447 85.5101H68.3929C82.8675 56.7805 112.622 37.0575 146.997 37.0575C181.373 37.0575 211.127 56.7805 225.601 85.5101H258.549C256.173 84.2091 254.072 82.82 253.312 80.9848C251.293 76.1263 257.927 67.0002 255.311 62.4874C252.683 57.9432 241.459 59.1437 238.271 54.9955C235.077 50.841 239.126 40.307 235.423 36.6113C231.719 32.9093 221.187 36.957 217.031 33.7641C212.887 30.5775 214.088 19.3584 209.536 16.7312C205.021 14.1166 195.891 20.7474 191.031 18.7299C186.221 16.7375 184.466 5.58754 179.367 4.22994C174.355 2.89119 167.269 11.6653 162.019 10.9802C156.888 10.314 152.304 0 146.991 0C141.678 0 137.094 10.314 131.963 10.9802C126.713 11.6653 119.632 2.89119 114.615 4.22994C109.515 5.59382 107.761 16.7375 102.957 18.7299C98.0966 20.7474 88.9667 14.1166 84.452 16.7312C79.9059 19.3584 81.1069 30.5775 76.957 33.7641C72.8007 36.957 62.2623 32.9093 58.5651 36.6113C54.8615 40.3133 58.9109 50.841 55.7167 54.9955C52.5287 59.1374 41.305 57.9369 38.6766 62.4874C36.0609 67.0002 42.6946 76.1263 40.6762 80.9848C39.9154 82.82 37.8152 84.2091 35.4321 85.5101H35.4447ZM235.743 74.0082C236.963 73.3545 238.479 73.8071 239.145 75.0075C239.799 76.2269 239.346 77.7416 238.145 78.4078C237.762 78.609 237.341 78.7095 236.944 78.7095C236.058 78.7095 235.19 78.2444 234.744 77.4085C234.09 76.1892 234.543 74.6744 235.743 74.0082ZM226.148 60.1305C227.236 59.2631 228.802 59.4642 229.651 60.5453C230.499 61.6452 230.305 63.2165 229.217 64.065C228.764 64.417 228.217 64.5993 227.682 64.5993C226.934 64.5993 226.199 64.2661 225.714 63.6313C224.866 62.5503 225.048 60.9601 226.148 60.1305ZM214.384 47.9875C215.321 46.9693 216.905 46.9064 217.924 47.8555V47.8366C218.942 48.7731 219.005 50.357 218.075 51.3752C217.572 51.9094 216.905 52.1923 216.22 52.1923C215.616 52.1923 215 51.9786 214.535 51.526C213.516 50.5896 213.453 49.0057 214.384 47.9875ZM200.802 37.9437C201.55 36.7935 203.103 36.4604 204.254 37.2272C205.424 37.9752 205.738 39.5276 204.99 40.6778C204.506 41.4132 203.707 41.8154 202.89 41.8154C202.424 41.8154 201.94 41.6834 201.519 41.4132C200.368 40.6464 200.035 39.0939 200.802 37.9437ZM185.73 30.2695C186.283 28.9999 187.767 28.4342 189.031 28.9873C190.301 29.5404 190.867 31.0237 190.314 32.2745C189.899 33.2235 188.981 33.7766 188.013 33.7766C187.679 33.7766 187.346 33.7075 187.025 33.5755C185.743 33.0098 185.17 31.5391 185.724 30.2695H185.73ZM169.608 25.1974C169.941 23.8649 171.312 23.0478 172.645 23.3809C173.997 23.714 174.796 25.0842 174.462 26.4167C174.179 27.548 173.161 28.3148 172.041 28.3148C171.84 28.3148 171.626 28.2834 171.425 28.2331C170.092 27.9 169.275 26.5298 169.608 25.1974ZM155.574 20.5652C156.957 20.6783 157.976 21.8851 157.875 23.2678C157.756 24.5688 156.655 25.5682 155.372 25.5682C155.303 25.5682 155.24 25.5682 155.171 25.5493C153.788 25.4488 152.769 24.2294 152.87 22.8655C152.989 21.4828 154.19 20.4457 155.574 20.5652ZM138.27 20.5777C139.653 20.4583 140.854 21.4954 140.973 22.8655C141.093 24.2483 140.074 25.4488 138.691 25.5682C138.622 25.5682 138.559 25.587 138.49 25.587C137.188 25.587 136.1 24.5877 135.987 23.2867C135.868 21.9039 136.905 20.7034 138.276 20.584L138.27 20.5777ZM121.217 23.4186C122.55 23.0855 123.902 23.8837 124.254 25.2351C124.587 26.5675 123.77 27.9188 122.437 28.2708C122.236 28.3211 122.022 28.34 121.821 28.34C120.701 28.34 119.683 27.592 119.4 26.4544C119.067 25.1219 119.865 23.7518 121.217 23.4186ZM104.843 29.0376C106.095 28.4845 107.579 29.0565 108.132 30.3198C108.698 31.5894 108.113 33.0538 106.849 33.6258C106.535 33.7766 106.183 33.8395 105.85 33.8395C104.881 33.8395 103.963 33.2738 103.561 32.3373C102.995 31.0677 103.58 29.6033 104.843 29.0376ZM89.6269 37.2964C90.7776 36.5296 92.3496 36.8627 93.0978 38.0129C93.8461 39.1819 93.5317 40.7155 92.381 41.4823C91.9471 41.7526 91.4818 41.8845 91.0103 41.8845C90.1928 41.8845 89.3943 41.5012 88.9101 40.7658C88.1619 39.5967 88.4762 38.0443 89.6269 37.2964ZM75.9886 47.9372C76.9884 47.0007 78.5729 47.051 79.5098 48.0692C80.4467 49.0874 80.3964 50.6713 79.3778 51.6015C78.8936 52.054 78.2774 52.2677 77.6738 52.2677C77.0073 52.2677 76.3219 52.0037 75.8377 51.4632C74.9008 50.445 74.9511 48.8611 75.9886 47.9309V47.9372ZM64.2618 60.6647C65.1107 59.5648 66.6826 59.3825 67.783 60.2122C68.8645 61.0607 69.0657 62.6446 68.2169 63.7319C67.7138 64.3667 66.9845 64.6998 66.2299 64.6998C65.6954 64.6998 65.161 64.5175 64.6957 64.1656C63.6079 63.3171 63.413 61.7458 64.2618 60.6647ZM54.7798 75.1458C55.4463 73.9265 56.9679 73.4802 58.1815 74.1276C59.3825 74.7813 59.8352 76.3149 59.1813 77.5279C58.7285 78.3638 57.8608 78.8289 56.9805 78.8289C56.5781 78.8289 56.1631 78.7284 55.7984 78.5272C54.5786 77.861 54.1321 76.34 54.7798 75.1395V75.1458Z" fill="white"/>
<path d="M253.312 169.015C254.073 167.18 256.173 165.791 258.556 164.49H225.608C211.133 193.22 181.379 212.942 147.004 212.942C112.628 212.942 82.874 193.22 68.3994 164.49H35.4512C37.828 165.791 39.9281 167.18 40.6889 169.015C42.7073 173.874 36.0737 183 38.6894 187.513C41.3177 192.057 52.5415 190.856 55.7294 195.005C58.9236 199.159 54.8743 209.693 58.5778 213.389C62.2813 217.091 72.8134 213.043 76.9697 216.236C81.1134 219.423 79.9124 230.642 84.4648 233.269C88.9795 235.883 98.1094 229.253 102.97 231.27C107.78 233.263 109.534 244.412 114.634 245.77C119.645 247.109 126.732 238.335 131.982 239.02C137.113 239.686 141.697 250 147.01 250C152.323 250 156.907 239.686 162.038 239.02C167.288 238.335 174.368 247.109 179.386 245.77C184.485 244.406 186.24 233.263 191.043 231.27C195.904 229.253 205.034 235.883 209.549 233.269C214.095 230.642 212.894 219.423 217.044 216.236C221.2 213.043 231.738 217.091 235.436 213.389C239.139 209.687 235.09 199.159 238.284 195.005C241.472 190.863 252.696 192.063 255.324 187.513C257.94 183 251.306 173.874 253.324 169.015H253.312ZM58.188 175.879C57.8044 176.08 57.3894 176.18 56.987 176.18C56.1004 176.18 55.2327 175.696 54.7862 174.86C54.1386 173.641 54.585 172.126 55.8049 171.473C57.0058 170.807 58.5401 171.259 59.194 172.472C59.8479 173.691 59.3952 175.206 58.1943 175.872L58.188 175.879ZM67.7832 189.775C67.3179 190.127 66.7834 190.309 66.2301 190.309C65.4944 190.309 64.7587 189.976 64.262 189.342C63.4131 188.254 63.6081 186.67 64.6959 185.841C65.7962 184.973 67.3682 185.174 68.217 186.274C69.0659 187.362 68.8647 188.927 67.7832 189.775ZM79.5163 201.918C79.0321 202.452 78.3656 202.735 77.6802 202.735C77.0829 202.735 76.4604 202.522 75.9762 202.069C74.9765 201.133 74.9073 199.549 75.8442 198.531C76.7811 197.512 78.3656 197.449 79.3842 198.38C80.4029 199.316 80.4657 200.9 79.5163 201.918ZM93.098 211.975C92.6138 212.71 91.8153 213.106 90.9978 213.106C90.5325 213.106 90.061 212.974 89.6271 212.704C88.4764 211.937 88.1557 210.384 88.9103 209.234C89.6585 208.084 91.2116 207.751 92.3812 208.518C93.5318 209.266 93.8525 210.818 93.098 211.968V211.975ZM108.132 219.668C107.73 220.617 106.812 221.17 105.843 221.17C105.51 221.17 105.158 221.101 104.844 220.956C103.574 220.403 102.989 218.92 103.561 217.669C104.114 216.399 105.598 215.815 106.849 216.387C108.12 216.94 108.704 218.423 108.132 219.674V219.668ZM124.254 224.771C123.952 225.903 122.934 226.657 121.814 226.657C121.613 226.657 121.412 226.638 121.217 226.588H121.198C119.865 226.236 119.048 224.884 119.394 223.533C119.727 222.201 121.098 221.383 122.431 221.729C123.764 222.062 124.581 223.432 124.248 224.765L124.254 224.771ZM138.49 229.422H138.276C136.905 229.303 135.874 228.09 135.987 226.72C136.107 225.337 137.308 224.319 138.691 224.432C140.074 224.532 141.093 225.752 140.974 227.116C140.873 228.435 139.773 229.416 138.49 229.416V229.422ZM155.574 229.422C155.511 229.441 155.442 229.441 155.373 229.441C154.09 229.441 152.983 228.442 152.87 227.141C152.769 225.758 153.788 224.558 155.171 224.438C156.542 224.338 157.756 225.356 157.875 226.738C157.976 228.109 156.957 229.322 155.574 229.422ZM172.652 226.619V226.6C172.45 226.669 172.249 226.682 172.035 226.682C170.916 226.682 169.898 225.934 169.615 224.796C169.281 223.445 170.099 222.094 171.432 221.761C172.765 221.409 174.136 222.226 174.469 223.577C174.802 224.909 173.985 226.28 172.652 226.613V226.619ZM189.038 221.019C188.704 221.151 188.371 221.22 188.038 221.22C187.07 221.22 186.152 220.667 185.737 219.737C185.183 218.467 185.768 216.984 187.019 216.437C188.289 215.884 189.773 216.456 190.32 217.719C190.874 218.989 190.302 220.453 189.038 221.025V221.019ZM204.254 212.779C203.839 213.062 203.355 213.194 202.883 213.194C202.066 213.194 201.268 212.792 200.796 212.063C200.029 210.893 200.362 209.341 201.513 208.593C202.663 207.845 204.216 208.159 204.984 209.31C205.732 210.479 205.399 212.031 204.248 212.779H204.254ZM217.924 202.151C217.44 202.603 216.824 202.817 216.22 202.817C215.553 202.817 214.868 202.547 214.384 202C213.447 200.982 213.516 199.398 214.535 198.461C215.553 197.525 217.138 197.594 218.075 198.612C219.012 199.63 218.943 201.214 217.924 202.144V202.151ZM229.657 189.442C229.154 190.077 228.425 190.41 227.689 190.41C227.136 190.41 226.601 190.228 226.136 189.876C225.054 189.027 224.866 187.456 225.721 186.375V186.356C226.557 185.275 228.142 185.086 229.223 185.941C230.305 186.79 230.506 188.361 229.657 189.442ZM239.152 174.98C238.699 175.816 237.831 176.3 236.951 176.3C236.549 176.3 236.133 176.199 235.75 175.986C234.549 175.332 234.096 173.817 234.75 172.598C235.417 171.378 236.938 170.932 238.152 171.598C239.372 172.246 239.806 173.767 239.152 174.986V174.98Z" fill="white"/>
<path d="M85.4262 85.5101C98.4609 65.2718 121.179 51.8341 146.997 51.8341C172.814 51.8341 195.532 65.2718 208.567 85.5101H216.37C202.6 61.4316 176.675 45.1592 146.997 45.1592C117.318 45.1592 91.3934 61.4316 77.623 85.5101H85.4262Z" fill="white"/>
<path d="M208.567 164.49C195.532 184.728 172.814 198.166 146.997 198.166C121.179 198.166 98.4609 184.722 85.4262 164.49H77.623C91.3934 188.568 117.324 204.841 146.997 204.841C176.669 204.841 202.6 188.568 216.37 164.49H208.567Z" fill="white"/>
<path d="M189.836 119.557C188.396 119.557 187.27 120.016 186.453 120.927C185.635 121.839 185.233 123.089 185.233 124.673C185.233 126.257 185.642 127.476 186.453 128.394C187.264 129.312 188.396 129.764 189.836 129.764C191.276 129.764 192.376 129.305 193.2 128.375C194.023 127.451 194.432 126.219 194.432 124.673C194.432 123.127 194.017 121.839 193.2 120.927C192.376 120.01 191.257 119.557 189.836 119.557Z" fill="white"/>
<path d="M226.135 119.557C224.695 119.557 223.57 120.016 222.753 120.927C221.935 121.839 221.533 123.089 221.533 124.673C221.533 126.257 221.941 127.476 222.753 128.394C223.564 129.312 224.695 129.764 226.135 129.764C227.575 129.764 228.676 129.305 229.499 128.375C230.323 127.451 230.732 126.219 230.732 124.673C230.732 123.127 230.317 121.839 229.499 120.927C228.676 120.01 227.556 119.557 226.135 119.557Z" fill="white"/>
<path d="M289.995 90.7833H3.99906C1.79203 90.7833 0 92.5746 0 94.7807V155.219C0 157.425 1.79203 159.217 3.99906 159.217H289.995C292.202 159.217 293.994 157.425 293.994 155.219V94.7807C293.994 92.5746 292.202 90.7833 289.995 90.7833ZM35.4256 134.717H29.8609L22.4475 123.573V134.717H16.8828V114.78H22.4475L29.8609 126.068V114.78H35.4256V134.717ZM57.6091 128.721C57.1752 129.777 56.5339 130.77 55.6913 131.687C54.8487 132.611 53.7861 133.372 52.4971 133.963C51.2081 134.56 49.743 134.855 48.0956 134.855C46.0898 134.855 44.3103 134.428 42.7698 133.567C41.223 132.706 40.0346 131.511 39.192 129.978C38.3495 128.438 37.9282 126.684 37.9282 124.705C37.9282 122.725 38.3495 120.996 39.192 119.456C40.0346 117.917 41.223 116.722 42.7572 115.868C44.2915 115.013 46.0583 114.579 48.0704 114.579C50.5919 114.579 52.6731 115.182 54.3206 116.389C55.968 117.596 56.9929 119.243 57.389 121.342H51.3967C51.076 120.814 50.6359 120.412 50.0763 120.129C49.5167 119.846 48.8564 119.708 48.1019 119.708C46.6997 119.708 45.5993 120.16 44.7945 121.065C43.9896 121.97 43.5872 123.19 43.5872 124.717C43.5872 126.433 44.0148 127.74 44.8762 128.633C45.7377 129.525 46.9952 129.978 48.6426 129.978C50.5919 129.978 51.9815 129.098 52.8178 127.344H47.2216V123.36H57.6154V128.733L57.6091 128.721ZM74.2404 131.857C73.6431 132.8 72.7816 133.548 71.6561 134.088C70.5306 134.635 69.1976 134.912 67.6633 134.912C65.3305 134.912 63.419 134.359 61.9225 133.259C60.426 132.159 59.6212 130.575 59.508 128.52H65.4437C65.5003 129.217 65.7078 129.726 66.0662 130.047C66.4246 130.367 66.8899 130.525 67.4558 130.525C67.9651 130.525 68.3864 130.399 68.7197 130.141C69.0529 129.884 69.2164 129.532 69.2164 129.079C69.2164 128.495 68.9398 128.042 68.3927 127.721C67.8457 127.401 66.9528 127.043 65.7204 126.647C64.4125 126.213 63.3562 125.792 62.5513 125.39C61.7465 124.987 61.0485 124.39 60.4512 123.611C59.8538 122.832 59.5583 121.807 59.5583 120.544C59.5583 119.28 59.879 118.162 60.5266 117.25C61.168 116.333 62.0609 115.641 63.199 115.17C64.3371 114.699 65.6198 114.466 67.0597 114.466C69.3862 114.466 71.2474 115.006 72.6433 116.094C74.0329 117.181 74.7812 118.702 74.8755 120.663H68.8266C68.8077 120.06 68.6254 119.607 68.2732 119.306C67.9211 119.004 67.4747 118.853 66.9214 118.853C66.5064 118.853 66.1605 118.979 65.8964 119.218C65.6324 119.463 65.5003 119.815 65.5003 120.267C65.5003 120.644 65.6449 120.971 65.9405 121.241C66.236 121.518 66.6007 121.75 67.0345 121.945C67.4684 122.14 68.1161 122.392 68.9649 122.693C70.235 123.127 71.2788 123.554 72.1025 123.982C72.9262 124.403 73.6368 125 74.2341 125.76C74.8315 126.521 75.127 127.489 75.127 128.658C75.127 129.827 74.8315 130.908 74.2341 131.851L74.2404 131.857ZM98.2285 119.186H92.8901V134.717H87.3254V119.186H82.0436V114.774H98.2347V119.186H98.2285ZM113.112 119.218H105.868V122.467H112.263V126.684H105.868V130.273H113.112V134.717H100.303V114.78H113.112V119.218ZM121.99 128.394C122.757 129.312 123.782 129.764 125.071 129.764C125.907 129.764 126.637 129.563 127.272 129.167C127.907 128.771 128.404 128.199 128.762 127.439H134.754C134.264 129.72 133.164 131.524 131.46 132.856C129.756 134.189 127.655 134.849 125.153 134.849C123.185 134.849 121.443 134.421 119.928 133.56C118.412 132.699 117.243 131.505 116.419 129.972C115.595 128.432 115.187 126.678 115.187 124.698C115.187 122.718 115.602 120.99 116.419 119.45C117.243 117.91 118.412 116.716 119.928 115.861C121.443 115.006 123.185 114.573 125.153 114.573C127.655 114.573 129.756 115.239 131.46 116.565C133.164 117.891 134.264 119.702 134.754 121.983H128.762C128.404 121.229 127.907 120.651 127.272 120.255C126.637 119.859 125.901 119.658 125.071 119.658C123.782 119.658 122.757 120.116 121.99 121.028C121.223 121.945 120.839 123.165 120.839 124.692C120.839 126.219 121.223 127.47 121.99 128.381V128.394ZM155.322 134.717H149.757V126.71H142.966V134.717H137.402V114.78H142.966V122.272H149.757V114.78H155.322V134.717ZM177.053 134.717H171.488L164.075 123.573V134.717H158.51V114.78H164.075L171.488 126.068V114.78H177.053V134.717ZM198.727 129.946C197.815 131.499 196.576 132.718 195.004 133.592C193.432 134.465 191.71 134.905 189.836 134.905C187.962 134.905 186.239 134.465 184.667 133.592C183.095 132.712 181.85 131.499 180.932 129.946C180.014 128.388 179.555 126.634 179.555 124.673C179.555 122.712 180.014 120.952 180.932 119.4C181.85 117.841 183.095 116.634 184.667 115.767C186.239 114.9 187.962 114.466 189.836 114.466C191.71 114.466 193.458 114.9 195.017 115.767C196.576 116.634 197.815 117.847 198.727 119.4C199.639 120.952 200.091 122.712 200.091 124.673C200.091 126.634 199.639 128.394 198.727 129.946ZM214.377 134.717H202.588V114.78H208.152V130.474H214.371V134.717H214.377ZM235.026 129.946C234.115 131.499 232.876 132.718 231.304 133.592C229.732 134.465 228.009 134.905 226.135 134.905C224.262 134.905 222.539 134.465 220.967 133.592C219.395 132.712 218.15 131.499 217.232 129.946C216.314 128.388 215.855 126.634 215.855 124.673C215.855 122.712 216.314 120.952 217.232 119.4C218.15 117.841 219.395 116.634 220.967 115.767C222.539 114.9 224.262 114.466 226.135 114.466C228.009 114.466 229.757 114.9 231.317 115.767C232.876 116.634 234.115 117.847 235.026 119.4C235.938 120.952 236.391 122.712 236.391 124.673C236.391 126.634 235.938 128.394 235.026 129.946ZM257.889 128.721C257.455 129.777 256.814 130.77 255.971 131.687C255.129 132.611 254.066 133.372 252.777 133.963C251.488 134.56 250.023 134.855 248.376 134.855C246.37 134.855 244.59 134.428 243.05 133.567C241.509 132.706 240.315 131.511 239.472 129.978C238.629 128.438 238.208 126.684 238.208 124.705C238.208 122.725 238.629 120.996 239.472 119.456C240.315 117.917 241.503 116.722 243.037 115.868C244.571 115.013 246.338 114.579 248.35 114.579C250.866 114.579 252.953 115.182 254.6 116.389C256.248 117.596 257.273 119.243 257.669 121.342H251.677C251.356 120.814 250.916 120.412 250.356 120.129C249.797 119.846 249.136 119.708 248.382 119.708C246.98 119.708 245.879 120.16 245.074 121.065C244.27 121.97 243.867 123.19 243.867 124.717C243.867 126.433 244.295 127.74 245.162 128.633C246.024 129.525 247.281 129.978 248.929 129.978C250.878 129.978 252.268 129.098 253.104 127.344H247.508V123.36H257.902V128.733L257.889 128.721ZM271.552 128.381V134.717H265.956V128.381L258.914 114.78H265.277L268.798 122.473L272.32 114.78H278.595L271.552 128.381Z" fill="white"/>
</g>
<defs>
<clipPath id="clip0_2515_2424">
<rect width="294" height="250" fill="white"/>
</clipPath>
</defs>
</svg>
