<svg width="76" height="76" viewBox="0 0 76 76" fill="none" xmlns="http://www.w3.org/2000/svg">
<g clip-path="url(#clip0_2515_1967)">
<path d="M60.3239 5.2527H50.8471C50.332 3.72778 48.8888 2.62635 47.1922 2.62635H43.1844C41.9681 0.990626 40.0413 0 38 0C35.9588 0 34.0319 0.990626 32.8154 2.62635H28.8077C27.1111 2.62635 25.6679 3.72778 25.1529 5.2527H15.676C12.8249 5.2527 10.5054 7.57226 10.5054 10.4233V70.8294C10.5054 73.6804 12.8249 76 15.676 76H60.3239C63.175 76 65.4946 73.6804 65.4946 70.8294V10.4233C65.4946 7.57226 63.175 5.2527 60.3239 5.2527ZM28.8077 14.2808H47.1922C48.345 14.2808 49.3806 13.7718 50.0879 12.9676H57.7797V68.2851H18.2203V12.9676H25.912C26.6193 13.7718 27.6549 14.2808 28.8077 14.2808ZM28.8077 5.08855H33.4758C33.914 5.08855 34.3193 4.85563 34.5398 4.47678C35.274 3.21531 36.5675 2.4622 38 2.4622C39.4326 2.4622 40.726 3.21531 41.46 4.47661C41.6805 4.85546 42.0859 5.08855 42.524 5.08855H47.1922C47.9615 5.08855 48.5874 5.71445 48.5874 6.4838V10.4233C48.5874 11.1927 47.9615 11.8186 47.1922 11.8186H28.8077C28.0384 11.8186 27.4125 11.1927 27.4125 10.4233V6.4838C27.4125 5.71445 28.0384 5.08855 28.8077 5.08855ZM63.0324 70.8294C63.0324 72.3228 61.8173 73.5378 60.3239 73.5378H15.676C14.1826 73.5378 12.9676 72.3228 12.9676 70.8294V10.4233C12.9676 8.92992 14.1826 7.7149 15.676 7.7149H24.9503V10.4233C24.9503 10.4509 24.9518 10.478 24.9524 10.5054H16.9892C16.3091 10.5054 15.7581 11.0566 15.7581 11.7365V69.5162C15.7581 70.1961 16.3091 70.7473 16.9892 70.7473H59.0108C59.6908 70.7473 60.2419 70.1961 60.2419 69.5162V11.7365C60.2419 11.0566 59.6908 10.5054 59.0108 10.5054H51.0475C51.0482 10.478 51.0496 10.4509 51.0496 10.4233V7.7149H60.3239C61.8173 7.7149 63.0324 8.92992 63.0324 10.4233V70.8294Z" fill="white"/>
<path d="M38.0001 7.71513C38.325 7.71513 38.642 7.58382 38.8701 7.35401C39.0999 7.12585 39.2312 6.8074 39.2312 6.48403C39.2312 6.16066 39.0999 5.84222 38.8701 5.61405C38.642 5.38425 38.3252 5.25293 38.0001 5.25293C37.6751 5.25293 37.3583 5.38425 37.1302 5.61405C36.9004 5.84222 36.769 6.15902 36.769 6.48403C36.769 6.80904 36.9004 7.12585 37.1302 7.35401C37.3583 7.58382 37.6751 7.71513 38.0001 7.71513Z" fill="white"/>
<path d="M30.1207 26.0994H52.4447C53.1248 26.0994 53.6758 25.5482 53.6758 24.8683C53.6758 24.1884 53.1248 23.6372 52.4447 23.6372H30.1207C29.4407 23.6372 28.8896 24.1884 28.8896 24.8683C28.8896 25.5482 29.4407 26.0994 30.1207 26.0994Z" fill="white"/>
<path d="M30.1207 39.2312H52.4447C53.1248 39.2312 53.6758 38.68 53.6758 38.0001C53.6758 37.3202 53.1248 36.769 52.4447 36.769H30.1207C29.4407 36.769 28.8896 37.3202 28.8896 38.0001C28.8896 38.68 29.4407 39.2312 30.1207 39.2312Z" fill="white"/>
<path d="M30.1208 52.3631H34.0603C34.7403 52.3631 35.2914 51.8119 35.2914 51.132C35.2914 50.4521 34.7403 49.9009 34.0603 49.9009H30.1208C29.4407 49.9009 28.8896 50.4521 28.8896 51.132C28.8896 51.8119 29.4407 52.3631 30.1208 52.3631Z" fill="white"/>
<path d="M30.1207 32.6653H52.4447C53.1248 32.6653 53.6758 32.1141 53.6758 31.4342C53.6758 30.7543 53.1248 30.2031 52.4447 30.2031H30.1207C29.4407 30.2031 28.8896 30.7543 28.8896 31.4342C28.8896 32.1141 29.4407 32.6653 30.1207 32.6653Z" fill="white"/>
<path d="M30.1207 45.7972H35.3734C36.0535 45.7972 36.6046 45.246 36.6046 44.5661C36.6046 43.8862 36.0535 43.335 35.3734 43.335H30.1207C29.4407 43.335 28.8896 43.8862 28.8896 44.5661C28.8896 45.246 29.4407 45.7972 30.1207 45.7972Z" fill="white"/>
<path d="M30.1207 58.9285H35.3734C36.0535 58.9285 36.6046 58.3773 36.6046 57.6974C36.6046 57.0175 36.0535 56.4663 35.3734 56.4663H30.1207C29.4407 56.4663 28.8896 57.0175 28.8896 57.6974C28.8896 58.3773 29.4407 58.9285 30.1207 58.9285Z" fill="white"/>
<path d="M23.5548 26.0994H24.868C25.5481 26.0994 26.0991 25.5482 26.0991 24.8683C26.0991 24.1884 25.5481 23.6372 24.868 23.6372H23.5548C22.8748 23.6372 22.3237 24.1884 22.3237 24.8683C22.3237 25.5482 22.8748 26.0994 23.5548 26.0994Z" fill="white"/>
<path d="M23.5548 39.2312H24.868C25.5481 39.2312 26.0991 38.68 26.0991 38.0001C26.0991 37.3202 25.5481 36.769 24.868 36.769H23.5548C22.8748 36.769 22.3237 37.3202 22.3237 38.0001C22.3237 38.68 22.8748 39.2312 23.5548 39.2312Z" fill="white"/>
<path d="M23.5548 52.3631H24.868C25.5481 52.3631 26.0991 51.8119 26.0991 51.132C26.0991 50.4521 25.5481 49.9009 24.868 49.9009H23.5548C22.8748 49.9009 22.3237 50.4521 22.3237 51.132C22.3237 51.8119 22.8748 52.3631 23.5548 52.3631Z" fill="white"/>
<path d="M23.5548 32.6653H24.868C25.5481 32.6653 26.0991 32.1141 26.0991 31.4342C26.0991 30.7543 25.5481 30.2031 24.868 30.2031H23.5548C22.8748 30.2031 22.3237 30.7543 22.3237 31.4342C22.3237 32.1141 22.8748 32.6653 23.5548 32.6653Z" fill="white"/>
<path d="M23.5548 45.7972H24.868C25.5481 45.7972 26.0991 45.246 26.0991 44.5661C26.0991 43.8862 25.5481 43.335 24.868 43.335H23.5548C22.8748 43.335 22.3237 43.8862 22.3237 44.5661C22.3237 45.246 22.8748 45.7972 23.5548 45.7972Z" fill="white"/>
<path d="M23.5548 58.9285H24.868C25.5481 58.9285 26.0991 58.3773 26.0991 57.6974C26.0991 57.0175 25.5481 56.4663 24.868 56.4663H23.5548C22.8748 56.4663 22.3237 57.0175 22.3237 57.6974C22.3237 58.3773 22.8748 58.9285 23.5548 58.9285Z" fill="white"/>
<path d="M45.879 43.335C41.5798 43.335 38.082 46.8328 38.082 51.1319C38.082 55.4311 41.5798 58.9289 45.879 58.9289C47.6162 58.9289 49.2222 58.3574 50.5198 57.393C50.5319 57.3845 50.5452 57.3785 50.5572 57.3695C50.59 57.3449 50.621 57.3188 50.6508 57.2917C52.4894 55.8641 53.676 53.6347 53.676 51.1319C53.676 46.8328 50.1782 43.335 45.879 43.335ZM44.6479 45.9421V49.9008H40.6892C41.1529 47.9465 42.6936 46.4058 44.6479 45.9421ZM40.6892 52.363H45.2635L48.0078 56.0222C47.3552 56.3073 46.6356 56.4667 45.879 56.4667C43.3612 56.4667 41.2466 54.7128 40.6892 52.363ZM49.9766 54.5436L47.1101 50.7216V45.9421C49.4599 46.4995 51.2138 48.6141 51.2138 51.1319C51.2138 52.4284 50.7484 53.6181 49.9766 54.5436Z" fill="white"/>
</g>
<defs>
<clipPath id="clip0_2515_1967">
<rect width="76" height="76" fill="white"/>
</clipPath>
</defs>
</svg>
