<svg width="66" height="63" viewBox="0 0 66 63" fill="none" xmlns="http://www.w3.org/2000/svg">
<g clip-path="url(#clip0_2515_2197)">
<path d="M13.4873 27.0923C14.123 26.909 14.6484 26.7567 15.2944 26.569C17.2264 31.564 20.3975 35.3143 25.1343 37.5302C25.9996 35.5937 26.6662 33.706 27.6521 32.0031C28.6115 30.3459 29.8946 28.8795 31.0409 27.3229C25.7053 22.4181 15.2796 22.7522 8.79618 28.0827C1.70352 33.9115 0.00393344 44.1336 4.75101 52.0156C8.93892 58.9678 18.9775 64.1801 29.955 58.3691C30.2758 58.8362 30.6113 59.324 31.0365 59.9434C28.1421 61.8459 25.0284 62.7447 21.7278 62.9236C11.9982 63.4528 3.31482 57.1673 0.75293 47.8262C-1.84281 38.3595 2.41867 28.504 11.1609 23.988C12.2675 23.4159 12.5323 22.8187 12.4823 21.645C12.0114 10.4931 20.1842 1.11504 31.2013 0.0876613C41.9257 -0.913113 51.6744 6.861 53.3431 17.7424C55.4473 31.4694 43.0514 43.526 29.4267 40.9982C29.2663 40.9686 29.1192 40.8666 28.8307 40.738C28.8896 40.2251 28.9499 39.687 28.9985 39.2553C32.1887 39.0839 35.2539 38.9198 38.5898 38.7409C37.7569 34.4629 35.9175 31.3349 33.1364 28.711C25.5846 34.4481 24.2529 48.3806 32.9083 55.8162C36.1736 53.6816 38.1969 49.3045 39.2093 42.101H41.0766C41.0619 48.1352 38.8664 53.1272 34.7315 57.2974C42.1508 63.2547 53.9847 61.4852 60.037 53.6372C66.3232 45.4876 65.2152 32.7525 54.4732 26.0309C54.744 25.5032 55.0191 24.9651 55.412 24.1994C56.5009 24.9651 57.5487 25.6096 58.4934 26.3813C65.5051 32.108 67.9243 41.9945 64.3882 50.357C60.8831 58.647 52.188 63.8593 43.4869 62.8866C34.1017 61.8371 26.6147 54.91 25.1225 45.8217C24.8753 44.3154 24.7458 42.7558 24.8385 41.2377C24.9107 40.0566 24.4972 39.5569 23.5142 39.0484C18.6008 36.5073 14.6793 31.8212 13.4888 27.0953L13.4873 27.0923ZM14.5454 22.3856C23.3317 21.1039 25.1005 21.4188 32.3918 25.3007C32.7876 25.5121 33.5057 25.3066 33.9987 25.107C36.4031 24.1373 38.7045 22.5984 41.1885 22.217C44.4729 21.7115 47.8941 22.0929 51.3963 22.0929C51.7024 14.9204 49.0404 8.97489 42.7762 5.04866C36.1412 0.890351 29.2428 1.00418 22.7328 5.31327C16.7703 9.2602 14.1584 15.0786 14.5454 22.3856ZM40.5984 37.5775C46.0871 34.8265 49.5584 30.6712 51.0328 24.6414C45.113 22.9089 39.7685 23.7781 34.6152 27.2342C37.6304 30.0917 39.4903 33.5419 40.5984 37.5775Z" fill="white"/>
</g>
<defs>
<clipPath id="clip0_2515_2197">
<rect width="66" height="63" fill="white"/>
</clipPath>
</defs>
</svg>
