<svg width="61" height="61" viewBox="0 0 61 61" fill="none" xmlns="http://www.w3.org/2000/svg">
<g clip-path="url(#clip0_2515_2199)">
<path d="M0 50.9953C0.097078 50.5958 0.18779 50.1947 0.292825 49.7967C0.730472 48.1445 1.60258 46.758 2.8089 45.5531C13.8567 34.5125 24.8965 23.4624 35.9443 12.4203C36.1098 12.2547 36.3406 12.1528 36.6302 11.9602C36.078 11.4477 35.6722 11.0991 35.2982 10.7202C34.4691 9.88138 34.4515 8.86105 35.2727 8.03651C37.749 5.54538 40.2333 3.06062 42.7271 0.587004C42.9721 0.345054 43.3063 0.192243 43.5992 -0.00195312C43.8777 -0.00195312 44.1546 -0.00195312 44.4331 -0.00195312C44.8612 0.308443 45.3386 0.567902 45.7094 0.935602C50.5203 5.72366 55.3154 10.5276 60.1136 15.3268C61.296 16.5095 61.296 17.3882 60.1136 18.5693C57.7837 20.8996 55.4554 23.23 53.1255 25.5572C52.107 26.5743 51.1458 26.5791 50.1416 25.5667C49.809 25.2309 49.5034 24.8695 49.0403 24.3586C48.8398 24.6578 48.7363 24.8855 48.5708 25.051C37.5326 36.1011 26.4864 47.1417 15.4497 58.1933C13.6037 60.0414 11.4075 61.0156 8.79113 60.9965C4.49901 60.963 0.803679 57.7683 0.117767 53.5247C0.097078 53.3926 0.0397861 53.2668 0 53.1379C0 52.4232 0 51.7085 0 50.9937L0 50.9953ZM9.05849 44.598C7.57368 46.0226 6.03793 47.3024 4.74409 48.7923C3.37386 50.3698 3.20357 52.2863 4.03272 54.2155C5.55732 57.7699 10.0611 58.5181 12.8875 55.6927C23.9799 44.606 35.0658 33.5129 46.1534 22.4214C46.2887 22.2861 46.4112 22.1412 46.5147 22.0298C43.9811 19.4957 41.4841 16.9982 39.019 14.5325C37.3703 16.1816 35.704 17.8498 34.0028 19.5514C35.147 20.6943 36.3406 21.8818 37.5294 23.074C38.4906 24.0386 38.5002 25.0255 37.5453 25.9806C30.1785 33.3537 22.8101 40.7236 15.4402 48.0935C14.4837 49.0502 13.4859 49.047 12.5326 48.0935C11.3534 46.9156 10.182 45.7297 9.05849 44.5996V44.598ZM13.9363 44.3019C20.5392 37.6992 27.1691 31.0695 33.764 24.4732C33.0081 23.7187 32.1965 22.9085 31.4342 22.1476C24.8329 28.7503 18.2029 35.38 11.6032 41.9795C12.3751 42.7484 13.1867 43.557 13.9347 44.3019H13.9363ZM46.5179 16.8136C48.1586 15.1677 49.8281 13.4931 51.4291 11.8886C50.6699 11.1277 49.8519 10.3064 49.1008 9.55347C47.4743 11.1628 45.8033 12.8166 44.1514 14.4514C44.9408 15.2393 45.7524 16.0495 46.5195 16.8152L46.5179 16.8136ZM44.0527 4.48685C42.4279 6.10569 40.7648 7.76273 39.1511 9.36883C39.9373 10.1536 40.7568 10.9733 41.5382 11.7517C43.1599 10.1297 44.8214 8.46629 46.4272 6.86019C45.6346 6.06748 44.8118 5.24613 44.0527 4.48685ZM51.5596 21.8611C53.2258 20.1961 54.8873 18.5375 56.493 16.9345C55.7212 16.1657 54.9016 15.3459 54.1393 14.5851C52.5176 16.2055 50.8546 17.8673 49.2122 19.5084C49.9888 20.2868 50.7973 21.0986 51.5611 21.8627L51.5596 21.8611Z" fill="white"/>
</g>
<defs>
<clipPath id="clip0_2515_2199">
<rect width="61" height="61" fill="white"/>
</clipPath>
</defs>
</svg>
