<svg width="294" height="251" viewBox="0 0 294 251" fill="none" xmlns="http://www.w3.org/2000/svg">
<g clip-path="url(#clip0_2515_2384)">
<path d="M147.261 62.2325L148.5 66.0629C148.563 66.2522 148.739 66.3847 148.94 66.3847H152.958C153.404 66.3847 153.587 66.9589 153.228 67.2177L149.978 69.584C149.814 69.7039 149.751 69.9122 149.808 70.1015L151.047 73.9319C151.185 74.3547 150.701 74.7143 150.336 74.4493L147.085 72.0829C146.922 71.963 146.708 71.963 146.544 72.0829L143.294 74.4493C142.935 74.7143 142.445 74.361 142.583 73.9319L143.822 70.1015C143.885 69.9122 143.822 69.7039 143.652 69.584L140.401 67.2177C140.043 66.9526 140.225 66.3847 140.672 66.3847H144.69C144.891 66.3847 145.067 66.2585 145.13 66.0629L146.368 62.2325C146.507 61.8097 147.104 61.8097 147.242 62.2325H147.261Z" fill="white"/>
<path d="M170.891 70.2971L171.941 73.5406C171.991 73.7047 172.142 73.812 172.312 73.812H175.707C176.084 73.812 176.242 74.2979 175.933 74.5187L173.186 76.5191C173.047 76.6201 172.991 76.7968 173.047 76.9545L174.097 80.198C174.217 80.5577 173.802 80.8543 173.5 80.6334L170.752 78.6331C170.614 78.5321 170.432 78.5321 170.293 78.6331L167.545 80.6334C167.237 80.8543 166.829 80.5577 166.948 80.198L167.998 76.9545C168.048 76.7904 167.998 76.6201 167.86 76.5191L165.112 74.5187C164.804 74.2979 164.961 73.812 165.338 73.812H168.734C168.904 73.812 169.055 73.7047 169.105 73.5406L170.155 70.2971C170.274 69.9374 170.777 69.9374 170.897 70.2971H170.891Z" fill="white"/>
<path d="M123.103 70.2971L122.053 73.5406C122.003 73.7047 121.852 73.812 121.682 73.812H118.287C117.909 73.812 117.752 74.2979 118.06 74.5187L120.808 76.5191C120.946 76.6201 121.003 76.7968 120.946 76.9545L119.896 80.198C119.777 80.5577 120.192 80.8543 120.494 80.6334L123.241 78.6331C123.38 78.5321 123.562 78.5321 123.7 78.6331L126.448 80.6334C126.756 80.8543 127.165 80.5577 127.046 80.198L125.996 76.9545C125.945 76.7904 125.996 76.6201 126.134 76.5191L128.882 74.5187C129.183 74.2979 129.033 73.812 128.655 73.812H125.26C125.09 73.812 124.939 73.7047 124.889 73.5406L123.839 70.2971C123.719 69.9374 123.216 69.9374 123.097 70.2971H123.103Z" fill="white"/>
<path d="M147.261 188.767L148.5 184.937C148.563 184.748 148.739 184.615 148.94 184.615H152.958C153.404 184.615 153.587 184.041 153.228 183.782L149.978 181.416C149.814 181.296 149.751 181.088 149.808 180.898L151.047 177.068C151.185 176.645 150.701 176.286 150.336 176.551L147.085 178.917C146.922 179.037 146.708 179.037 146.544 178.917L143.294 176.551C142.935 176.286 142.445 176.639 142.583 177.068L143.822 180.898C143.885 181.088 143.822 181.296 143.652 181.416L140.401 183.782C140.043 184.047 140.225 184.615 140.672 184.615H144.69C144.891 184.615 145.067 184.741 145.13 184.937L146.368 188.767C146.507 189.19 147.104 189.19 147.242 188.767H147.261Z" fill="white"/>
<path d="M170.891 180.703L171.941 177.459C171.991 177.295 172.142 177.188 172.312 177.188H175.707C176.084 177.188 176.242 176.702 175.933 176.481L173.186 174.481C173.047 174.38 172.991 174.203 173.047 174.045L174.097 170.802C174.217 170.442 173.802 170.146 173.5 170.366L170.752 172.367C170.614 172.468 170.432 172.468 170.293 172.367L167.545 170.366C167.237 170.146 166.829 170.442 166.948 170.802L167.998 174.045C168.048 174.209 167.998 174.38 167.86 174.481L165.112 176.481C164.804 176.702 164.961 177.188 165.338 177.188H168.734C168.904 177.188 169.055 177.295 169.105 177.459L170.155 180.703C170.274 181.062 170.777 181.062 170.897 180.703H170.891Z" fill="white"/>
<path d="M123.103 180.703L122.053 177.459C122.003 177.295 121.852 177.188 121.682 177.188H118.287C117.909 177.188 117.752 176.702 118.06 176.481L120.808 174.481C120.946 174.38 121.003 174.203 120.946 174.045L119.896 170.802C119.777 170.442 120.192 170.146 120.494 170.366L123.241 172.367C123.38 172.468 123.562 172.468 123.7 172.367L126.448 170.366C126.756 170.146 127.165 170.442 127.046 170.802L125.996 174.045C125.945 174.209 125.996 174.38 126.134 174.481L128.882 176.481C129.183 176.702 129.033 177.188 128.655 177.188H125.26C125.09 177.188 124.939 177.295 124.889 177.459L123.839 180.703C123.719 181.062 123.216 181.062 123.097 180.703H123.103Z" fill="white"/>
<path d="M35.4447 85.8521H68.3929C82.8675 57.0076 112.622 37.2057 146.997 37.2057C181.373 37.2057 211.127 57.0076 225.601 85.8521H258.549C256.173 84.5459 254.072 83.1513 253.312 81.3087C251.293 76.4308 257.927 67.2682 255.311 62.7374C252.683 58.175 241.459 59.3803 238.271 55.2155C235.077 51.0443 239.126 40.4682 235.423 36.7577C231.719 33.0409 221.187 37.1048 217.031 33.8991C212.887 30.6998 214.088 19.4358 209.536 16.7981C205.021 14.173 195.891 20.8304 191.031 18.8048C186.221 16.8044 184.466 5.60989 179.367 4.24686C174.355 2.90276 167.269 11.712 162.019 11.0242C156.888 10.3553 152.304 0 146.991 0C141.678 0 137.094 10.3553 131.963 11.0242C126.713 11.712 119.632 2.90276 114.615 4.24686C109.515 5.6162 107.761 16.8044 102.957 18.8048C98.0966 20.8304 88.9667 14.173 84.452 16.7981C79.9059 19.4358 81.1069 30.6998 76.9569 33.8991C72.8007 37.1048 62.2623 33.0409 58.565 36.7577C54.8615 40.4745 58.9109 51.0443 55.7167 55.2155C52.5287 59.374 41.305 58.1687 38.6766 62.7374C36.0609 67.2682 42.6946 76.4308 40.6762 81.3087C39.9154 83.1513 37.8152 84.5459 35.4321 85.8521H35.4447ZM235.743 74.3042C236.963 73.6479 238.479 74.1023 239.145 75.3076C239.799 76.5318 239.346 78.0526 238.145 78.7215C237.762 78.9234 237.341 79.0244 236.944 79.0244C236.058 79.0244 235.19 78.5574 234.744 77.7181C234.09 76.4939 234.542 74.9731 235.743 74.3042ZM226.148 60.371C227.236 59.5002 228.802 59.7021 229.651 60.7875C230.499 61.8918 230.305 63.4694 229.217 64.3213C228.764 64.6747 228.217 64.8577 227.682 64.8577C226.934 64.8577 226.199 64.5232 225.714 63.8859C224.866 62.8005 225.048 61.204 226.148 60.371ZM214.384 48.1794C215.321 47.1572 216.905 47.0941 217.924 48.0469V48.028C218.942 48.9682 219.005 50.5584 218.075 51.5807C217.572 52.1171 216.905 52.401 216.22 52.401C215.616 52.401 215 52.1865 214.535 51.7322C213.516 50.7919 213.453 49.2017 214.384 48.1794ZM200.802 38.0955C201.55 36.9407 203.103 36.6063 204.254 37.3761C205.424 38.1271 205.738 39.6857 204.99 40.8405C204.506 41.5788 203.707 41.9827 202.89 41.9827C202.424 41.9827 201.94 41.8502 201.519 41.5788C200.368 40.809 200.035 39.2503 200.802 38.0955ZM185.73 30.3906C186.283 29.1159 187.767 28.548 189.031 29.1033C190.301 29.6586 190.867 31.1478 190.314 32.4036C189.899 33.3564 188.981 33.9118 188.013 33.9118C187.679 33.9118 187.346 33.8423 187.025 33.7098C185.743 33.1419 185.17 31.6653 185.724 30.3906H185.73ZM169.608 25.2981C169.941 23.9604 171.312 23.14 172.645 23.4745C173.997 23.8089 174.796 25.1846 174.462 26.5223C174.179 27.6582 173.161 28.4281 172.041 28.4281C171.84 28.4281 171.626 28.3965 171.425 28.346C170.092 28.0116 169.275 26.6359 169.608 25.2981ZM155.574 20.6474C156.957 20.761 157.976 21.9726 157.875 23.3609C157.756 24.6671 156.655 25.6705 155.372 25.6705C155.303 25.6705 155.24 25.6705 155.171 25.6515C153.788 25.5506 152.769 24.3264 152.87 22.957C152.989 21.5687 154.19 20.5275 155.574 20.6474ZM138.27 20.66C139.653 20.5401 140.854 21.5814 140.973 22.957C141.093 24.3453 140.074 25.5506 138.691 25.6705C138.622 25.6705 138.559 25.6894 138.49 25.6894C137.188 25.6894 136.1 24.686 135.987 23.3798C135.868 21.9915 136.905 20.7863 138.276 20.6664L138.27 20.66ZM121.217 23.5123C122.55 23.1779 123.902 23.9793 124.254 25.336C124.587 26.6738 123.77 28.0305 122.437 28.3839C122.236 28.4344 122.022 28.4533 121.821 28.4533C120.701 28.4533 119.683 27.7024 119.4 26.5602C119.067 25.2224 119.865 23.8468 121.217 23.5123ZM104.843 29.1538C106.095 28.5985 107.579 29.1727 108.132 30.4411C108.698 31.7158 108.113 33.1861 106.849 33.7603C106.535 33.9118 106.183 33.9749 105.85 33.9749C104.881 33.9749 103.963 33.4069 103.561 32.4667C102.995 31.192 103.58 29.7217 104.843 29.1538ZM89.6269 37.4455C90.7776 36.6757 92.3495 37.0101 93.0978 38.1649C93.8461 39.3386 93.5317 40.8784 92.381 41.6482C91.9471 41.9196 91.4818 42.0521 91.0102 42.0521C90.1928 42.0521 89.3943 41.6672 88.9101 40.9289C88.1619 39.7551 88.4762 38.1965 89.6269 37.4455ZM75.9886 48.1289C76.9884 47.1887 78.5729 47.2392 79.5098 48.2615C80.4467 49.2837 80.3964 50.8739 79.3778 51.8079C78.8936 52.2622 78.2774 52.4768 77.6738 52.4768C77.0072 52.4768 76.3219 52.2117 75.8377 51.669C74.9008 50.6468 74.9511 49.0566 75.9886 48.1226V48.1289ZM64.2618 60.9074C65.1107 59.8031 66.6826 59.6201 67.783 60.453C68.8645 61.3049 69.0657 62.8951 68.2169 63.9868C67.7138 64.6242 66.9845 64.9586 66.2299 64.9586C65.6954 64.9586 65.161 64.7756 64.6957 64.4222C63.6079 63.5703 63.413 61.9928 64.2618 60.9074ZM54.7798 75.4464C55.4463 74.2222 56.9679 73.7742 58.1815 74.4241C59.3825 75.0804 59.8352 76.6201 59.1813 77.838C58.7285 78.6773 57.8608 79.1443 56.9805 79.1443C56.5781 79.1443 56.1631 79.0433 55.7984 78.8414C54.5786 78.1725 54.1321 76.6454 54.7798 75.4401V75.4464Z" fill="white"/>
<path d="M253.312 169.691C254.073 167.849 256.173 166.454 258.556 165.148H225.608C211.133 193.992 181.379 213.794 147.004 213.794C112.628 213.794 82.874 193.992 68.3994 165.148H35.4512C37.828 166.454 39.9281 167.849 40.6889 169.691C42.7073 174.569 36.0737 183.732 38.6894 188.263C41.3177 192.825 52.5415 191.62 55.7294 195.785C58.9236 199.956 54.8743 210.532 58.5778 214.242C62.2813 217.959 72.8134 213.895 76.9697 217.101C81.1134 220.3 79.9124 231.564 84.4648 234.202C88.9795 236.827 98.1094 230.17 102.97 232.195C107.78 234.196 109.534 245.39 114.634 246.753C119.645 248.097 126.732 239.288 131.982 239.976C137.113 240.645 141.697 251 147.01 251C152.323 251 156.907 240.645 162.038 239.976C167.288 239.288 174.368 248.097 179.386 246.753C184.485 245.384 186.24 234.196 191.043 232.195C195.904 230.17 205.034 236.827 209.549 234.202C214.095 231.564 212.894 220.3 217.044 217.101C221.2 213.895 231.738 217.959 235.436 214.242C239.139 210.525 235.09 199.956 238.284 195.785C241.472 191.626 252.696 192.831 255.324 188.263C257.94 183.732 251.306 174.569 253.324 169.691H253.312ZM58.188 176.582C57.8044 176.784 57.3894 176.885 56.987 176.885C56.1004 176.885 55.2327 176.399 54.7862 175.56C54.1386 174.336 54.585 172.815 55.8049 172.159C57.0058 171.49 58.5401 171.944 59.194 173.162C59.8479 174.386 59.3952 175.907 58.1943 176.576L58.188 176.582ZM67.7832 190.534C67.3179 190.888 66.7834 191.071 66.2301 191.071C65.4944 191.071 64.7587 190.736 64.262 190.099C63.4131 189.007 63.6081 187.417 64.6959 186.584C65.7962 185.713 67.3682 185.915 68.217 187.019C69.0659 188.111 68.8647 189.682 67.7832 190.534ZM79.5163 202.726C79.0321 203.262 78.3656 203.546 77.6802 203.546C77.0829 203.546 76.4604 203.332 75.9762 202.877C74.9765 201.937 74.9073 200.347 75.8442 199.325C76.7811 198.302 78.3656 198.239 79.3842 199.173C80.4029 200.113 80.4657 201.704 79.5163 202.726ZM93.098 212.822C92.6138 213.561 91.8153 213.958 90.9978 213.958C90.5325 213.958 90.061 213.826 89.6271 213.554C88.4764 212.785 88.1557 211.226 88.9103 210.071C89.6585 208.916 91.2116 208.582 92.3812 209.352C93.5318 210.103 93.8525 211.661 93.098 212.816V212.822ZM108.132 220.546C107.73 221.499 106.812 222.054 105.843 222.054C105.51 222.054 105.158 221.985 104.844 221.84C103.574 221.285 102.989 219.795 103.561 218.54C104.114 217.265 105.598 216.678 106.849 217.252C108.12 217.808 108.704 219.297 108.132 220.553V220.546ZM124.254 225.67C123.952 226.806 122.934 227.563 121.814 227.563C121.613 227.563 121.412 227.544 121.217 227.494H121.198C119.865 227.141 119.048 225.784 119.394 224.427C119.727 223.089 121.098 222.269 122.431 222.616C123.764 222.951 124.581 224.326 124.248 225.664L124.254 225.67ZM138.49 230.34H138.276C136.905 230.22 135.874 229.002 135.987 227.626C136.107 226.238 137.308 225.216 138.691 225.33C140.074 225.43 141.093 226.655 140.974 228.024C140.873 229.349 139.773 230.334 138.49 230.334V230.34ZM155.574 230.34C155.511 230.359 155.442 230.359 155.373 230.359C154.09 230.359 152.983 229.356 152.87 228.049C152.769 226.661 153.788 225.456 155.171 225.336C156.542 225.235 157.756 226.257 157.875 227.645C157.976 229.021 156.957 230.239 155.574 230.34ZM172.652 227.526V227.507C172.45 227.576 172.249 227.589 172.035 227.589C170.916 227.589 169.898 226.838 169.615 225.696C169.281 224.339 170.099 222.982 171.432 222.648C172.765 222.294 174.136 223.115 174.469 224.471C174.802 225.809 173.985 227.185 172.652 227.519V227.526ZM189.038 221.903C188.704 222.036 188.371 222.105 188.038 222.105C187.07 222.105 186.152 221.55 185.737 220.616C185.183 219.341 185.768 217.852 187.019 217.303C188.289 216.747 189.773 217.322 190.32 218.59C190.874 219.865 190.302 221.335 189.038 221.909V221.903ZM204.254 213.63C203.839 213.914 203.355 214.047 202.883 214.047C202.066 214.047 201.268 213.643 200.796 212.911C200.029 211.737 200.362 210.178 201.513 209.427C202.663 208.677 204.216 208.992 204.984 210.147C205.732 211.321 205.399 212.879 204.248 213.63H204.254ZM217.924 202.959C217.44 203.414 216.824 203.628 216.22 203.628C215.553 203.628 214.868 203.357 214.384 202.808C213.447 201.786 213.516 200.195 214.535 199.255C215.553 198.315 217.138 198.384 218.075 199.407C219.012 200.429 218.943 202.019 217.924 202.953V202.959ZM229.657 190.2C229.154 190.837 228.425 191.172 227.689 191.172C227.136 191.172 226.601 190.989 226.136 190.635C225.054 189.783 224.866 188.206 225.721 187.12V187.101C226.557 186.016 228.142 185.827 229.223 186.685C230.305 187.537 230.506 189.114 229.657 190.2ZM239.152 175.68C238.699 176.519 237.831 177.005 236.951 177.005C236.549 177.005 236.133 176.904 235.75 176.689C234.549 176.033 234.096 174.512 234.75 173.288C235.417 172.064 236.938 171.616 238.152 172.285C239.372 172.935 239.806 174.462 239.152 175.686V175.68Z" fill="white"/>
<path d="M85.4262 85.8521C98.4609 65.5328 121.179 52.0413 146.997 52.0413C172.814 52.0413 195.532 65.5328 208.567 85.8521H216.37C202.6 61.6772 176.675 45.3397 146.997 45.3397C117.318 45.3397 91.3934 61.6772 77.623 85.8521H85.4262Z" fill="white"/>
<path d="M208.567 165.148C195.532 185.467 172.814 198.959 146.997 198.959C121.179 198.959 98.4609 185.461 85.4262 165.148H77.623C91.3934 189.323 117.324 205.66 146.997 205.66C176.669 205.66 202.6 189.323 216.37 165.148H208.567Z" fill="white"/>
<path d="M289.995 91.1465H3.99906C1.79203 91.1465 0 92.9449 0 95.1599V155.84C0 158.055 1.79203 159.853 3.99906 159.853H289.995C292.202 159.853 293.994 158.055 293.994 155.84V95.1599C293.994 92.9449 292.202 91.1465 289.995 91.1465ZM76.7115 132.385C76.1142 133.331 75.2527 134.082 74.1272 134.625C73.0017 135.174 71.6687 135.451 70.1344 135.451C67.8079 135.451 65.8902 134.896 64.3937 133.792C62.8972 132.687 62.0923 131.097 61.9791 129.034H67.9148C67.9714 129.734 68.1789 130.245 68.5373 130.567C68.8957 130.889 69.361 131.047 69.9269 131.047C70.4363 131.047 70.8575 130.921 71.1908 130.662C71.5241 130.403 71.6875 130.05 71.6875 129.595C71.6875 129.009 71.4109 128.554 70.8638 128.232C70.3168 127.911 69.4239 127.551 68.1915 127.153C66.8836 126.718 65.8273 126.295 65.0224 125.891C64.2176 125.481 63.5196 124.888 62.9223 124.105C62.325 123.317 62.0294 122.294 62.0294 121.026C62.0294 119.758 62.3501 118.634 62.9978 117.719C63.6391 116.798 64.532 116.104 65.6701 115.631C66.8082 115.157 68.0909 114.924 69.5308 114.924C71.8573 114.924 73.7185 115.467 75.1144 116.558C76.504 117.65 77.2523 119.177 77.3466 121.146H71.2977C71.2788 120.54 71.0965 120.086 70.7444 119.783C70.3922 119.48 69.9458 119.328 69.3925 119.328C68.9775 119.328 68.6379 119.455 68.3676 119.694C68.1035 119.941 67.9714 120.294 67.9714 120.748C67.9714 121.127 68.1161 121.455 68.4116 121.726C68.7071 122.004 69.0718 122.238 69.5057 122.433C69.9395 122.629 70.5872 122.881 71.436 123.184C72.7062 123.619 73.7499 124.049 74.5736 124.478C75.3974 124.9 76.1079 125.5 76.7052 126.264C77.3026 127.027 77.5981 127.999 77.5981 129.173C77.5981 130.346 77.3026 131.432 76.7052 132.378L76.7115 132.385ZM85.7597 135.256H80.195V115.239H85.7597V135.256ZM107.49 135.256H101.926L94.5124 124.068V135.256H88.9476V115.239H94.5124L101.926 126.573V115.239H107.49V135.256ZM129.674 129.236C129.24 130.296 128.599 131.293 127.756 132.214C126.914 133.142 125.851 133.905 124.562 134.499C123.273 135.098 121.808 135.395 120.16 135.395C118.155 135.395 116.375 134.965 114.835 134.101C113.288 133.236 112.099 132.037 111.257 130.498C110.414 128.952 109.993 127.191 109.993 125.203C109.993 123.216 110.414 121.48 111.257 119.934C112.099 118.388 113.288 117.189 114.822 116.331C116.356 115.473 118.123 115.037 120.135 115.037C122.657 115.037 124.738 115.643 126.385 116.855C128.033 118.066 129.058 119.72 129.454 121.827H123.462C123.141 121.297 122.701 120.893 122.141 120.609C121.581 120.325 120.921 120.187 120.167 120.187C118.765 120.187 117.664 120.641 116.859 121.55C116.054 122.458 115.652 123.683 115.652 125.216C115.652 126.939 116.08 128.251 116.947 129.147C117.809 130.043 119.066 130.498 120.714 130.498C122.663 130.498 124.053 129.614 124.889 127.854H119.293V123.853H129.686V129.248L129.674 129.236ZM143.96 135.256H132.17V115.239H137.735V130.996H143.954V135.256H143.96ZM158.931 119.694H151.688V122.957H158.076V127.191H151.688V130.794H158.931V135.256H146.123V115.239H158.931V119.694ZM182.19 119.663H176.851V135.256H171.287V119.663H166.005V115.233H182.196V119.663H182.19ZM197.073 119.694H189.83V122.957H196.218V127.191H189.83V130.794H197.073V135.256H184.265V115.239H197.073V119.694ZM213.962 132.385C213.365 133.331 212.503 134.082 211.378 134.625C210.252 135.174 208.919 135.451 207.385 135.451C205.059 135.451 203.141 134.896 201.651 133.792C200.16 132.687 199.349 131.097 199.236 129.034H205.172C205.228 129.734 205.436 130.245 205.794 130.567C206.153 130.889 206.618 131.047 207.184 131.047C207.693 131.047 208.115 130.921 208.448 130.662C208.781 130.403 208.945 130.05 208.945 129.595C208.945 129.009 208.668 128.554 208.121 128.232C207.574 127.911 206.681 127.551 205.449 127.153C204.141 126.718 203.084 126.295 202.279 125.891C201.475 125.481 200.777 124.888 200.179 124.105C199.582 123.317 199.286 122.294 199.286 121.026C199.286 119.758 199.607 118.634 200.255 117.719C200.902 116.804 201.789 116.104 202.927 115.631C204.065 115.157 205.348 114.924 206.788 114.924C209.114 114.924 210.976 115.467 212.371 116.558C213.761 117.65 214.503 119.177 214.604 121.146H208.555C208.536 120.54 208.353 120.086 208.001 119.783C207.649 119.48 207.203 119.328 206.649 119.328C206.234 119.328 205.889 119.455 205.625 119.694C205.36 119.941 205.228 120.294 205.228 120.748C205.228 121.127 205.373 121.455 205.669 121.726C205.964 122.004 206.329 122.238 206.763 122.433C207.197 122.629 207.844 122.881 208.693 123.184C209.963 123.619 211.007 124.049 211.831 124.478C212.654 124.9 213.365 125.5 213.962 126.264C214.56 127.027 214.855 127.999 214.855 129.173C214.855 130.346 214.56 131.432 213.962 132.378V132.385ZM232.524 119.663H227.186V135.256H221.621V119.663H216.339V115.233H232.53V119.663H232.524Z" fill="white"/>
</g>
<defs>
<clipPath id="clip0_2515_2384">
<rect width="294" height="251" fill="white"/>
</clipPath>
</defs>
</svg>
