<svg width="294" height="250" viewBox="0 0 294 250" fill="none" xmlns="http://www.w3.org/2000/svg">
<g clip-path="url(#clip0_2515_2401)">
<path d="M147.261 61.9847L148.5 65.7998C148.563 65.9883 148.739 66.1203 148.94 66.1203H152.958C153.404 66.1203 153.587 66.6923 153.228 66.95L149.978 69.3069C149.814 69.4263 149.751 69.6337 149.808 69.8223L151.047 73.6374C151.185 74.0585 150.701 74.4168 150.336 74.1528L147.085 71.7958C146.922 71.6764 146.708 71.6764 146.544 71.7958L143.294 74.1528C142.935 74.4168 142.445 74.0648 142.583 73.6374L143.822 69.8223C143.885 69.6337 143.822 69.4263 143.652 69.3069L140.401 66.95C140.043 66.686 140.225 66.1203 140.672 66.1203H144.69C144.891 66.1203 145.067 65.9946 145.13 65.7998L146.368 61.9847C146.507 61.5635 147.104 61.5635 147.242 61.9847H147.261Z" fill="white"/>
<path d="M170.891 70.0171L171.941 73.2477C171.991 73.4111 172.142 73.518 172.312 73.518H175.707C176.084 73.518 176.242 74.0019 175.933 74.2219L173.186 76.2143C173.047 76.3149 172.991 76.4909 173.047 76.648L174.097 79.8786C174.217 80.2368 173.802 80.5322 173.5 80.3123L170.752 78.3198C170.614 78.2193 170.432 78.2193 170.293 78.3198L167.545 80.3123C167.237 80.5322 166.829 80.2368 166.948 79.8786L167.998 76.648C168.048 76.4846 167.998 76.3149 167.86 76.2143L165.112 74.2219C164.804 74.0019 164.961 73.518 165.338 73.518H168.734C168.904 73.518 169.055 73.4111 169.105 73.2477L170.155 70.0171C170.274 69.6588 170.777 69.6588 170.897 70.0171H170.891Z" fill="white"/>
<path d="M123.103 70.0171L122.053 73.2477C122.003 73.4111 121.852 73.518 121.682 73.518H118.287C117.909 73.518 117.752 74.0019 118.06 74.2219L120.808 76.2143C120.946 76.3149 121.003 76.4909 120.946 76.648L119.896 79.8786C119.777 80.2368 120.192 80.5322 120.494 80.3123L123.241 78.3198C123.38 78.2193 123.562 78.2193 123.7 78.3198L126.448 80.3123C126.756 80.5322 127.165 80.2368 127.046 79.8786L125.996 76.648C125.945 76.4846 125.996 76.3149 126.134 76.2143L128.882 74.2219C129.183 74.0019 129.033 73.518 128.655 73.518H125.26C125.09 73.518 124.939 73.4111 124.889 73.2477L123.839 70.0171C123.719 69.6588 123.216 69.6588 123.097 70.0171H123.103Z" fill="white"/>
<path d="M147.261 188.015L148.5 184.2C148.563 184.012 148.739 183.88 148.94 183.88H152.958C153.404 183.88 153.587 183.308 153.228 183.05L149.978 180.693C149.814 180.574 149.751 180.366 149.808 180.178L151.047 176.363C151.185 175.941 150.701 175.583 150.336 175.847L147.085 178.204C146.922 178.324 146.708 178.324 146.544 178.204L143.294 175.847C142.935 175.583 142.445 175.935 142.583 176.363L143.822 180.178C143.885 180.366 143.822 180.574 143.652 180.693L140.401 183.05C140.043 183.314 140.225 183.88 140.672 183.88H144.69C144.891 183.88 145.067 184.005 145.13 184.2L146.368 188.015C146.507 188.436 147.104 188.436 147.242 188.015H147.261Z" fill="white"/>
<path d="M170.891 179.983L171.941 176.752C171.991 176.589 172.142 176.482 172.312 176.482H175.707C176.084 176.482 176.242 175.998 175.933 175.778L173.186 173.786C173.047 173.685 172.991 173.509 173.047 173.352L174.097 170.121C174.217 169.763 173.802 169.468 173.5 169.688L170.752 171.68C170.614 171.781 170.432 171.781 170.293 171.68L167.545 169.688C167.237 169.468 166.829 169.763 166.948 170.121L167.998 173.352C168.048 173.515 167.998 173.685 167.86 173.786L165.112 175.778C164.804 175.998 164.961 176.482 165.338 176.482H168.734C168.904 176.482 169.055 176.589 169.105 176.752L170.155 179.983C170.274 180.341 170.777 180.341 170.897 179.983H170.891Z" fill="white"/>
<path d="M123.103 179.983L122.053 176.752C122.003 176.589 121.852 176.482 121.682 176.482H118.287C117.909 176.482 117.752 175.998 118.06 175.778L120.808 173.786C120.946 173.685 121.003 173.509 120.946 173.352L119.896 170.121C119.777 169.763 120.192 169.468 120.494 169.688L123.241 171.68C123.38 171.781 123.562 171.781 123.7 171.68L126.448 169.688C126.756 169.468 127.165 169.763 127.046 170.121L125.996 173.352C125.945 173.515 125.996 173.685 126.134 173.786L128.882 175.778C129.183 175.998 129.033 176.482 128.655 176.482H125.26C125.09 176.482 124.939 176.589 124.889 176.752L123.839 179.983C123.719 180.341 123.216 180.341 123.097 179.983H123.103Z" fill="white"/>
<path d="M35.4447 85.5101H68.3929C82.8675 56.7805 112.622 37.0575 146.997 37.0575C181.373 37.0575 211.127 56.7805 225.601 85.5101H258.549C256.173 84.2091 254.072 82.82 253.312 80.9848C251.293 76.1263 257.927 67.0002 255.311 62.4874C252.683 57.9432 241.459 59.1437 238.271 54.9955C235.077 50.841 239.126 40.307 235.423 36.6113C231.719 32.9093 221.187 36.957 217.031 33.7641C212.887 30.5775 214.088 19.3584 209.536 16.7312C205.021 14.1166 195.891 20.7474 191.031 18.7299C186.221 16.7375 184.466 5.58754 179.367 4.22994C174.355 2.89119 167.269 11.6653 162.019 10.9802C156.888 10.314 152.304 0 146.991 0C141.678 0 137.094 10.314 131.963 10.9802C126.713 11.6653 119.632 2.89119 114.615 4.22994C109.515 5.59382 107.761 16.7375 102.957 18.7299C98.0966 20.7474 88.9667 14.1166 84.452 16.7312C79.9059 19.3584 81.1069 30.5775 76.9569 33.7641C72.8007 36.957 62.2623 32.9093 58.565 36.6113C54.8615 40.3133 58.9109 50.841 55.7167 54.9955C52.5287 59.1374 41.305 57.9369 38.6766 62.4874C36.0609 67.0002 42.6946 76.1263 40.6762 80.9848C39.9154 82.82 37.8152 84.2091 35.4321 85.5101H35.4447ZM235.743 74.0082C236.963 73.3545 238.479 73.8071 239.145 75.0075C239.799 76.2269 239.346 77.7416 238.145 78.4078C237.762 78.609 237.341 78.7095 236.944 78.7095C236.058 78.7095 235.19 78.2444 234.744 77.4085C234.09 76.1892 234.542 74.6744 235.743 74.0082ZM226.148 60.1305C227.236 59.2631 228.802 59.4642 229.651 60.5453C230.499 61.6452 230.305 63.2165 229.217 64.065C228.764 64.417 228.217 64.5993 227.682 64.5993C226.934 64.5993 226.199 64.2661 225.714 63.6313C224.866 62.5503 225.048 60.9601 226.148 60.1305ZM214.384 47.9875C215.321 46.9693 216.905 46.9064 217.924 47.8555V47.8366C218.942 48.7731 219.005 50.357 218.075 51.3752C217.572 51.9094 216.905 52.1923 216.22 52.1923C215.616 52.1923 215 51.9786 214.535 51.526C213.516 50.5896 213.453 49.0057 214.384 47.9875ZM200.802 37.9437C201.55 36.7935 203.103 36.4604 204.254 37.2272C205.424 37.9752 205.738 39.5276 204.99 40.6778C204.506 41.4132 203.707 41.8154 202.89 41.8154C202.424 41.8154 201.94 41.6834 201.519 41.4132C200.368 40.6464 200.035 39.0939 200.802 37.9437ZM185.73 30.2695C186.283 28.9999 187.767 28.4342 189.031 28.9873C190.301 29.5404 190.867 31.0237 190.314 32.2745C189.899 33.2235 188.981 33.7766 188.013 33.7766C187.679 33.7766 187.346 33.7075 187.025 33.5755C185.743 33.0098 185.17 31.5391 185.724 30.2695H185.73ZM169.608 25.1974C169.941 23.8649 171.312 23.0478 172.645 23.3809C173.997 23.714 174.796 25.0842 174.462 26.4167C174.179 27.548 173.161 28.3148 172.041 28.3148C171.84 28.3148 171.626 28.2834 171.425 28.2331C170.092 27.9 169.275 26.5298 169.608 25.1974ZM155.574 20.5652C156.957 20.6783 157.976 21.8851 157.875 23.2678C157.756 24.5688 156.655 25.5682 155.372 25.5682C155.303 25.5682 155.24 25.5682 155.171 25.5493C153.788 25.4488 152.769 24.2294 152.87 22.8655C152.989 21.4828 154.19 20.4457 155.574 20.5652ZM138.27 20.5777C139.653 20.4583 140.854 21.4954 140.973 22.8655C141.093 24.2483 140.074 25.4488 138.691 25.5682C138.622 25.5682 138.559 25.587 138.49 25.587C137.188 25.587 136.1 24.5877 135.987 23.2867C135.868 21.9039 136.905 20.7034 138.276 20.584L138.27 20.5777ZM121.217 23.4186C122.55 23.0855 123.902 23.8837 124.254 25.2351C124.587 26.5675 123.77 27.9188 122.437 28.2708C122.236 28.3211 122.022 28.34 121.821 28.34C120.701 28.34 119.683 27.592 119.4 26.4544C119.067 25.1219 119.865 23.7518 121.217 23.4186ZM104.843 29.0376C106.095 28.4845 107.579 29.0565 108.132 30.3198C108.698 31.5894 108.113 33.0538 106.849 33.6258C106.535 33.7766 106.183 33.8395 105.85 33.8395C104.881 33.8395 103.963 33.2738 103.561 32.3373C102.995 31.0677 103.58 29.6033 104.843 29.0376ZM89.6269 37.2964C90.7776 36.5296 92.3495 36.8627 93.0978 38.0129C93.8461 39.1819 93.5317 40.7155 92.381 41.4823C91.9471 41.7526 91.4818 41.8845 91.0102 41.8845C90.1928 41.8845 89.3943 41.5012 88.9101 40.7658C88.1619 39.5967 88.4762 38.0443 89.6269 37.2964ZM75.9886 47.9372C76.9884 47.0007 78.5729 47.051 79.5098 48.0692C80.4467 49.0874 80.3964 50.6713 79.3778 51.6015C78.8936 52.054 78.2774 52.2677 77.6738 52.2677C77.0072 52.2677 76.3219 52.0037 75.8377 51.4632C74.9008 50.445 74.9511 48.8611 75.9886 47.9309V47.9372ZM64.2618 60.6647C65.1107 59.5648 66.6826 59.3825 67.783 60.2122C68.8645 61.0607 69.0657 62.6446 68.2169 63.7319C67.7138 64.3667 66.9845 64.6998 66.2299 64.6998C65.6954 64.6998 65.161 64.5175 64.6957 64.1656C63.6079 63.3171 63.413 61.7458 64.2618 60.6647ZM54.7798 75.1458C55.4463 73.9265 56.9679 73.4802 58.1815 74.1276C59.3825 74.7813 59.8352 76.3149 59.1813 77.5279C58.7285 78.3638 57.8608 78.8289 56.9805 78.8289C56.5781 78.8289 56.1631 78.7284 55.7984 78.5272C54.5786 77.861 54.1321 76.34 54.7798 75.1395V75.1458Z" fill="white"/>
<path d="M253.312 169.015C254.073 167.18 256.173 165.791 258.556 164.49H225.608C211.133 193.22 181.379 212.942 147.004 212.942C112.628 212.942 82.874 193.22 68.3994 164.49H35.4512C37.828 165.791 39.9281 167.18 40.6889 169.015C42.7073 173.874 36.0737 183 38.6894 187.513C41.3177 192.057 52.5415 190.856 55.7294 195.005C58.9236 199.159 54.8743 209.693 58.5778 213.389C62.2813 217.091 72.8134 213.043 76.9697 216.236C81.1134 219.423 79.9124 230.642 84.4648 233.269C88.9795 235.883 98.1094 229.253 102.97 231.27C107.78 233.263 109.534 244.412 114.634 245.77C119.645 247.109 126.732 238.335 131.982 239.02C137.113 239.686 141.697 250 147.01 250C152.323 250 156.907 239.686 162.038 239.02C167.288 238.335 174.368 247.109 179.386 245.77C184.485 244.406 186.24 233.263 191.043 231.27C195.904 229.253 205.034 235.883 209.549 233.269C214.095 230.642 212.894 219.423 217.044 216.236C221.2 213.043 231.738 217.091 235.436 213.389C239.139 209.687 235.09 199.159 238.284 195.005C241.472 190.863 252.696 192.063 255.324 187.513C257.94 183 251.306 173.874 253.324 169.015H253.312ZM58.188 175.879C57.8044 176.08 57.3894 176.18 56.987 176.18C56.1004 176.18 55.2327 175.696 54.7862 174.86C54.1386 173.641 54.585 172.126 55.8049 171.473C57.0058 170.807 58.5401 171.259 59.194 172.472C59.8479 173.691 59.3952 175.206 58.1943 175.872L58.188 175.879ZM67.7832 189.775C67.3179 190.127 66.7834 190.309 66.2301 190.309C65.4944 190.309 64.7587 189.976 64.262 189.342C63.4131 188.254 63.6081 186.67 64.6959 185.841C65.7962 184.973 67.3682 185.174 68.217 186.274C69.0659 187.362 68.8647 188.927 67.7832 189.775ZM79.5163 201.918C79.0321 202.452 78.3656 202.735 77.6802 202.735C77.0829 202.735 76.4604 202.522 75.9762 202.069C74.9765 201.133 74.9073 199.549 75.8442 198.531C76.7811 197.512 78.3656 197.449 79.3842 198.38C80.4029 199.316 80.4657 200.9 79.5163 201.918ZM93.098 211.975C92.6138 212.71 91.8153 213.106 90.9978 213.106C90.5325 213.106 90.061 212.974 89.6271 212.704C88.4764 211.937 88.1557 210.384 88.9103 209.234C89.6585 208.084 91.2116 207.751 92.3812 208.518C93.5318 209.266 93.8525 210.818 93.098 211.968V211.975ZM108.132 219.668C107.73 220.617 106.812 221.17 105.843 221.17C105.51 221.17 105.158 221.101 104.844 220.956C103.574 220.403 102.989 218.92 103.561 217.669C104.114 216.399 105.598 215.815 106.849 216.387C108.12 216.94 108.704 218.423 108.132 219.674V219.668ZM124.254 224.771C123.952 225.903 122.934 226.657 121.814 226.657C121.613 226.657 121.412 226.638 121.217 226.588H121.198C119.865 226.236 119.048 224.884 119.394 223.533C119.727 222.201 121.098 221.383 122.431 221.729C123.764 222.062 124.581 223.432 124.248 224.765L124.254 224.771ZM138.49 229.422H138.276C136.905 229.303 135.874 228.09 135.987 226.72C136.107 225.337 137.308 224.319 138.691 224.432C140.074 224.532 141.093 225.752 140.974 227.116C140.873 228.435 139.773 229.416 138.49 229.416V229.422ZM155.574 229.422C155.511 229.441 155.442 229.441 155.373 229.441C154.09 229.441 152.983 228.442 152.87 227.141C152.769 225.758 153.788 224.558 155.171 224.438C156.542 224.338 157.756 225.356 157.875 226.738C157.976 228.109 156.957 229.322 155.574 229.422ZM172.652 226.619V226.6C172.45 226.669 172.249 226.682 172.035 226.682C170.916 226.682 169.898 225.934 169.615 224.796C169.281 223.445 170.099 222.094 171.432 221.761C172.765 221.409 174.136 222.226 174.469 223.577C174.802 224.909 173.985 226.28 172.652 226.613V226.619ZM189.038 221.019C188.704 221.151 188.371 221.22 188.038 221.22C187.07 221.22 186.152 220.667 185.737 219.737C185.183 218.467 185.768 216.984 187.019 216.437C188.289 215.884 189.773 216.456 190.32 217.719C190.874 218.989 190.302 220.453 189.038 221.025V221.019ZM204.254 212.779C203.839 213.062 203.355 213.194 202.883 213.194C202.066 213.194 201.268 212.792 200.796 212.063C200.029 210.893 200.362 209.341 201.513 208.593C202.663 207.845 204.216 208.159 204.984 209.31C205.732 210.479 205.399 212.031 204.248 212.779H204.254ZM217.924 202.151C217.44 202.603 216.824 202.817 216.22 202.817C215.553 202.817 214.868 202.547 214.384 202C213.447 200.982 213.516 199.398 214.535 198.461C215.553 197.525 217.138 197.594 218.075 198.612C219.012 199.63 218.943 201.214 217.924 202.144V202.151ZM229.657 189.442C229.154 190.077 228.425 190.41 227.689 190.41C227.136 190.41 226.601 190.228 226.136 189.876C225.054 189.027 224.866 187.456 225.721 186.375V186.356C226.557 185.275 228.142 185.086 229.223 185.941C230.305 186.79 230.506 188.361 229.657 189.442ZM239.152 174.98C238.699 175.816 237.831 176.3 236.951 176.3C236.549 176.3 236.133 176.199 235.75 175.986C234.549 175.332 234.096 173.817 234.75 172.598C235.417 171.378 236.938 170.932 238.152 171.598C239.372 172.246 239.806 173.767 239.152 174.986V174.98Z" fill="white"/>
<path d="M85.4262 85.5101C98.4609 65.2718 121.179 51.8341 146.997 51.8341C172.814 51.8341 195.532 65.2718 208.567 85.5101H216.37C202.6 61.4316 176.675 45.1592 146.997 45.1592C117.318 45.1592 91.3934 61.4316 77.623 85.5101H85.4262Z" fill="white"/>
<path d="M208.567 164.49C195.532 184.728 172.814 198.166 146.997 198.166C121.179 198.166 98.4609 184.722 85.4262 164.49H77.623C91.3934 188.568 117.324 204.841 146.997 204.841C176.669 204.841 202.6 188.568 216.37 164.49H208.567Z" fill="white"/>
<path d="M202.317 119.557C200.877 119.557 199.752 120.016 198.934 120.927C198.117 121.839 197.714 123.089 197.714 124.673C197.714 126.257 198.123 127.476 198.934 128.394C199.745 129.312 200.877 129.764 202.317 129.764C203.757 129.764 204.857 129.305 205.681 128.375C206.505 127.451 206.913 126.219 206.913 124.673C206.913 123.127 206.498 121.839 205.681 120.927C204.857 120.01 203.738 119.557 202.317 119.557Z" fill="white"/>
<path d="M96.2794 119.557C94.8395 119.557 93.714 120.016 92.8966 120.927C92.0792 121.839 91.6768 123.089 91.6768 124.673C91.6768 126.257 92.0855 127.476 92.8966 128.394C93.7077 129.312 94.8395 129.764 96.2794 129.764C97.7194 129.764 98.8197 129.305 99.6434 128.375C100.467 127.451 100.876 126.219 100.876 124.673C100.876 123.127 100.461 121.839 99.6434 120.927C98.8197 120.01 97.7005 119.557 96.2794 119.557Z" fill="white"/>
<path d="M49.6426 127.219H53.9309L51.7742 120.77L49.6426 127.219Z" fill="white"/>
<path d="M156.045 126.515V120.6L152.128 126.515H156.045Z" fill="white"/>
<path d="M289.995 90.7833H3.99906C1.79203 90.7833 0 92.5746 0 94.7807V155.219C0 157.425 1.79203 159.217 3.99906 159.217H289.995C292.202 159.217 293.994 157.425 293.994 155.219V94.7807C293.994 92.5746 292.202 90.7833 289.995 90.7833ZM40.5816 119.186H35.2433V134.717H29.6786V119.186H24.3968V114.774H40.5879V119.186H40.5816ZM56.4018 134.717L55.3203 131.467H48.2214L47.1399 134.717H41.2859L48.5861 114.78H55.0059L62.2747 134.717H56.3955H56.4018ZM79.1826 119.186H73.8443V134.717H68.2795V119.186H62.9978V114.774H79.1889V119.186H79.1826ZM105.17 129.946C104.258 131.499 103.02 132.718 101.448 133.592C99.8759 134.465 98.153 134.905 96.2792 134.905C94.4055 134.905 92.6826 134.465 91.1106 133.592C89.5387 132.712 88.2937 131.499 87.3757 129.946C86.4576 128.388 85.9986 126.634 85.9986 124.673C85.9986 122.712 86.4576 120.952 87.3757 119.4C88.2937 117.841 89.5387 116.634 91.1106 115.767C92.6826 114.9 94.4055 114.466 96.2792 114.466C98.153 114.466 99.901 114.9 101.46 115.767C103.026 116.634 104.258 117.847 105.17 119.4C106.082 120.952 106.535 122.712 106.535 124.673C106.535 126.634 106.082 128.394 105.17 129.946ZM122.613 119.186H114.602V122.693H120.513V126.911H114.602V134.717H109.037V114.78H122.613V119.192V119.186ZM144.23 134.434H129.743V130.273C131.579 128.84 133.082 127.608 134.258 126.571C135.434 125.534 136.414 124.466 137.213 123.36C138.012 122.253 138.408 121.204 138.408 120.204C138.408 119.601 138.269 119.13 137.993 118.79C137.716 118.451 137.314 118.281 136.785 118.281C136.257 118.281 135.811 118.514 135.509 118.972C135.207 119.438 135.063 120.11 135.081 120.996H129.686C129.743 119.318 130.114 117.929 130.793 116.823C131.472 115.723 132.365 114.912 133.465 114.391C134.566 113.869 135.786 113.611 137.131 113.611C139.458 113.611 141.193 114.189 142.331 115.34C143.469 116.49 144.035 117.979 144.035 119.808C144.035 121.769 143.375 123.605 142.061 125.32C140.747 127.036 139.099 128.576 137.131 129.928H144.23V134.428V134.434ZM163.427 131.323H161.239V134.717H155.617V131.323H146.412V126.741L155.133 114.353H161.239V126.515H163.427V131.323ZM189.534 134.717H183.969V126.71H177.178V134.717H171.614V114.78H177.178V122.272H183.969V114.78H189.534V134.717ZM211.208 129.946C210.296 131.499 209.058 132.718 207.486 133.592C205.914 134.465 204.191 134.905 202.317 134.905C200.443 134.905 198.721 134.465 197.149 133.592C195.577 132.712 194.332 131.499 193.414 129.946C192.496 128.388 192.037 126.634 192.037 124.673C192.037 122.712 192.496 120.952 193.414 119.4C194.332 117.841 195.577 116.634 197.149 115.767C198.721 114.9 200.443 114.466 202.317 114.466C204.191 114.466 205.939 114.9 207.498 115.767C209.058 116.634 210.296 117.847 211.208 119.4C212.12 120.952 212.573 122.712 212.573 124.673C212.573 126.634 212.12 128.394 211.208 129.946ZM232.228 126.345C232.228 128.174 231.839 129.733 231.065 131.027C230.285 132.316 229.235 133.29 227.896 133.937C226.557 134.585 225.079 134.912 223.451 134.912C221.822 134.912 220.37 134.585 219.093 133.937C217.817 133.29 216.811 132.322 216.081 131.04C215.352 129.758 214.987 128.193 214.987 126.345V114.78H220.527V126.345C220.527 127.42 220.778 128.249 221.281 128.834C221.784 129.418 222.545 129.714 223.57 129.714C224.595 129.714 225.362 129.418 225.884 128.821C226.406 128.231 226.664 127.401 226.664 126.345V114.78H232.228V126.345ZM245.433 134.717L241.459 127.363H240.862V134.717H235.297V114.78H244.075C245.684 114.78 247.049 115.057 248.168 115.616C249.287 116.169 250.13 116.936 250.696 117.904C251.262 118.878 251.551 119.965 251.551 121.172C251.551 122.53 251.174 123.724 250.425 124.749C249.677 125.779 248.583 126.508 247.143 126.942L251.658 134.723H245.439L245.433 134.717ZM268.201 131.857C267.604 132.8 266.742 133.548 265.617 134.088C264.491 134.635 263.158 134.912 261.624 134.912C259.297 134.912 257.38 134.359 255.889 133.259C254.399 132.159 253.588 130.575 253.475 128.52H259.411C259.467 129.217 259.675 129.726 260.033 130.047C260.392 130.367 260.857 130.525 261.423 130.525C261.932 130.525 262.353 130.399 262.687 130.141C263.02 129.884 263.183 129.532 263.183 129.079C263.183 128.495 262.907 128.042 262.36 127.721C261.813 127.401 260.92 127.043 259.687 126.647C258.379 126.213 257.323 125.792 256.518 125.39C255.713 124.981 255.015 124.39 254.418 123.611C253.821 122.825 253.525 121.807 253.525 120.544C253.525 119.28 253.846 118.162 254.494 117.25C255.141 116.339 256.028 115.641 257.166 115.17C258.304 114.699 259.587 114.466 261.027 114.466C263.353 114.466 265.214 115.006 266.61 116.094C268 117.181 268.742 118.702 268.842 120.663H262.794C262.775 120.06 262.592 119.607 262.24 119.306C261.888 119.004 261.442 118.853 260.888 118.853C260.473 118.853 260.127 118.979 259.863 119.218C259.599 119.463 259.467 119.815 259.467 120.267C259.467 120.644 259.612 120.971 259.907 121.241C260.203 121.518 260.568 121.75 261.001 121.945C261.435 122.14 262.083 122.392 262.932 122.693C264.202 123.127 265.246 123.554 266.069 123.982C266.893 124.403 267.604 125 268.201 125.76C268.798 126.521 269.094 127.489 269.094 128.658C269.094 129.827 268.798 130.908 268.201 131.851V131.857Z" fill="white"/>
<path d="M243.615 119.412H240.861V123.567H243.615C244.37 123.567 244.942 123.391 245.319 123.033C245.697 122.674 245.885 122.153 245.885 121.48C245.885 120.839 245.69 120.336 245.301 119.965C244.911 119.601 244.351 119.412 243.609 119.412H243.615Z" fill="white"/>
</g>
<defs>
<clipPath id="clip0_2515_2401">
<rect width="294" height="250" fill="white"/>
</clipPath>
</defs>
</svg>
