<svg width="76" height="76" viewBox="0 0 76 76" fill="none" xmlns="http://www.w3.org/2000/svg">
<g clip-path="url(#clip0_2515_2213)">
<path d="M76 11.2813C75.8783 11.78 75.7684 12.2832 75.6304 12.7775C74.9951 15.0501 73.6799 16.8447 71.82 18.2846C67.6741 21.4938 63.552 24.7312 59.4195 27.9567C59.2058 28.123 58.9995 28.2967 58.7798 28.4748C59.2963 29.6623 59.8589 30.8127 60.3027 32.0061C61.3715 34.8813 61.8331 37.8293 61.18 40.8812C60.7644 42.8183 59.8634 44.4867 58.4562 45.8865C56.5621 47.7702 54.6324 49.6212 52.7977 51.5613C50.0145 54.5048 46.5752 55.3049 42.7129 54.8328C41.8579 54.7289 41.0148 54.5315 40.0692 54.3593C40.0692 54.6399 40.0633 54.9189 40.0692 55.1965C40.3186 64.9281 33.9952 73.2139 24.5783 75.4686C23.6223 75.6972 22.6412 75.8249 21.6719 76H18.4062C18.24 75.9585 18.0767 75.8991 17.909 75.8753C9.47922 74.6834 3.83117 70.0521 0.978203 62.0588C0.470547 60.6353 0.316172 59.0856 0 57.5938C0 56.5057 0 55.4162 0 54.3281C0.326562 52.8141 0.525469 51.257 1.00195 49.7904C3.79406 41.2018 11.7087 35.6918 20.7991 35.9293C21.0662 35.9367 21.3334 35.9293 21.568 35.9293C21.3943 34.586 21.1479 33.2782 21.0692 31.9616C20.8644 28.5178 21.9302 25.5595 24.4907 23.1518C26.3105 21.4403 28.071 19.665 29.7929 17.8541C32.4796 15.0293 35.8105 14.2292 39.5408 14.6152C42.3581 14.9061 44.9543 15.8977 47.4644 17.2707C47.6395 17.0644 47.8013 16.8848 47.9498 16.6963C51.1783 12.5653 54.4276 8.45057 57.6234 4.29432C59.3958 1.98908 61.6298 0.518066 64.5258 0.0979883C64.5941 0.0875977 64.6549 0.0326758 64.7202 -0.00146484C65.5114 -0.00146484 66.3041 -0.00146484 67.0952 -0.00146484C67.2333 0.0430664 67.3698 0.103926 67.5109 0.130645C71.6745 0.930723 74.3702 3.37252 75.6363 7.40557C75.7907 7.89541 75.8813 8.40455 76.0015 8.90479V11.2798L76 11.2813ZM35.6992 55.9699C35.5716 54.9412 35.4855 53.9051 35.294 52.8898C35.2316 52.5603 34.9555 52.1728 34.6661 51.9992C30.6479 49.6019 27.2546 46.5159 24.8277 42.5259C23.8999 41.0014 22.7985 40.4106 21.1716 40.4077C21.0974 40.4077 21.0232 40.3973 20.949 40.3928C10.8419 39.8362 2.89602 48.8434 4.72328 58.7872C6.16016 66.6054 13.4618 72.2327 21.228 71.5068C29.4619 70.7379 35.6265 64.0879 35.6992 55.9699ZM44.7049 20.851C42.2527 19.6071 39.7664 18.8071 37.0381 19.003C34.2297 19.2049 32.3282 20.9624 31.8829 23.7515C31.5741 25.6901 31.9141 27.5589 32.582 29.355C34.7492 35.1767 38.7466 39.4042 44.1587 42.3329C46.4016 43.5471 48.7944 44.3131 51.3876 44.2196C54.5107 44.1067 56.6022 42.2706 56.9584 39.2306C57.2895 36.4103 56.4374 33.8304 55.143 31.2995C53.5073 32.6013 51.9294 33.869 50.3322 35.1129C50.0977 35.2955 49.7741 35.4499 49.4861 35.4603C44.6218 35.6324 40.5472 31.7211 40.5427 26.8524C40.5427 26.4085 40.7313 25.889 41.0014 25.5313C42.1919 23.9563 43.4447 22.4289 44.7034 20.8481L44.7049 20.851ZM65.5263 4.4576C64.1042 4.48877 62.5991 5.21314 61.4472 6.65299C60.938 7.28978 60.4423 7.93697 59.9405 8.57971C55.1341 14.7354 50.3337 20.8941 45.5124 27.0364C45.1755 27.4669 45.1191 27.8306 45.3209 28.3085C45.7648 29.358 46.4832 30.1195 47.5208 30.6049C48.0893 30.8706 48.5213 30.8483 49.0541 30.4267C54.2168 26.3581 59.4062 22.3235 64.5866 18.2771C66.2031 17.0154 67.8374 15.7745 69.4272 14.4786C71.3658 12.8992 72.0352 10.407 71.198 8.13142C70.395 5.94939 68.2679 4.46057 65.5263 4.45611V4.4576ZM49.3955 48.6192C43.5783 47.788 38.9485 44.9899 34.9704 41.0222C30.9819 37.0441 28.2031 32.3861 27.3778 26.6386C26.548 27.3125 26.1027 28.1215 25.8222 29.027C25.2611 30.8379 25.3902 32.6652 25.9202 34.4375C27.8959 41.0474 32.2406 45.6728 38.2434 48.833C40.4804 50.0116 42.8851 50.6706 45.453 50.4703C46.9448 50.353 48.2674 49.8364 49.3941 48.6192H49.3955Z" fill="white"/>
<path d="M17.774 63.3666C15.8711 61.4562 13.8909 59.4672 11.939 57.5078C12.9068 56.5415 13.9191 55.5321 14.9879 54.4648C15.8562 55.3792 16.7647 56.3351 17.6879 57.3059C20.2203 54.7647 22.6205 52.354 24.951 50.0132C26.0613 51.1161 27.0855 52.1344 28.0489 53.0918C24.6779 56.4628 21.2089 59.9303 17.774 63.3666Z" fill="white"/>
</g>
<defs>
<clipPath id="clip0_2515_2213">
<rect width="76" height="76" fill="white"/>
</clipPath>
</defs>
</svg>
